<svg width="19" height="19" viewBox="0 0 19 19" fill="none" xmlns="http://www.w3.org/2000/svg">
<path d="M4 14.5349L8.413 14.5199L18.045 4.97988C18.423 4.60188 18.631 4.09988 18.631 3.56588C18.631 3.03188 18.423 2.52988 18.045 2.15188L16.459 0.565875C15.703 -0.190125 14.384 -0.186125 13.634 0.562875L4 10.1049V14.5349ZM15.045 1.97988L16.634 3.56288L15.037 5.14488L13.451 3.55988L15.045 1.97988ZM6 10.9389L12.03 4.96588L13.616 6.55188L7.587 12.5229L6 12.5279V10.9389Z" fill="#DEE1E6"/>
<path d="M2 18.522H16C17.103 18.522 18 17.625 18 16.522V7.85397L16 9.85397V16.522H5.158C5.132 16.522 5.105 16.532 5.079 16.532C5.046 16.532 5.013 16.523 4.979 16.522H2V2.52197H8.847L10.847 0.521973H2C0.897 0.521973 0 1.41897 0 2.52197V16.522C0 17.625 0.897 18.522 2 18.522Z" fill="#DEE1E6"/>
</svg>
