<svg width="39" height="39" viewBox="0 0 39 39" fill="none" xmlns="http://www.w3.org/2000/svg">
<rect width="39" height="39" rx="19.5" fill="#69B544"/>
<path d="M23.5571 19.5644L21.6315 23.221C21.6139 23.2546 21.5874 23.2827 21.5549 23.3022C21.5221 23.3222 21.4845 23.3328 21.4461 23.3328C21.4298 23.3351 21.4133 23.3351 21.3971 23.3328C21.3521 23.3217 21.3118 23.2965 21.2822 23.2608C21.2534 23.2241 21.2377 23.1788 21.2378 23.1322L21.2056 20.4835H20.3539C20.318 20.4834 20.2828 20.4745 20.2512 20.4575C20.2197 20.4394 20.1933 20.4136 20.1746 20.3824C20.1568 20.3512 20.1478 20.3157 20.1486 20.2798C20.1481 20.2439 20.1571 20.2085 20.1746 20.1771L22.0497 16.6017C22.0711 16.56 22.1059 16.5267 22.1485 16.5073C22.1912 16.4878 22.2391 16.4833 22.2846 16.4944C22.3302 16.5056 22.3706 16.5318 22.3994 16.5687C22.4282 16.6057 22.4437 16.6513 22.4434 16.6982V19.258H23.3763C23.4124 19.2576 23.448 19.2667 23.4795 19.2845C23.511 19.3022 23.5372 19.328 23.5555 19.3591C23.5741 19.3907 23.5839 19.4266 23.5839 19.4633C23.5839 19.4999 23.5741 19.5359 23.5555 19.5674L23.5571 19.5644ZM19.1743 18.3909H15.3246C15.2806 18.3906 15.2373 18.379 15.199 18.3572C15.1612 18.3346 15.1301 18.3023 15.1086 18.2638C15.0862 18.2258 15.0745 18.1823 15.0749 18.1382C15.0765 18.0944 15.0891 18.0517 15.1117 18.0141L16.4261 15.8265C16.4478 15.7889 16.4797 15.7582 16.518 15.7377C16.5559 15.7165 16.5986 15.7055 16.6421 15.7055L19.1728 15.7484L19.1743 18.3909ZM15.6877 21.9143L14.2814 21.85H14.1834C14.1222 21.8497 14.0612 21.8441 14.0011 21.8331H13.9551C13.7454 21.7829 13.5587 21.6636 13.425 21.4943C13.2914 21.3251 13.2185 21.1158 13.2183 20.9002C13.2183 20.7741 13.2433 20.6492 13.2916 20.5328C13.34 20.4163 13.4109 20.3106 13.5002 20.2215C13.589 20.1321 13.6948 20.0613 13.8113 20.0132C13.9278 19.965 14.0527 19.9406 14.1788 19.9412C14.4281 19.9425 14.6671 20.0409 14.8452 20.2154L15.8654 20.9599V20.9676C15.9566 21.0045 16.0345 21.0681 16.0891 21.1499C16.1432 21.2316 16.172 21.3276 16.1718 21.4256C16.1725 21.4898 16.1604 21.5535 16.1362 21.6129C16.112 21.6724 16.0762 21.7264 16.0308 21.7718C15.9403 21.8618 15.8183 21.9129 15.6908 21.9143H15.6877ZM25.7829 24.3209H24.5574V15.5462C24.5574 15.4994 24.548 15.453 24.5298 15.4099C24.5114 15.3664 24.4849 15.3269 24.4517 15.2934C24.4184 15.2603 24.3788 15.2343 24.3353 15.2168C24.2922 15.1985 24.2458 15.1891 24.1989 15.1893H23.3962V14.4432C23.397 14.4149 23.392 14.3866 23.3815 14.3603C23.371 14.3339 23.3551 14.31 23.3349 14.29C23.3151 14.2697 23.2912 14.2538 23.2648 14.2432C23.2384 14.2327 23.2101 14.2277 23.1817 14.2288C23.1534 14.2279 23.1251 14.2329 23.0988 14.2435C23.0724 14.254 23.0485 14.2699 23.0285 14.29C23.0087 14.3103 22.9931 14.3342 22.9826 14.3605C22.9721 14.3868 22.9669 14.4149 22.9673 14.4432V15.1893H20.8226V14.4432C20.8235 14.4149 20.8185 14.3866 20.8079 14.3603C20.7974 14.3339 20.7815 14.31 20.7613 14.29C20.7415 14.2697 20.7176 14.2538 20.6912 14.2432C20.6648 14.2327 20.6365 14.2277 20.6082 14.2288C20.5798 14.2281 20.5516 14.2332 20.5253 14.2437C20.499 14.2543 20.475 14.27 20.455 14.29C20.4351 14.3103 20.4195 14.3342 20.409 14.3605C20.3985 14.3868 20.3933 14.4149 20.3937 14.4432V15.1893H19.5297C19.5093 15.1878 19.4888 15.1878 19.4684 15.1893H16.5103C16.4491 15.1906 16.3892 15.2069 16.3357 15.2368C16.2823 15.2668 16.2371 15.3093 16.204 15.3608L14.4652 18.0539L14.1497 17.6985C14.1326 17.6803 14.1123 17.6652 14.0899 17.6541C14.0667 17.644 14.0417 17.6383 14.0164 17.6372H12.7802C12.7392 17.6385 12.6996 17.6524 12.6668 17.6771C12.6347 17.7026 12.612 17.7382 12.6025 17.7782L12.4952 18.2377C12.4857 18.2835 12.4939 18.3311 12.5182 18.371L12.7419 18.7356C12.7581 18.7616 12.7807 18.7832 12.8075 18.7982C12.8342 18.8132 12.8644 18.8211 12.8951 18.8214H13.9521C13.9388 18.8404 13.9234 18.8579 13.9061 18.8735L12.6806 20.0178C12.6433 20.0527 12.6136 20.095 12.5933 20.1419C12.5719 20.1901 12.5615 20.2424 12.5626 20.2951V25.8375C12.5624 25.8864 12.5719 25.9349 12.5906 25.9802C12.6092 26.0254 12.6366 26.0665 12.6712 26.1012C12.7058 26.1358 12.7469 26.1632 12.7922 26.1818C12.8374 26.2004 12.8859 26.2099 12.9349 26.2097H15.0167C15.0657 26.2099 15.1142 26.2004 15.1594 26.1818C15.2047 26.1632 15.2458 26.1358 15.2804 26.1012C15.315 26.0665 15.3424 26.0254 15.3611 25.9802C15.3797 25.9349 15.3892 25.8864 15.389 25.8375V25.1175C15.3894 25.0186 15.4289 24.9239 15.499 24.8542C15.5691 24.7844 15.6639 24.7452 15.7628 24.7452H19.4914C19.5118 24.7468 19.5323 24.7468 19.5527 24.7452H25.7829C25.8112 24.7459 25.8394 24.7408 25.8658 24.7303C25.8921 24.7198 25.916 24.704 25.9361 24.684C25.9559 24.6637 25.9715 24.6398 25.982 24.6135C25.9926 24.5872 25.9978 24.5591 25.9974 24.5308C25.9969 24.5035 25.9917 24.4766 25.982 24.4511C25.9715 24.4253 25.9558 24.4019 25.9361 24.3822C25.8951 24.3424 25.84 24.3204 25.7829 24.3209Z" fill="white"/>
<path d="M18.966 9.46305C19.1191 9.07702 19.1835 9.03719 19.6308 9.03259C19.905 9.03259 20.2206 9.10919 20.4381 8.99736C20.6556 8.88553 20.7322 8.57609 20.8977 8.37234C21.1424 8.04223 21.4612 7.77409 21.8283 7.58946C22.1954 7.40483 22.6007 7.30884 23.0117 7.30921H24.0442C24.0442 7.02734 24.2296 7.00283 24.444 7.00283C25.1518 6.98751 25.069 7.01355 25.0721 7.62631C25.0721 8.0675 25.0721 8.0675 25.5225 8.0675H26.7204C27.0467 8.0675 27.2535 8.24826 27.2734 8.54545C27.2842 8.61456 27.2795 8.68518 27.2596 8.75225C27.2409 8.82016 27.208 8.88333 27.1631 8.93761C27.1178 8.99163 27.0621 9.03593 26.9992 9.06783C26.9366 9.09887 26.8683 9.1166 26.7985 9.11991C26.4523 9.15055 26.1031 9.13829 25.7553 9.14289H25.0889V11.0501H26.7204C26.8076 11.0505 26.8935 11.0716 26.9711 11.1116C27.0486 11.1516 27.1155 11.2093 27.1665 11.2802C27.2174 11.351 27.2509 11.4328 27.2642 11.519C27.2774 11.6052 27.2701 11.6934 27.2428 11.7762C27.2178 11.8458 27.1787 11.9094 27.1279 11.9631C27.0759 12.0154 27.0133 12.0561 26.9444 12.0826C26.8755 12.109 26.8018 12.1205 26.7281 12.1163C26.2685 12.1163 25.8089 12.1163 25.3494 12.1163H25.0828V12.7827C25.0736 13.1243 25.0476 13.1457 24.7106 13.1473H24.3552C24.1744 13.158 24.0488 13.1059 24.0488 12.8731C23.724 12.8731 23.4069 12.8731 23.0898 12.8731C21.97 12.847 21.1321 12.3491 20.602 11.3565C20.5811 11.2945 20.5408 11.2408 20.4871 11.2033C20.4332 11.1679 20.3692 11.1512 20.3048 11.1558C20.0613 11.1665 19.8177 11.1558 19.5726 11.1558C19.1911 11.1558 19.0778 11.0715 18.9399 10.6564C18.3838 10.7131 17.8078 10.7453 17.2456 10.8402C16.2586 11.0088 15.3056 11.3369 14.4239 11.8115C12.825 12.6551 11.489 13.9222 10.562 15.4742C9.95553 16.4799 9.53569 17.5868 9.32267 18.7418C9.14089 19.7012 9.10834 20.683 9.22616 21.6524C9.40409 23.2138 9.95929 24.7085 10.8438 26.0075C11.6177 27.1508 12.6233 28.1187 13.7953 28.8484C14.9673 29.5781 16.2795 30.0533 17.647 30.2432C19.2047 30.461 20.7919 30.3005 22.2745 29.7752C23.757 29.2499 25.0912 28.3753 26.1643 27.2254C27.4576 25.8544 28.3269 24.1387 28.6675 22.285C28.833 21.3379 28.8696 20.3727 28.7762 19.4158C28.7225 18.6962 28.6035 17.983 28.4208 17.2849C28.1375 16.1864 27.6346 15.1567 26.9425 14.2579C26.8685 14.1868 26.8045 14.1059 26.7526 14.0174C26.7218 13.9134 26.7053 13.8057 26.7036 13.6972C26.8185 13.7079 26.9701 13.6758 27.0406 13.7386C27.3274 14.0049 27.5946 14.2916 27.8402 14.5964C28.7779 15.7868 29.4417 17.1692 29.7842 18.6452C29.9794 19.4467 30.0518 20.2731 29.9987 21.0963C29.9487 21.985 29.7945 22.8647 29.5391 23.7174C28.9747 25.5706 27.932 27.2425 26.5162 28.5648C25.1003 29.8871 23.3611 30.8131 21.4737 31.2497C20.2984 31.5153 19.0876 31.5877 17.889 31.4641C16.4199 31.3199 14.995 30.8799 13.7003 30.1707C12.4056 29.4614 11.2677 28.4976 10.3552 27.3372C9.496 26.2672 8.8553 25.0389 8.4694 23.7219C8.28015 23.0706 8.14639 22.4044 8.06958 21.7305C7.99709 21.0328 7.98121 20.3305 8.02209 19.6303C8.08769 18.6247 8.30246 17.6345 8.65936 16.6921C9.51623 14.3843 11.1205 12.4295 13.2168 11.1389C14.3745 10.4204 15.6579 9.92768 16.999 9.68671C17.647 9.56263 18.3057 9.53505 18.966 9.46305Z" fill="white"/>
</svg>
