<svg width="71" height="71" viewBox="0 0 71 71" fill="none" xmlns="http://www.w3.org/2000/svg">
<path d="M57.4584 54.1202C56.6387 53.3518 55.9412 52.6202 55.1484 52.0084C54.9778 51.9314 54.7905 51.8989 54.6039 51.9139C54.4174 51.9289 54.2376 51.9909 54.0815 52.094C52.2447 53.9646 50.1197 55.5286 47.7877 56.7263C44.4941 58.4046 40.8817 59.3646 37.1894 59.5429C33.1371 59.7313 29.2903 58.7818 25.6564 57.0762C22.6306 55.682 19.9419 53.6502 17.7745 51.1201C15.4562 48.4031 13.7645 45.2092 12.8192 41.765C10.7098 34.1938 12.205 27.3445 16.8226 21.2097C20.6963 16.0709 25.955 13.0072 32.403 11.9965C37.7156 11.1645 42.7345 11.857 47.5136 14.2992C52.092 16.6386 55.9657 19.717 58.1901 24.6796C59.1689 23.9724 60.1037 23.3509 60.9553 22.6265C61.1315 22.4773 61.1241 21.8459 60.9553 21.6012C59.421 19.3353 57.916 17.0668 55.8164 15.2389C52.5577 12.3762 48.7322 10.2325 44.5893 8.94749C40.6489 7.72533 36.4842 7.4042 32.403 8.00782C27.5456 8.71013 23.0332 10.472 19.0836 13.4941C16.2548 15.6598 13.82 18.2023 12.0165 21.2733C10.0785 24.5695 8.73748 28.0615 8.24806 31.9327C7.40872 38.5863 8.80355 44.6966 12.2906 50.3077C14.4244 53.7336 17.3218 56.4865 20.7599 58.7084C24.9109 61.4257 29.7133 62.9828 34.669 63.2184C39.705 63.4851 44.5477 62.6629 49.0895 60.4507C52.2759 58.924 55.1222 56.771 57.4584 54.1202Z" fill="#03609D"/>
<path d="M9.67969 14.9378C11.0305 15.7233 10.9717 15.6719 12.0019 14.6711C13.6268 13.105 15.2296 11.4899 17.0355 10.144C20.0462 7.93043 23.4234 6.26462 27.0122 5.22298C31.9397 3.75505 37.1426 3.46255 42.2035 4.36896C45.6772 4.96249 49.0234 6.14687 52.097 7.8707C55.1705 9.60077 58.0629 11.5878 60.3142 14.3872C61.2392 15.5398 62.2719 16.5896 63.2776 17.725C63.7939 17.402 64.3176 17.0986 64.8144 16.7584C65.3111 16.4183 65.8275 16.0072 66.4515 15.5349C57.8476 4.10957 46.437 -1.0733 32.4373 0.194279C22.6173 1.08256 14.3829 5.61207 8.01568 13.3007L9.04343 14.4851L6.72117 17.7201L5.32881 16.8269C4.19093 19.2275 2.88175 21.4396 2.05709 23.8206C-0.301871 30.6112 -0.717875 37.5413 1.2569 44.5227C2.80834 50.0115 5.41691 54.9276 9.28082 59.1659C12.3176 62.4988 15.9368 65.056 19.8717 67.1898C20.1629 67.3489 20.8505 67.3122 20.9949 67.1091C21.4623 66.4631 21.7559 65.6898 22.1303 64.9728C22.4729 64.3219 22.2429 63.994 21.6213 63.6343C20.0479 62.7362 18.5013 61.7843 16.9964 60.7761C13.5044 58.4367 10.7662 55.3387 8.61032 51.7905C6.03059 47.5535 4.48161 42.7701 4.08813 37.8251C3.57181 31.732 5.01557 26.0597 7.78809 20.6957C8.37293 19.5676 8.96759 18.7577 7.38435 17.9697L9.67969 14.9378Z" fill="#03609D"/>
<path d="M55.5865 36.1172C55.5865 35.3831 55.6012 34.649 55.5865 33.9148C55.5523 32.6913 55.0702 32.1407 53.8246 32.0942C52.3564 32.0404 50.9004 32.0502 49.4395 32.0942C48.309 32.1236 47.6189 32.6889 47.6165 33.8953C47.6165 35.3146 47.6165 36.7363 47.6165 38.158C47.6165 39.3155 48.309 39.8881 49.3514 39.9395C50.8918 40.0366 52.4368 40.0309 53.9764 39.9224C54.8916 39.849 55.6599 39.3498 55.5816 38.185C55.5498 37.4998 55.5865 36.8073 55.5865 36.1172Z" fill="#03609D"/>
<path d="M57.4585 54.1202C55.1203 56.7785 52.2697 58.9375 49.0773 60.4679C44.5356 62.6702 39.6928 63.5022 34.6568 63.2355C29.7011 63 24.8987 61.4428 20.7477 58.7256C17.3096 56.5037 14.4123 53.7556 12.2785 50.3248C8.7914 44.7137 7.38433 38.6034 8.23591 31.9499C8.72532 28.0786 10.0663 24.5867 12.0044 21.2905C13.8079 18.2194 16.2427 15.6769 19.0715 13.5113C23.021 10.4892 27.5334 8.72728 32.3908 8.02497C36.472 7.42135 40.6367 7.74248 44.5772 8.96464C48.72 10.2496 52.5455 12.3934 55.8043 15.256C57.9161 17.0864 59.421 19.3549 60.9431 21.6184C61.1071 21.8631 61.1144 22.4944 60.9431 22.6437C60.0915 23.3778 59.1519 23.9896 58.1779 24.6968C55.9535 19.7342 52.0799 16.6557 47.5014 14.3164C42.7223 11.8693 37.7132 11.1817 32.3908 12.0137C25.9428 13.0243 20.6841 16.088 16.8104 21.2269C12.1928 27.3445 10.6927 34.1963 12.807 41.7821C13.755 45.2233 15.4485 48.4138 17.7672 51.1275C19.9395 53.6487 22.6306 55.6712 25.6565 57.0567C29.2904 58.7696 33.1372 59.7117 37.1895 59.5233C40.8817 59.3451 44.4941 58.3851 47.7877 56.7068C50.1198 55.509 52.2447 53.9451 54.0816 52.0745C54.2377 51.9713 54.4174 51.9093 54.604 51.8944C54.7906 51.8794 54.9779 51.9119 55.1485 51.9888C55.9413 52.6104 56.6387 53.3421 57.4585 54.1202Z" fill="#03609D"/>
<path d="M9.67954 14.9379L7.39152 17.9771C8.97476 18.7651 8.37035 19.5751 7.79529 20.7032C5.02277 26.0573 3.57901 31.7296 4.09534 37.8326C4.48882 42.7775 6.03776 47.561 8.6175 51.7979C10.7734 55.3462 13.5116 58.4441 17.0036 60.7835C18.5085 61.7917 20.0551 62.7412 21.6285 63.6417C22.2501 63.9965 22.4801 64.3293 22.1375 64.9802C21.7631 65.6972 21.4694 66.4705 21.0021 67.1165C20.8552 67.3196 20.1701 67.3612 19.8789 67.1973C15.944 65.0634 12.3248 62.5063 9.28799 59.1734C5.42653 54.9351 2.81554 50.0189 1.2641 44.5302C-0.710673 37.5487 -0.294669 30.6186 2.0643 23.828C2.8914 21.4471 4.19813 19.2349 5.33601 16.8344L6.72837 17.7275L9.05063 14.4778L8.02288 13.2935C14.3852 5.6048 22.6245 1.0753 32.4445 0.187016C46.4368 -1.08056 57.8474 4.10231 66.4586 15.5276C65.8346 15.9975 65.3403 16.3914 64.8216 16.7512C64.3028 17.1109 63.8011 17.3947 63.2848 17.7177C62.2815 16.5945 61.2464 15.5325 60.3214 14.38C58.0701 11.5805 55.1826 9.59351 52.1042 7.86344C49.0288 6.14079 45.6808 4.95805 42.2058 4.36659C37.1449 3.46018 31.942 3.75268 27.0145 5.22061C23.4274 6.26279 20.052 7.92858 17.0427 10.1416C15.2368 11.4802 13.634 13.1026 12.0091 14.6687C10.9716 15.6647 11.0303 15.7234 9.67954 14.9379Z" fill="#03609D"/>
<path d="M55.5865 36.1172C55.5865 36.8073 55.5498 37.4998 55.5865 38.1874C55.6648 39.3522 54.8964 39.8514 53.9812 39.9248C52.4417 40.0333 50.8966 40.039 49.3563 39.9419C48.3139 39.8906 47.6238 39.3179 47.6213 38.1605C47.6213 36.7387 47.6213 35.317 47.6213 33.8977C47.6213 32.6913 48.3139 32.126 49.4444 32.0967C50.9126 32.0575 52.3686 32.0477 53.8295 32.0967C55.0751 32.1432 55.5572 32.6815 55.5914 33.9173C55.611 34.6514 55.5914 35.3855 55.5914 36.1196L55.5865 36.1172Z" fill="#03609D"/>
<path d="M23.4884 68.1908L24.5039 65.3865L26.3931 66.0716L26.2462 66.473L24.8514 65.9689L24.57 66.7421L25.8743 67.2169L25.7275 67.6206L24.4232 67.1484L24.1271 67.9632L25.5244 68.4698L25.3775 68.876L23.4884 68.1908Z" fill="#03609D"/>
<path d="M25.9893 69.0913L26.3857 67.5374C26.4077 67.4542 26.4273 67.3661 26.4444 67.278C26.4616 67.1899 26.4738 67.0994 26.486 67.0137L26.9754 67.141L26.9094 67.5594L26.8604 67.5472C26.9474 67.4255 27.0695 67.3333 27.2104 67.2829C27.3587 67.2374 27.5172 67.2374 27.6655 67.2829C27.8117 67.3149 27.9438 67.393 28.0423 67.5056C28.1353 67.6257 28.183 67.7747 28.1769 67.9265L28.1109 67.9094C28.2022 67.7794 28.3325 67.6817 28.4828 67.6304C28.6411 67.5775 28.8115 67.5732 28.9722 67.6182C29.0708 67.6349 29.1642 67.6741 29.2452 67.7327C29.3262 67.7912 29.3928 67.8676 29.4396 67.9559C29.5188 68.1765 29.5188 68.4179 29.4396 68.6386L29.1142 69.9062L28.6027 69.774L28.9209 68.5285C28.9599 68.4059 28.9599 68.2742 28.9209 68.1516C28.8977 68.1046 28.8632 68.0641 28.8205 68.0338C28.7777 68.0035 28.7282 67.9843 28.6762 67.9779C28.6133 67.9584 28.5467 67.9538 28.4818 67.9645C28.4168 67.9751 28.3552 68.0006 28.3017 68.0391C28.1845 68.1331 28.1047 68.2658 28.0766 68.4135L27.7805 69.5685L27.2666 69.4363L27.5872 68.1908C27.6251 68.0688 27.6251 67.9383 27.5872 67.8164C27.5645 67.7688 27.5302 67.7277 27.4875 67.6969C27.4447 67.6661 27.3948 67.6466 27.3425 67.6402C27.2798 67.6209 27.2136 67.6166 27.149 67.6277C27.0843 67.6387 27.0232 67.6648 26.9705 67.7038C26.8543 67.7976 26.7747 67.9293 26.7454 68.0758L26.4493 69.2308L25.9893 69.0913Z" fill="#03609D"/>
<path d="M29.7186 70.9193L30.1053 68.4306C30.1053 68.345 30.1297 68.2569 30.1371 68.1663C30.1444 68.0758 30.1517 67.9877 30.1542 67.8996L30.6583 67.9779L30.6363 68.4282H30.5898C30.6543 68.2878 30.7685 68.1762 30.9103 68.1149C31.0644 68.0487 31.2344 68.0283 31.3998 68.0562C31.5714 68.0777 31.7327 68.1496 31.8634 68.2629C31.9941 68.3761 32.0882 68.5256 32.1339 68.6924C32.2297 69.0929 32.1638 69.5149 31.9503 69.867C31.8571 70.0116 31.7235 70.1256 31.5661 70.1949C31.4046 70.2624 31.2271 70.2819 31.0547 70.2512C30.8905 70.2295 30.7364 70.1597 30.6118 70.0506C30.4963 69.9507 30.4207 69.8126 30.3989 69.6615H30.4454L30.2374 71L29.7186 70.9193ZM30.9764 69.8205C31.0516 69.8349 31.1292 69.8322 31.2033 69.8127C31.2774 69.7933 31.3462 69.7575 31.4046 69.708C31.5428 69.5798 31.6297 69.4059 31.6493 69.2186C31.6926 69.0343 31.6683 68.8407 31.5808 68.6729C31.5402 68.6066 31.4853 68.5502 31.4201 68.5078C31.3549 68.4655 31.2811 68.4383 31.204 68.4282C31.1297 68.4142 31.0532 68.4169 30.98 68.4359C30.9068 68.455 30.8388 68.4899 30.7806 68.5383C30.6474 68.6683 30.5657 68.8421 30.5506 69.0277C30.5065 69.2127 30.5309 69.4074 30.6191 69.5758C30.657 69.6404 30.7087 69.6958 30.7705 69.7381C30.8322 69.7804 30.9025 69.8085 30.9764 69.8205Z" fill="#03609D"/>
<path d="M32.5475 70.3956L32.6894 68.8123C32.6894 68.7218 32.7041 68.6288 32.709 68.5358C32.7139 68.4428 32.709 68.3523 32.709 68.2642L33.2204 68.3107V68.898H33.1372C33.1696 68.7745 33.228 68.6593 33.3085 68.5603C33.3788 68.4779 33.4689 68.4147 33.5704 68.3767C33.6722 68.3404 33.7808 68.327 33.8885 68.3376C33.9296 68.3407 33.9704 68.3464 34.0108 68.3547C34.0419 68.3624 34.0723 68.373 34.1014 68.3865L34.0549 68.849C34.0128 68.8248 33.9675 68.8066 33.9203 68.7952C33.8745 68.7839 33.8278 68.7766 33.7808 68.7732C33.6739 68.7603 33.5655 68.7772 33.4676 68.8221C33.3812 68.8635 33.3102 68.9312 33.2645 69.0154C33.2137 69.1083 33.1829 69.2109 33.1739 69.3164L33.0712 70.4518L32.5475 70.3956Z" fill="#03609D"/>
<path d="M35.3127 70.6183C35.1596 70.6219 35.0072 70.5952 34.8644 70.5398C34.7216 70.4844 34.5912 70.4013 34.4807 70.2952C34.3801 70.1847 34.3035 70.0547 34.2555 69.9132C34.2075 69.7717 34.1892 69.6219 34.2017 69.473C34.2031 69.2712 34.2543 69.0728 34.351 68.8955C34.4396 68.7362 34.571 68.6049 34.7303 68.5162C34.8995 68.4267 35.0897 68.3844 35.2809 68.3939C35.4622 68.3934 35.6397 68.4452 35.7923 68.5432C35.9294 68.635 36.0352 68.7665 36.0957 68.92C36.1666 69.097 36.1976 69.2876 36.1863 69.4779V69.6174L34.6324 69.5685V69.2895L35.8119 69.3262L35.7385 69.3825C35.7541 69.2227 35.7153 69.0623 35.6283 68.9273C35.5863 68.873 35.532 68.8294 35.4699 68.8001C35.4079 68.7707 35.3397 68.7565 35.2711 68.7585C35.1941 68.7532 35.1169 68.7662 35.0459 68.7964C34.9749 68.8265 34.912 68.8731 34.8624 68.9322C34.7544 69.0824 34.6986 69.2637 34.7034 69.4486V69.5024C34.6929 69.5956 34.7012 69.6898 34.7277 69.7798C34.7541 69.8697 34.7983 69.9534 34.8575 70.0261C34.9217 70.0894 34.9983 70.1386 35.0826 70.1706C35.1669 70.2027 35.2569 70.2168 35.3469 70.2121C35.4615 70.2176 35.5763 70.2052 35.6871 70.1753C35.7981 70.1448 35.9026 70.0942 35.9954 70.0261L36.1398 70.3858C36.0286 70.4674 35.9033 70.528 35.7703 70.5644C35.6217 70.607 35.4671 70.6251 35.3127 70.6183Z" fill="#03609D"/>
<path d="M37.4856 70.6085C37.3154 70.6162 37.145 70.6006 36.9791 70.562C36.8382 70.5298 36.7047 70.4717 36.5851 70.3907L36.7197 70.031C36.8322 70.1003 36.9542 70.1531 37.0818 70.1876C37.2111 70.2217 37.3447 70.2365 37.4783 70.2316C37.5879 70.2359 37.6962 70.2069 37.789 70.1484C37.8212 70.1268 37.8472 70.0971 37.8643 70.0623C37.8815 70.0276 37.8893 69.9889 37.8869 69.9502C37.8867 69.9213 37.8803 69.8928 37.868 69.8666C37.8558 69.8404 37.838 69.8172 37.816 69.7985C37.7527 69.7549 37.6795 69.728 37.6031 69.7202L37.1773 69.6541C37.0214 69.6344 36.8749 69.5688 36.7564 69.4657C36.707 69.4177 36.6679 69.3603 36.6415 69.2967C36.615 69.2332 36.6016 69.165 36.6022 69.0962C36.5949 68.9707 36.6284 68.8462 36.6976 68.7414C36.7737 68.6338 36.8778 68.5491 36.9987 68.4967C37.146 68.4315 37.3049 68.3966 37.466 68.3939C37.6169 68.3873 37.7679 68.4038 37.9138 68.4428C38.0453 68.4743 38.1681 68.5345 38.2736 68.619L38.1341 68.9665C38.0409 68.8993 37.9376 68.8473 37.8282 68.8123C37.7206 68.7782 37.6081 68.7625 37.4954 68.7658C37.3823 68.7601 37.2704 68.792 37.1773 68.8564C37.1468 68.8804 37.1224 68.9114 37.1062 68.9467C37.0901 68.982 37.0826 69.0207 37.0843 69.0595C37.0846 69.0879 37.0906 69.116 37.102 69.142C37.1133 69.1681 37.1298 69.1916 37.1504 69.2112C37.2065 69.2572 37.2742 69.2869 37.3461 69.2968L37.7719 69.3605C37.931 69.3779 38.082 69.4398 38.2075 69.5391C38.2584 69.5856 38.2988 69.6424 38.3262 69.7056C38.3536 69.7689 38.3674 69.8372 38.3665 69.9062C38.3737 70.035 38.3394 70.1628 38.2687 70.2708C38.1901 70.3789 38.0835 70.4635 37.9603 70.5155C37.8093 70.5758 37.6483 70.6074 37.4856 70.6085Z" fill="#03609D"/>
<path d="M39.8005 70.4494C39.633 70.469 39.4634 70.441 39.3111 70.3687C39.1567 70.2925 39.0282 70.1725 38.9416 70.0236C38.8428 69.845 38.7805 69.6486 38.7582 69.4457C38.736 69.2428 38.7542 69.0375 38.8119 68.8417C38.8662 68.6788 38.9655 68.5346 39.0982 68.4257C39.2355 68.3202 39.4003 68.2564 39.5729 68.2422C39.7405 68.2202 39.9107 68.2483 40.0623 68.3229C40.202 68.3901 40.3124 68.5058 40.3731 68.6484H40.3266V68.1981L40.8307 68.1418C40.8307 68.2299 40.8307 68.318 40.8307 68.411C40.8307 68.504 40.8307 68.5897 40.8503 68.6753L41.0241 70.2708L40.5004 70.3271L40.449 69.889H40.5004C40.4686 70.0414 40.3814 70.1765 40.2557 70.2683C40.1241 70.3704 39.9663 70.4332 39.8005 70.4494ZM39.9033 70.0285C39.9791 70.0241 40.0528 70.0022 40.1186 69.9644C40.1845 69.9266 40.2406 69.874 40.2826 69.8107C40.3792 69.6472 40.4132 69.4542 40.378 69.2675C40.3716 69.0785 40.2979 68.8979 40.17 68.7585C40.1128 68.7095 40.0461 68.6727 39.9741 68.6504C39.9022 68.628 39.8264 68.6207 39.7514 68.6287C39.6765 68.6367 39.604 68.6599 39.5384 68.697C39.4728 68.7341 39.4154 68.7841 39.3698 68.8442C39.2738 69.0079 39.2408 69.201 39.2768 69.3874C39.282 69.577 39.3549 69.7584 39.4824 69.8988C39.5378 69.9514 39.6047 69.9903 39.6778 70.0124C39.7508 70.0345 39.8281 70.0392 39.9033 70.0261V70.0285Z" fill="#03609D"/>
<path d="M43.7525 69.8083C43.5836 69.85 43.4063 69.8432 43.2411 69.7887C43.0784 69.7304 42.9364 69.6258 42.8324 69.4877C42.7132 69.3218 42.6283 69.1337 42.5829 68.9345C42.5375 68.7353 42.5325 68.529 42.5681 68.3278C42.605 68.1588 42.69 68.0042 42.8129 67.8824C42.9368 67.76 43.0929 67.6751 43.2631 67.6377C43.425 67.598 43.5949 67.6056 43.7525 67.6598C43.8978 67.7073 44.0206 67.8066 44.0976 67.9387L44.0437 67.951L43.7281 66.5733L44.2444 66.4558L44.9369 69.4902L44.4304 69.6076L44.33 69.1647H44.379C44.3697 69.3207 44.3035 69.4678 44.193 69.5783C44.072 69.6965 43.9188 69.7765 43.7525 69.8083ZM43.8039 69.38C43.879 69.366 43.9499 69.3351 44.0113 69.2898C44.0728 69.2444 44.1232 69.1858 44.1587 69.1182C44.2352 68.9444 44.2456 68.7486 44.1881 68.5676C44.1633 68.3769 44.0682 68.2024 43.9214 68.0782C43.8609 68.033 43.7908 68.0024 43.7165 67.9888C43.6422 67.9752 43.5657 67.979 43.4931 67.9999C43.4183 68.0138 43.3475 68.044 43.2858 68.0884C43.224 68.1328 43.1728 68.1903 43.1359 68.2568C43.0741 68.4348 43.0643 68.6267 43.1076 68.81C43.1509 68.9933 43.2456 69.1605 43.3806 69.292C43.4404 69.3368 43.5093 69.368 43.5824 69.3832C43.6556 69.3984 43.7312 69.3973 43.8039 69.38Z" fill="#03609D"/>
<path d="M46.6205 69.0473C46.4771 69.1004 46.3246 69.1248 46.1717 69.1189C46.0189 69.113 45.8687 69.077 45.7298 69.013C45.5987 68.9417 45.4838 68.844 45.3924 68.7261C45.301 68.6082 45.2351 68.4725 45.1987 68.3278C45.1339 68.1358 45.1171 67.9308 45.1498 67.7307C45.1832 67.5477 45.2681 67.3779 45.3945 67.2413C45.5275 67.0997 45.6968 66.9973 45.8839 66.9452C46.0554 66.8847 46.2407 66.8754 46.4174 66.9183C46.5763 66.961 46.7187 67.0505 46.826 67.1753C46.9489 67.3175 47.0399 67.4843 47.0928 67.6647L47.1344 67.7968L45.6466 68.2569L45.5658 67.9901L46.6915 67.6427L46.6401 67.721C46.6056 67.565 46.5194 67.4252 46.3953 67.3245C46.3383 67.2866 46.2728 67.263 46.2047 67.2558C46.1365 67.2485 46.0676 67.2578 46.0038 67.2829C45.9288 67.3017 45.8595 67.3384 45.8019 67.39C45.7444 67.4416 45.7003 67.5065 45.6735 67.579C45.6197 67.7555 45.6257 67.9447 45.6906 68.1174L45.7077 68.1712C45.7281 68.2624 45.7666 68.3485 45.8208 68.4246C45.875 68.5007 45.9439 68.5651 46.0234 68.6141C46.1031 68.6523 46.1898 68.6738 46.2781 68.6776C46.3664 68.6814 46.4546 68.6673 46.5373 68.6362C46.6475 68.6027 46.7522 68.5532 46.8481 68.4893C46.944 68.4234 47.0269 68.3405 47.0928 68.2446L47.3375 68.5383C47.2596 68.6521 47.1608 68.7501 47.0463 68.827C46.9177 68.9237 46.7737 68.9982 46.6205 69.0473Z" fill="#03609D"/>
<path d="M50.1271 67.7234C49.9222 67.8144 49.7055 67.8762 49.4835 67.9069C49.291 67.9326 49.0956 67.9243 48.906 67.8825L48.8913 67.4249C49.0043 67.4466 49.1189 67.4589 49.2339 67.4616C49.3517 67.4617 49.469 67.4486 49.5838 67.4224C49.7075 67.3959 49.8281 67.3566 49.9435 67.305C50.103 67.2507 50.2416 67.148 50.34 67.0113C50.37 66.9634 50.3876 66.9087 50.391 66.8523C50.3944 66.7959 50.3836 66.7395 50.3595 66.6883C50.3443 66.6459 50.3193 66.6076 50.2865 66.5766C50.2538 66.5456 50.2143 66.5227 50.1711 66.5097C50.0415 66.4882 49.9088 66.4949 49.782 66.5292L49.3073 66.632C49.0855 66.6914 48.8514 66.6871 48.6319 66.6198C48.5408 66.583 48.4583 66.5281 48.3892 66.4582C48.3202 66.3883 48.2662 66.3051 48.2306 66.2136C48.1575 66.0553 48.1369 65.8778 48.1719 65.707C48.2086 65.5337 48.2934 65.3743 48.4166 65.247C48.5654 65.0946 48.7435 64.9739 48.9402 64.8922C49.1223 64.8105 49.3166 64.7592 49.5153 64.7404C49.6903 64.7217 49.8672 64.7409 50.0341 64.7967V65.2372C49.8866 65.1932 49.7324 65.1766 49.5789 65.1882C49.4153 65.203 49.2555 65.2461 49.1067 65.3155C48.9519 65.3711 48.8184 65.4738 48.7249 65.6091C48.6904 65.662 48.6701 65.7228 48.6658 65.7858C48.6615 65.8488 48.6735 65.9118 48.7004 65.9689C48.7171 66.0125 48.7434 66.0518 48.7772 66.084C48.8111 66.1162 48.8518 66.1404 48.8962 66.1548C49.0205 66.1881 49.1512 66.1881 49.2755 66.1548L49.7478 66.0496C49.9718 65.9862 50.209 65.9862 50.4329 66.0496C50.5225 66.084 50.6039 66.1369 50.6718 66.2047C50.7397 66.2726 50.7925 66.354 50.8269 66.4436C50.898 66.5964 50.9178 66.7681 50.8832 66.933C50.8451 67.1029 50.7603 67.2588 50.6385 67.3833C50.4922 67.5294 50.3184 67.645 50.1271 67.7234Z" fill="#03609D"/>
<path d="M52.6623 66.4876C52.3981 66.6475 52.0812 66.6959 51.7814 66.6222C51.6393 66.576 51.5082 66.5011 51.3962 66.4022C51.2843 66.3033 51.1938 66.1825 51.1305 66.0472C51.0316 65.8712 50.977 65.6738 50.9714 65.4721C50.9691 65.2904 51.0173 65.1116 51.1109 64.9558C51.2131 64.7929 51.3578 64.6609 51.5293 64.574C51.686 64.4838 51.865 64.4397 52.0457 64.4468C52.2106 64.4597 52.368 64.521 52.4984 64.623C52.6469 64.7426 52.7679 64.8928 52.8532 65.0634L52.9192 65.1858L51.5464 65.9199L51.4143 65.6752L52.4543 65.1197L52.42 65.2054C52.3542 65.0585 52.2403 64.9386 52.097 64.8652C52.0336 64.8387 51.9647 64.8277 51.8962 64.8333C51.8276 64.8388 51.7614 64.8607 51.7031 64.897C51.6336 64.9304 51.5731 64.9798 51.5263 65.041C51.4795 65.1022 51.4479 65.1736 51.4339 65.2494C51.4163 65.4331 51.4583 65.6176 51.5538 65.7755L51.5807 65.8245C51.6176 65.9106 51.6715 65.9884 51.7392 66.0531C51.8069 66.1179 51.887 66.1683 51.9747 66.2013C52.0603 66.2234 52.1494 66.228 52.2369 66.215C52.3243 66.202 52.4082 66.1715 52.4837 66.1255C52.5855 66.0721 52.6788 66.0036 52.7602 65.9224C52.8408 65.8399 52.9063 65.7438 52.9535 65.6385L53.2594 65.8832C53.1998 66.0102 53.1168 66.1248 53.0147 66.2209C52.9108 66.3265 52.7921 66.4163 52.6623 66.4876Z" fill="#03609D"/>
<path d="M55.2341 66.0324C55.0818 66.131 54.9173 66.2091 54.7447 66.2649C54.5946 66.3131 54.4373 66.3346 54.2798 66.3285L54.1721 65.9444C54.2681 65.9461 54.3641 65.9379 54.4584 65.9199C54.5507 65.9024 54.6409 65.8753 54.7276 65.8391C54.8129 65.8034 54.8948 65.7599 54.9723 65.7094C55.0429 65.6719 55.1054 65.6208 55.1562 65.5591C55.207 65.4974 55.2451 65.4262 55.2683 65.3497C55.2816 65.2749 55.2795 65.1981 55.2623 65.1241C55.245 65.0501 55.213 64.9803 55.168 64.919L54.8939 64.4859L54.9307 64.4639C54.97 64.612 54.9544 64.7693 54.8866 64.9068C54.8146 65.0566 54.7007 65.1824 54.5587 65.269C54.4137 65.3667 54.2441 65.4218 54.0693 65.428C53.8964 65.433 53.7259 65.3862 53.5799 65.2934C53.423 65.1885 53.2917 65.0497 53.1957 64.8872C53.0862 64.7265 53.0165 64.5419 52.9926 64.3489C52.9721 64.1811 53.001 64.011 53.0758 63.8595C53.1568 63.7033 53.2796 63.5728 53.4306 63.4826C53.5689 63.3898 53.7314 63.3396 53.898 63.3382C54.0496 63.3373 54.1965 63.3912 54.3116 63.49H54.2651L54.0815 63.1204L54.5147 62.8464C54.5514 62.9247 54.593 63.0054 54.6346 63.0911C54.6762 63.1767 54.7251 63.2477 54.7716 63.3211L55.584 64.6034C55.6671 64.7164 55.7259 64.8454 55.7566 64.9823C55.7874 65.1192 55.7894 65.2609 55.7627 65.3987C55.6757 65.6707 55.4861 65.8981 55.2341 66.0324ZM54.4755 64.8505C54.5404 64.8118 54.596 64.7593 54.6383 64.6967C54.6806 64.6341 54.7085 64.563 54.7202 64.4883C54.7257 64.3149 54.679 64.1437 54.586 63.9971C54.4931 63.8505 54.3582 63.7352 54.199 63.6661C54.1252 63.6485 54.0486 63.6458 53.9738 63.6583C53.8989 63.6707 53.8273 63.6981 53.7632 63.7387C53.6991 63.7793 53.6438 63.8324 53.6005 63.8947C53.5573 63.9571 53.527 64.0275 53.5114 64.1017C53.4915 64.2757 53.5387 64.4508 53.6435 64.5911C53.7274 64.746 53.8662 64.8638 54.0326 64.9215C54.107 64.9435 54.1854 64.9486 54.2621 64.9363C54.3388 64.9241 54.4117 64.8947 54.4755 64.8505Z" fill="#03609D"/>
<path d="M56.8663 63.8228C56.785 63.8939 56.6895 63.9469 56.5861 63.9781C56.4827 64.0093 56.3738 64.0181 56.2668 64.0039C56.0383 63.9378 55.8417 63.7908 55.7137 63.5903L54.9331 62.5479L55.3564 62.2322L56.1346 63.2698C56.2011 63.3752 56.3024 63.4539 56.4209 63.4924C56.4753 63.5006 56.5307 63.497 56.5835 63.4818C56.6363 63.4666 56.6852 63.4402 56.7268 63.4043C56.7823 63.3644 56.8289 63.3133 56.8634 63.2543C56.898 63.1953 56.9198 63.1297 56.9275 63.0618C56.9396 62.9149 56.8939 62.7692 56.8002 62.6555L56.0661 61.6914L56.4894 61.3733L57.7692 63.0862L57.3557 63.3946L57.0939 63.0446L57.1428 63.0104C57.1852 63.1583 57.1801 63.3158 57.1281 63.4606C57.0786 63.6046 56.9875 63.7307 56.8663 63.8228Z" fill="#03609D"/>
<path d="M58.3027 62.6457L57.2725 61.4369C57.2138 61.3684 57.1526 61.2974 57.089 61.2313C57.0253 61.1652 56.9617 61.0992 56.8956 61.0404L57.2847 60.7077L57.708 61.1139L57.6444 61.1677C57.5788 61.0579 57.5379 60.9352 57.5245 60.808C57.5138 60.7009 57.5315 60.5928 57.5759 60.4948C57.6206 60.3959 57.6866 60.3081 57.7692 60.2378C57.8005 60.2116 57.8332 60.1871 57.8671 60.1644C57.8936 60.1467 57.9224 60.1327 57.9527 60.1228L58.2513 60.4776C58.2051 60.492 58.1608 60.5117 58.1192 60.5364C58.0793 60.5618 58.0417 60.5904 58.0066 60.622C57.9221 60.6883 57.8584 60.7775 57.8231 60.8789C57.7937 60.9704 57.7937 61.0689 57.8231 61.1604C57.8536 61.262 57.9063 61.3556 57.9772 61.4344L58.7114 62.3007L58.3027 62.6457Z" fill="#03609D"/>
<path d="M57.8745 59.6579L57.5221 59.2786L57.9527 58.8797L58.3051 59.2565L57.8745 59.6579ZM59.6217 61.498L58.1681 59.9319L58.5547 59.5722L60.0083 61.1383L59.6217 61.498Z" fill="#03609D"/>
<path d="M61.1144 60.1106C60.9961 60.2381 60.8443 60.3297 60.6764 60.3749C60.5084 60.4146 60.3326 60.4053 60.1698 60.3479C59.7865 60.1949 59.4783 59.8981 59.3109 59.5208C59.2482 59.3605 59.233 59.1855 59.2669 59.0167C59.3045 58.8481 59.3894 58.6936 59.5116 58.5714C59.6254 58.4509 59.7715 58.3659 59.9325 58.3267C60.08 58.2873 60.2369 58.3039 60.3729 58.3732L60.3338 58.4123L59.3158 57.4335L59.6829 57.0518L61.9268 59.2125L61.5647 59.5869L61.2392 59.2737L61.2735 59.237C61.3518 59.3714 61.3771 59.5302 61.3444 59.6823C61.3118 59.8447 61.2318 59.9937 61.1144 60.1106ZM60.9235 59.7239C60.9781 59.6713 61.0202 59.6069 61.0464 59.5357C61.0727 59.4646 61.0825 59.3884 61.0752 59.3128C61.0299 59.131 60.9343 58.9657 60.7992 58.8359C60.6642 58.706 60.4952 58.6169 60.3118 58.5787C60.2365 58.5783 60.162 58.5932 60.0926 58.6225C60.0233 58.6518 59.9606 58.6948 59.9085 58.7491C59.8563 58.8033 59.8157 58.8676 59.7891 58.938C59.7625 59.0084 59.7505 59.0835 59.7539 59.1587C59.7973 59.3414 59.8923 59.5078 60.0277 59.6379C60.1631 59.7681 60.3331 59.8566 60.5173 59.8928C60.5933 59.8966 60.6692 59.8835 60.7395 59.8543C60.8098 59.8251 60.8726 59.7805 60.9235 59.7239Z" fill="#03609D"/>
<path d="M62.9668 58.0502C62.862 58.1878 62.7182 58.2908 62.5542 58.3457C62.3901 58.4007 62.2133 58.4052 62.0467 58.3585C61.8489 58.3044 61.6658 58.2065 61.5108 58.0722C61.3487 57.9468 61.2173 57.7861 61.1266 57.6024C61.049 57.4485 61.0192 57.2749 61.041 57.104C61.0628 56.9331 61.1352 56.7726 61.249 56.6431C61.3533 56.5103 61.4946 56.4115 61.6552 56.3592C61.8014 56.3101 61.9604 56.3153 62.103 56.3739L62.0737 56.4106L61.758 56.0901L62.0785 55.6985L62.2694 55.8845C62.3355 55.9481 62.4016 56.0069 62.4701 56.0632L63.7083 57.0787L63.3755 57.4849L63.0329 57.2084L63.0671 57.1692C63.1505 57.2981 63.1844 57.4528 63.1626 57.6048C63.1416 57.769 63.0736 57.9237 62.9668 58.0502ZM62.7466 57.6782C62.7966 57.6214 62.8333 57.5541 62.8541 57.4813C62.8748 57.4085 62.8791 57.332 62.8665 57.2573C62.8188 57.0729 62.7069 56.9115 62.5508 56.8022C62.4146 56.6711 62.2355 56.5937 62.0467 56.5844C61.9717 56.5898 61.8984 56.6104 61.8316 56.645C61.7647 56.6795 61.7056 56.7273 61.6577 56.7855C61.6099 56.8436 61.5744 56.9109 61.5533 56.9831C61.5323 57.0554 61.5261 57.1312 61.5353 57.2059C61.5957 57.3833 61.7044 57.5403 61.8493 57.6592C61.9941 57.7781 62.1693 57.8542 62.3551 57.8789C62.4302 57.8772 62.5039 57.8582 62.5706 57.8234C62.6372 57.7886 62.6949 57.7389 62.7392 57.6782H62.7466Z" fill="#03609D"/>
<path d="M64.6528 55.8454C64.5564 55.9905 64.4206 56.1051 64.2613 56.1757C64.102 56.2421 63.9269 56.2608 63.7572 56.2295C63.5572 56.1864 63.3677 56.1041 63.1997 55.9873C63.0317 55.8706 62.8885 55.7217 62.7784 55.5493C62.6905 55.4015 62.6472 55.2316 62.6536 55.0598C62.6627 54.8833 62.7231 54.7132 62.8273 54.5704C62.9187 54.431 63.0488 54.3213 63.2017 54.2548C63.3412 54.1919 63.499 54.1832 63.6446 54.2303L63.6128 54.2768L62.4529 53.4693L62.7539 53.0361L65.3111 54.8127L65.0125 55.2385L64.643 54.9815L64.6699 54.9399C64.7692 55.0609 64.8197 55.2144 64.8118 55.3706C64.8079 55.5413 64.7524 55.7068 64.6528 55.8454ZM64.4081 55.493C64.4536 55.4321 64.4849 55.3619 64.4998 55.2873C64.5146 55.2128 64.5125 55.1359 64.4937 55.0623C64.4315 54.8826 64.3075 54.7308 64.1438 54.6341C63.9971 54.5142 63.8119 54.4516 63.6226 54.4579C63.5472 54.4666 63.4748 54.492 63.4104 54.5322C63.3461 54.5724 63.2915 54.6264 63.2506 54.6903C63.2058 54.7515 63.1747 54.8217 63.1595 54.896C63.1443 54.9704 63.1453 55.0471 63.1625 55.121C63.2343 55.2948 63.3547 55.4442 63.5092 55.5514C63.6637 55.6586 63.8458 55.719 64.0337 55.7254C64.1085 55.7159 64.1803 55.6901 64.2441 55.65C64.3079 55.6098 64.3622 55.5562 64.4032 55.493H64.4081Z" fill="#03609D"/>
<path d="M66.7598 52.4464C66.6806 52.6009 66.5593 52.7298 66.4099 52.8183C66.2609 52.9018 66.0908 52.9401 65.9205 52.9284C65.7172 52.9089 65.5198 52.8493 65.3396 52.7531C65.1595 52.6569 65.0001 52.5261 64.8707 52.3681C64.7633 52.23 64.6999 52.0629 64.6885 51.8884C64.6772 51.7139 64.7185 51.54 64.807 51.3892C64.8826 51.2408 64.9989 51.1169 65.1423 51.032C65.2745 50.955 65.4302 50.9289 65.5803 50.9586L65.5534 51.0051L64.3079 50.3395L64.5526 49.8721L67.2982 51.3403L67.0535 51.7979L66.6546 51.585L66.679 51.541C66.791 51.6499 66.8589 51.7963 66.8699 51.9521C66.8847 52.1242 66.8462 52.2968 66.7598 52.4464ZM66.4711 52.1234C66.5092 52.0576 66.5322 51.9842 66.5386 51.9085C66.5449 51.8327 66.5344 51.7565 66.5078 51.6853C66.4132 51.5246 66.2755 51.3936 66.1103 51.3071C65.9451 51.2206 65.7589 51.1821 65.573 51.1959C65.4994 51.2132 65.4306 51.2465 65.3714 51.2935C65.3122 51.3404 65.264 51.3999 65.2304 51.4676C65.1922 51.5337 65.1691 51.6075 65.1628 51.6837C65.1564 51.7598 65.167 51.8364 65.1937 51.908C65.2727 52.0798 65.412 52.2165 65.5852 52.2922C65.7458 52.3944 65.9378 52.4352 66.126 52.4072C66.2011 52.3888 66.2711 52.3537 66.3308 52.3045C66.3906 52.2554 66.4385 52.1935 66.4711 52.1234Z" fill="#03609D"/>
<path d="M68.0616 49.7791C68.0079 49.9223 67.9264 50.0536 67.8218 50.1653C67.7172 50.277 67.5917 50.3669 67.4523 50.43C67.3122 50.4815 67.1631 50.5037 67.0141 50.4953C66.8651 50.4869 66.7194 50.448 66.586 50.3811C66.3959 50.3041 66.2278 50.1813 66.0966 50.0238C65.9824 49.8836 65.9103 49.7139 65.8886 49.5344C65.8686 49.3434 65.9007 49.1506 65.9816 48.9764C66.0488 48.8086 66.1626 48.6634 66.3095 48.558C66.4475 48.467 66.6091 48.4185 66.7744 48.4185C66.9648 48.4197 67.1527 48.4623 67.325 48.5433L67.4523 48.5996L66.8234 50.0238L66.5787 49.9112L67.0534 48.8321L67.0803 48.9202C66.937 48.847 66.7737 48.8229 66.6154 48.8516C66.5494 48.8706 66.4889 48.9049 66.4388 48.9516C66.3886 48.9984 66.3502 49.0564 66.3266 49.1208C66.2914 49.1898 66.273 49.2661 66.273 49.3435C66.273 49.4209 66.2914 49.4972 66.3266 49.5662C66.4256 49.7214 66.5725 49.8399 66.7451 49.9039L66.7964 49.9259C66.8782 49.971 66.9684 49.999 67.0613 50.0083C67.1543 50.0176 67.2482 50.0078 67.3373 49.9797C67.4185 49.9443 67.4918 49.8929 67.5527 49.8286C67.6137 49.7643 67.6611 49.6883 67.6921 49.6053C67.7392 49.5006 67.7697 49.3891 67.7826 49.275C67.7971 49.1604 67.7896 49.0442 67.7606 48.9324H68.1497C68.1837 49.0658 68.1928 49.2043 68.1766 49.3411C68.1603 49.492 68.1216 49.6396 68.0616 49.7791Z" fill="#03609D"/>
<path d="M68.5486 48.492L65.639 47.3859L65.8275 46.8965L68.737 48.0026L68.5486 48.492Z" fill="#03609D"/>
<path d="M67.927 45.8418C67.6566 45.7756 67.4052 45.6474 67.1929 45.4674C67.0061 45.3054 66.8716 45.0916 66.8062 44.8532C66.7486 44.595 66.7541 44.3267 66.8223 44.0711C66.8904 43.8155 67.0192 43.5801 67.1978 43.3849C67.374 43.2113 67.5966 43.0923 67.8389 43.0424C68.1134 42.9868 68.3974 42.9994 68.666 43.0791C68.9368 43.147 69.1881 43.2768 69.4001 43.4584C69.5872 43.6215 69.7225 43.8359 69.7892 44.075C69.8606 44.332 69.8606 44.6035 69.7892 44.8605C69.728 45.1208 69.5968 45.3594 69.4099 45.5506C69.2324 45.7229 69.0089 45.8401 68.7663 45.8883C68.4869 45.94 68.199 45.924 67.927 45.8418ZM68.0738 45.2888C68.3381 45.3781 68.6244 45.3781 68.8887 45.2888C69.001 45.2399 69.0998 45.1645 69.1765 45.069C69.2533 44.9735 69.3056 44.8608 69.3292 44.7406C69.3655 44.6249 69.3744 44.5024 69.3553 44.3826C69.3362 44.2629 69.2896 44.1492 69.219 44.0505C69.0276 43.8488 68.7841 43.7041 68.5154 43.6324C68.2467 43.5607 67.9634 43.5648 67.697 43.6443C67.5867 43.6951 67.49 43.7713 67.4147 43.8665C67.3395 43.9618 67.2878 44.0734 67.2638 44.1925C67.2242 44.3078 67.2131 44.4311 67.2314 44.5516C67.2498 44.6722 67.297 44.7866 67.3691 44.885C67.5526 45.0941 67.8006 45.2362 68.0738 45.2888Z" fill="#03609D"/>
<path d="M70.2175 42.8074L68.6539 42.5162L68.3822 42.4722C68.2893 42.4722 68.1987 42.4502 68.1106 42.4453L68.206 41.9436L68.7909 41.9926L68.7738 42.0758C68.6543 42.0307 68.5458 41.9606 68.4556 41.8702C68.3786 41.7941 68.3236 41.6985 68.2966 41.5937C68.2719 41.4882 68.2719 41.3786 68.2966 41.2731C68.304 41.2334 68.3138 41.1942 68.3259 41.1557C68.3354 41.1248 68.3486 41.0953 68.3651 41.0676L68.8227 41.1557C68.7953 41.1955 68.7724 41.2381 68.7542 41.2829C68.7542 41.3196 68.7321 41.3661 68.7199 41.4224C68.6974 41.5274 68.7042 41.6366 68.7395 41.7381C68.7734 41.8276 68.834 41.9045 68.9132 41.9583C69.0011 42.0173 69.1003 42.0573 69.2045 42.0758L70.3252 42.2838L70.2175 42.8074Z" fill="#03609D"/>
<path d="M68.0004 40.7617L67.489 40.6883L67.5722 40.1059L68.0836 40.1793L68.0004 40.7617ZM70.516 41.0921L68.4018 40.7886L68.4776 40.265L70.5919 40.5684L70.516 41.0921Z" fill="#03609D"/>
<path d="M70.8145 38.8824C70.8094 39.0353 70.7739 39.1857 70.71 39.3248C70.6462 39.4638 70.5552 39.5888 70.4426 39.6923C70.3265 39.7864 70.1923 39.8554 70.0482 39.895C69.9042 39.9346 69.7535 39.9439 69.6057 39.9224C69.4046 39.9069 69.2101 39.844 69.038 39.7388C68.8847 39.6407 68.7618 39.5017 68.6832 39.3375C68.6035 39.163 68.5722 38.9703 68.5926 38.7796C68.603 38.5987 68.6649 38.4246 68.7712 38.2779C68.8727 38.1481 69.0095 38.0504 69.1652 37.9965C69.3467 37.938 69.5386 37.9189 69.7281 37.9402L69.8675 37.9525L69.7256 39.5039L69.4466 39.4794L69.5543 38.3024L69.6081 38.3807C69.449 38.3543 69.2856 38.3837 69.1457 38.4639C69.0888 38.502 69.042 38.5533 69.0092 38.6134C68.9764 38.6734 68.9586 38.7405 68.9572 38.8089C68.9456 38.8854 68.9529 38.9635 68.9785 39.0365C69.0041 39.1094 69.0472 39.175 69.104 39.2274C69.2476 39.3442 69.4256 39.4104 69.6106 39.4158H69.6644C69.7566 39.432 69.8511 39.4295 69.9423 39.4085C70.0335 39.3874 70.1196 39.3483 70.1954 39.2935C70.261 39.2341 70.3139 39.1621 70.3509 39.0818C70.3879 39.0015 70.4082 38.9145 70.4108 38.8261C70.4225 38.7117 70.4167 38.5962 70.3936 38.4835C70.3692 38.3715 70.3253 38.2646 70.2639 38.1678L70.631 38.043C70.7066 38.1594 70.7597 38.2888 70.7876 38.4248C70.8205 38.5749 70.8296 38.7294 70.8145 38.8824Z" fill="#03609D"/>
<path d="M70.8879 37.4606L69.2851 37.4312C69.197 37.4312 69.1089 37.4312 69.0184 37.4312C68.9278 37.4312 68.8397 37.4312 68.7516 37.4508V36.9394L69.175 36.9051V36.9541C69.0333 36.8898 68.9152 36.7829 68.8373 36.6482C68.7578 36.5074 68.7188 36.3473 68.7247 36.1857C68.7194 36.0816 68.7363 35.9776 68.7742 35.8806C68.8122 35.7835 68.8704 35.6957 68.945 35.6229C69.1378 35.4846 69.3744 35.4211 69.6106 35.4442L70.9173 35.4687V35.9973L69.635 35.9728C69.504 35.9595 69.3725 35.9924 69.2631 36.0658C69.2232 36.1037 69.1921 36.1498 69.1718 36.2009C69.1515 36.252 69.1426 36.307 69.1456 36.3619C69.1411 36.4336 69.1516 36.5055 69.1765 36.5729C69.2014 36.6403 69.24 36.7018 69.29 36.7534C69.3994 36.8551 69.5445 36.9096 69.6938 36.9051L70.9002 36.9271L70.8879 37.4606Z" fill="#03609D"/>
<path d="M70.9002 33.8708C70.9127 33.9749 70.9038 34.0806 70.8739 34.1812C70.844 34.2818 70.7939 34.3752 70.7265 34.4556C70.5684 34.6036 70.3581 34.6828 70.1416 34.6758L69.1628 34.7223L69.1824 35.131L68.786 35.1481L68.7664 34.7395L68.2207 34.7639L68.0616 34.2427L68.7419 34.2109L68.715 33.6407L69.1139 33.6236L69.1384 34.1938L70.0903 34.1497C70.2 34.1557 70.3081 34.1208 70.3937 34.0518C70.4243 34.0196 70.4472 33.9808 70.4608 33.9384C70.4743 33.8961 70.4782 33.8512 70.472 33.8071C70.4708 33.761 70.4651 33.7151 70.4549 33.6701C70.444 33.6326 70.4309 33.5959 70.4157 33.56L70.8342 33.5404C70.8567 33.5907 70.874 33.6432 70.8856 33.697C70.8953 33.7544 70.9002 33.8125 70.9002 33.8708Z" fill="#03609D"/>
<path d="M70.7484 32.0722C70.773 32.2232 70.7672 32.3775 70.7315 32.5262C70.6958 32.675 70.6308 32.8151 70.5404 32.9385C70.4451 33.0535 70.3269 33.1474 70.1934 33.2144C70.0599 33.2814 69.9139 33.3199 69.7647 33.3275C69.5645 33.3531 69.361 33.3287 69.1725 33.2566C69.0023 33.1925 68.8543 33.0803 68.7467 32.9336C68.634 32.7779 68.5662 32.5942 68.551 32.4026C68.5248 32.2235 68.5512 32.0408 68.6268 31.8764C68.7006 31.7287 68.8164 31.6061 68.9596 31.5241C69.126 31.4312 69.3105 31.3753 69.5004 31.3601L69.6399 31.3454L69.8014 32.8944L69.5224 32.9213L69.4001 31.7492L69.4662 31.8153C69.3054 31.8197 69.1513 31.8803 69.0306 31.9866C68.9828 32.0353 68.9471 32.0945 68.9263 32.1595C68.9054 32.2246 68.9001 32.2935 68.9107 32.361C68.9154 32.4385 68.9385 32.5137 68.9781 32.5805C69.0177 32.6473 69.0726 32.7038 69.1383 32.7451C69.3022 32.8305 69.4893 32.8606 69.6717 32.8308H69.7256C69.9121 32.8235 70.0881 32.7426 70.215 32.6057C70.2665 32.5361 70.3036 32.4571 70.3242 32.373C70.3448 32.289 70.3484 32.2017 70.3349 32.1163C70.3246 32.0009 70.2965 31.8878 70.2517 31.781C70.2059 31.6761 70.1422 31.58 70.0633 31.4971L70.401 31.3038C70.4961 31.4035 70.5723 31.5196 70.6261 31.6464C70.6885 31.7812 70.7298 31.9248 70.7484 32.0722Z" fill="#03609D"/>
<path d="M70.1391 28.3747C70.1889 28.5928 70.207 28.817 70.1929 29.0403C70.1803 29.2334 70.1348 29.4229 70.0584 29.6006L69.6057 29.5272C69.6495 29.4203 69.6838 29.3098 69.7084 29.1969C69.7307 29.0816 69.7406 28.9643 69.7378 28.847C69.735 28.7209 69.7194 28.5955 69.6913 28.4726C69.6694 28.305 69.5959 28.1485 69.4809 28.0247C69.4395 27.9863 69.3892 27.9586 69.3346 27.9441C69.28 27.9296 69.2227 27.9287 69.1676 27.9415C69.1233 27.9492 69.0814 27.9668 69.0449 27.9931C69.0084 28.0194 68.9784 28.0537 68.9572 28.0933C68.9102 28.2156 68.8909 28.3468 68.9009 28.4774V28.9669C68.9173 29.1956 68.8671 29.4242 68.7565 29.6251C68.7035 29.7074 68.6339 29.7778 68.5522 29.8317C68.4704 29.8857 68.3783 29.922 68.2818 29.9383C68.1133 29.9816 67.9351 29.9678 67.7752 29.8992C67.612 29.8273 67.4722 29.7111 67.3715 29.5639C67.2512 29.3885 67.1679 29.1903 67.1268 28.9815C67.0815 28.7876 67.0682 28.5876 67.0876 28.3894C67.1057 28.2172 67.159 28.0506 67.2442 27.8999L67.6774 27.9783C67.6069 28.1143 67.5613 28.2618 67.5428 28.4138C67.5259 28.5776 67.5366 28.743 67.5746 28.9032C67.6012 29.066 67.6762 29.2169 67.7899 29.3364C67.8353 29.38 67.8909 29.4114 67.9517 29.4277C68.0125 29.4439 68.0764 29.4445 68.1374 29.4294C68.1834 29.422 68.2271 29.4042 68.2652 29.3775C68.3034 29.3508 68.335 29.3158 68.3576 29.2752C68.4113 29.1572 68.434 29.0275 68.4237 28.8983V28.4089C68.4062 28.1773 68.4528 27.9453 68.5583 27.7384C68.6092 27.657 68.6767 27.5873 68.7564 27.5337C68.8361 27.4802 68.9262 27.444 69.0208 27.4277C69.1839 27.3877 69.3555 27.4015 69.5102 27.4668C69.6697 27.5369 69.8063 27.6506 69.9042 27.7947C70.02 27.9707 70.0998 28.1678 70.1391 28.3747Z" fill="#03609D"/>
<path d="M69.7036 26.7841L69.1383 26.9432L68.9792 26.373L69.5445 26.2139L69.7036 26.7841Z" fill="#03609D"/>
<path d="M69.4515 25.7833L66.192 25.5116L66.0378 25.081L68.3895 22.7954L68.5754 23.3166L67.9074 23.9406L67.9735 23.6837L68.573 25.3697L68.3576 25.2033L69.268 25.2669L69.4515 25.7833ZM66.6668 25.1054L68.1962 25.1935L68.1105 25.3404L67.6211 24.0018L67.7752 24.041L66.6472 25.0883L66.6668 25.1054Z" fill="#03609D"/>
<path d="M68.1888 22.4014L67.648 22.6339L67.4033 22.0906L67.9441 21.8582L68.1888 22.4014Z" fill="#03609D"/>
<path d="M67.2418 20.2578C67.3439 20.4569 67.4172 20.6695 67.4596 20.8891C67.4923 21.0803 67.4923 21.2755 67.4596 21.4667L67.002 21.5058C67.0187 21.3916 67.0244 21.2761 67.0191 21.1608C67.0131 21.044 66.9943 20.9283 66.9628 20.8157C66.929 20.694 66.883 20.576 66.8258 20.4634C66.7616 20.3071 66.6516 20.174 66.5101 20.0816C66.4605 20.0551 66.405 20.0412 66.3486 20.0412C66.2923 20.0412 66.2368 20.0551 66.1871 20.0816C66.1456 20.0994 66.1088 20.1266 66.0795 20.161C66.0502 20.1954 66.0293 20.236 66.0183 20.2798C66.0055 20.4102 66.0196 20.5418 66.0599 20.6665L66.1896 21.1387C66.2621 21.357 66.2697 21.5916 66.2116 21.8141C66.1798 21.9069 66.1294 21.9921 66.0633 22.0645C65.9972 22.137 65.9169 22.195 65.8274 22.235C65.6773 22.3143 65.5061 22.3443 65.338 22.3207C65.1615 22.2924 64.9968 22.2143 64.8633 22.0955C64.7021 21.9561 64.5721 21.7844 64.4815 21.5915C64.3898 21.4144 64.3277 21.2234 64.298 21.0262C64.2706 20.8525 64.2798 20.6749 64.3249 20.505L64.7654 20.4731C64.7293 20.6229 64.721 20.778 64.7409 20.9307C64.7657 21.0922 64.8169 21.2485 64.8926 21.3932C64.9589 21.5436 65.0678 21.6712 65.2058 21.7603C65.2613 21.7909 65.3236 21.807 65.3869 21.807C65.4503 21.807 65.5126 21.7909 65.568 21.7603C65.6105 21.7408 65.6483 21.7124 65.6787 21.6769C65.7091 21.6414 65.7315 21.5997 65.7442 21.5547C65.7656 21.4277 65.7546 21.2972 65.7124 21.1755L65.5827 20.7105C65.5072 20.4899 65.4954 20.2524 65.5484 20.0253C65.5783 19.9349 65.6268 19.8518 65.6909 19.7814C65.755 19.711 65.8332 19.6548 65.9204 19.6167C66.0704 19.5371 66.242 19.5079 66.4098 19.5335C66.581 19.5631 66.7404 19.6403 66.8699 19.7562C67.0269 19.8962 67.1535 20.0669 67.2418 20.2578Z" fill="#03609D"/>
<path d="M66.427 18.8238L65.9205 19.1272L65.6244 18.6133L66.1334 18.3197L66.427 18.8238Z" fill="#03609D"/>
<path d="M49.2266 42.9004C46.3048 42.8735 44.5576 41.0969 44.5527 38.1629C44.5527 36.5332 44.5356 34.901 44.5527 33.2688C44.5821 31.1888 46.2388 29.3095 48.3041 29.2042C50.3694 29.099 52.5155 29.1822 54.6664 29.1822C52.9045 23.2799 46.0675 17.2773 37.8967 16.7022C27.7732 15.995 20.1066 22.6314 17.9924 29.1284H25.15V32.0502C23.1459 32.0502 21.198 32.0232 19.2502 32.0502C17.7085 32.0795 17.1946 32.6008 17.153 34.1155C17.122 35.339 17.122 36.5625 17.153 37.7861C17.1922 39.3081 17.7966 39.9077 19.3358 39.9444C20.6401 39.9762 21.9493 40.0129 23.2511 39.9297C24.0048 39.8832 25.0937 40.4803 25.3776 39.105C25.3898 39.0365 25.6639 38.9876 25.8181 38.9851C26.5742 38.9851 27.3303 38.9851 28.1011 38.9851V42.9127H17.9581C21.3424 51.3917 29.8361 56.303 39.2891 55.0696C46.9974 54.0664 53.1101 48.1861 54.6297 42.8955C52.8067 42.9029 51.0154 42.9176 49.2266 42.9004ZM25.9086 37.4239H19.6074V34.6563H25.9086V37.4239ZM32.9219 26.9578C35.1462 26.7768 37.3902 26.8281 39.6268 26.8453C39.8715 26.8453 40.2997 27.2613 40.3364 27.528C40.6374 29.6863 40.5322 29.7866 38.3788 29.794C37.0354 29.794 35.687 29.794 34.3509 29.794C33.9863 29.794 33.5679 29.794 33.2767 29.9555C32.9121 30.1708 32.6503 30.5648 32.3444 30.8829C32.7139 31.1276 33.0785 31.5852 33.4553 31.6048C35.1193 31.6904 36.7931 31.5852 38.4571 31.6733C40.1211 31.7614 41.7974 32.033 42.7786 33.631C43.1163 34.1816 43.268 34.8423 43.5127 35.4516L43.1995 35.7452C42.091 35.4418 40.772 36.4157 39.803 34.9573C39.595 34.6465 38.7385 34.7273 38.1757 34.7126C36.4628 34.6538 34.7498 34.7003 33.0564 34.5804C30.7391 34.4165 29.4201 33.0363 29.3638 30.8829C29.3027 28.6243 30.5238 27.1487 32.9219 26.9578ZM39.4066 45.0441C36.3208 45.2031 33.2229 45.115 30.1322 45.0783C29.9663 45.0358 29.8141 44.9514 29.6903 44.8331C29.5664 44.7148 29.4751 44.5667 29.425 44.4029C29.3418 43.3996 29.3908 42.3865 29.3908 41.2462H32.1266L32.0311 41.5521C32.5034 41.7577 32.9684 42.1198 33.4504 42.1443C34.9921 42.2201 36.5411 42.1785 38.0999 42.1688C39.8128 42.1688 40.1701 41.88 40.5983 40.2111C41.2957 40.2111 42.0225 40.2111 42.7468 40.2111C42.9758 40.2248 43.2037 40.2518 43.4295 40.2919C43.7379 42.9078 42.1522 44.8972 39.4066 45.0392V45.0441ZM43.5666 37.2967C43.4589 39.9297 44.0144 39.5969 41.1317 39.6263C40.88 39.6095 40.6293 39.5801 40.3805 39.5382C40.3805 38.9411 40.3805 38.459 40.3805 37.9794C40.4123 35.7624 40.1358 36.1465 42.3381 36.0609C43.3243 36.012 43.5984 36.3423 43.5592 37.2918L43.5666 37.2967Z" fill="#03609D"/>
</svg>
