<svg width="39" height="39" viewBox="0 0 39 39" fill="none" xmlns="http://www.w3.org/2000/svg">
<rect width="39" height="39" rx="19.5" fill="#15507A"/>
<path d="M15 10H13C11.3431 10 10 11.3431 10 13V15C10 16.6569 11.3431 18 13 18H15C16.6569 18 18 16.6569 18 15V13C18 11.3431 16.6569 10 15 10Z" stroke="white" stroke-width="1.5" stroke-linecap="round" stroke-linejoin="round"/>
<path d="M27 10H25C23.3431 10 22 11.3431 22 13V15C22 16.6569 23.3431 18 25 18H27C28.6569 18 30 16.6569 30 15V13C30 11.3431 28.6569 10 27 10Z" stroke="white" stroke-width="1.5" stroke-linecap="round" stroke-linejoin="round"/>
<path d="M27 22H25C23.3431 22 22 23.3431 22 25V27C22 28.6569 23.3431 30 25 30H27C28.6569 30 30 28.6569 30 27V25C30 23.3431 28.6569 22 27 22Z" stroke="white" stroke-width="1.5" stroke-linecap="round" stroke-linejoin="round"/>
<path d="M15 22H13C11.3431 22 10 23.3431 10 25V27C10 28.6569 11.3431 30 13 30H15C16.6569 30 18 28.6569 18 27V25C18 23.3431 16.6569 22 15 22Z" stroke="white" stroke-width="1.5" stroke-linecap="round" stroke-linejoin="round"/>
</svg>
