<svg width="24" height="24" viewBox="0 0 24 24" fill="none" xmlns="http://www.w3.org/2000/svg">
<path d="M13.3001 8.1101L14.6201 10.7501C14.7323 10.9481 14.8844 11.1206 15.0669 11.2566C15.2494 11.3926 15.4582 11.4892 15.6801 11.5401L18.0701 11.9401C19.6101 12.1901 19.9601 13.3001 18.8601 14.4001L17.0001 16.2601C16.8371 16.4429 16.7173 16.6601 16.6498 16.8956C16.5823 17.131 16.5687 17.3787 16.6101 17.6201L17.1401 19.9201C17.5601 21.7401 16.5901 22.4501 14.9901 21.5001L12.7401 20.1701C12.5114 20.0517 12.2576 19.99 12.0001 19.99C11.7426 19.99 11.4888 20.0517 11.2601 20.1701L9.00008 21.5001C7.40008 22.4501 6.43008 21.7401 6.85008 19.9201L7.38008 17.6201C7.42144 17.3787 7.40784 17.131 7.34032 16.8956C7.2728 16.6601 7.15308 16.4429 6.99007 16.2601L5.13008 14.4001C4.03008 13.3001 4.38009 12.1901 5.92009 11.9401L8.31008 11.5401C8.53191 11.4892 8.74071 11.3926 8.9232 11.2566C9.1057 11.1206 9.25788 10.9481 9.37007 10.7501L10.6901 8.1101C11.4101 6.6801 12.5901 6.6801 13.3001 8.1101Z" stroke="black" stroke-width="1.5" stroke-linecap="round" stroke-linejoin="round"/>
<path d="M6 9V2" stroke="black" stroke-width="1.5" stroke-linecap="round" stroke-linejoin="round"/>
<path d="M18 9V2" stroke="black" stroke-width="1.5" stroke-linecap="round" stroke-linejoin="round"/>
<path d="M12 4V2" stroke="black" stroke-width="1.5" stroke-linecap="round" stroke-linejoin="round"/>
</svg>
