<svg width="20" height="22" viewBox="0 0 20 22" fill="none" xmlns="http://www.w3.org/2000/svg">
<path d="M11.2599 2.43211L3.04986 11.1222C2.70282 11.5304 2.47148 12.0242 2.37986 12.5521L1.99986 15.8321C1.95152 16.085 1.96779 16.346 2.04715 16.5909C2.12651 16.8359 2.2664 17.0569 2.45386 17.2334C2.64132 17.4099 2.87029 17.5361 3.11956 17.6006C3.36883 17.665 3.63034 17.6656 3.87986 17.6022L7.08986 17.0421C7.61632 16.9306 8.10119 16.6743 8.48986 16.3021L16.6999 7.61216C18.1199 6.11216 18.7599 4.40211 16.5499 2.31211C14.3499 0.202113 12.6799 0.932108 11.2599 2.43211Z" stroke="black" stroke-width="1.5" stroke-linecap="round" stroke-linejoin="round"/>
<path d="M9.88965 3.8822C10.0999 5.22278 10.7491 6.45558 11.7354 7.38757C12.7217 8.31957 13.9893 8.89797 15.3396 9.0321" stroke="black" stroke-width="1.5" stroke-linecap="round" stroke-linejoin="round"/>
<path d="M1 20.8322H19" stroke="black" stroke-width="1.5" stroke-linecap="round" stroke-linejoin="round"/>
</svg>
