<svg width="24" height="24" viewBox="0 0 24 24" fill="none" xmlns="http://www.w3.org/2000/svg">
<path d="M20.5 11.3V7C20.5 3 19.56 2 15.78 2H8.22C4.44 2 3.5 3 3.5 7V18.3C3.5 20.97 4.96001 21.59 6.73001 19.7C6.9057 19.4966 7.12563 19.3361 7.37296 19.2309C7.62028 19.1257 7.88841 19.0785 8.1568 19.093C8.42519 19.1075 8.6867 19.1832 8.92126 19.3144C9.15583 19.4457 9.35723 19.6289 9.51001 19.85L10.51 21.2" stroke="black" stroke-width="1.5" stroke-linecap="round" stroke-linejoin="round"/>
<path d="M8 7H16" stroke="black" stroke-width="1.5" stroke-linecap="round" stroke-linejoin="round"/>
<path d="M9 11H15" stroke="black" stroke-width="1.5" stroke-linecap="round" stroke-linejoin="round"/>
<path d="M18.2102 14.77L14.6703 18.31C14.5182 18.4755 14.4145 18.6796 14.3702 18.9L14.1802 20.26C14.1578 20.3645 14.162 20.4729 14.1922 20.5754C14.2225 20.6779 14.2779 20.7712 14.3535 20.8468C14.429 20.9223 14.5223 20.9778 14.6248 21.008C14.7273 21.0383 14.8358 21.0424 14.9403 21.02L16.3002 20.82C16.5197 20.7791 16.7238 20.6788 16.8903 20.53L20.4302 16.99C20.6077 16.8643 20.7525 16.698 20.8524 16.5048C20.9523 16.3117 21.0044 16.0974 21.0044 15.88C21.0044 15.6625 20.9523 15.4483 20.8524 15.2551C20.7525 15.062 20.6077 14.8956 20.4302 14.77C20.3046 14.5925 20.1382 14.4477 19.9451 14.3478C19.752 14.2479 19.5377 14.1958 19.3203 14.1958C19.1028 14.1958 18.8885 14.2479 18.6954 14.3478C18.5022 14.4477 18.3359 14.5925 18.2102 14.77Z" stroke="black" stroke-width="1.5" stroke-linecap="round" stroke-linejoin="round"/>
<path d="M17.7002 15.2803C17.8534 15.8073 18.1373 16.287 18.5253 16.6751C18.9134 17.0632 19.3932 17.347 19.9202 17.5003" stroke="black" stroke-width="1.5" stroke-linecap="round" stroke-linejoin="round"/>
</svg>
