<svg width="22" height="22" viewBox="0 0 22 22" fill="none" xmlns="http://www.w3.org/2000/svg">
<path d="M10 19C14.9706 19 19 14.9706 19 10C19 5.02944 14.9706 1 10 1C5.02944 1 1 5.02944 1 10C1 14.9706 5.02944 19 10 19Z" stroke="black" stroke-width="1.5" stroke-linecap="round" stroke-linejoin="round"/>
<path d="M17.9298 19.6899C18.4598 21.2899 19.6598 21.45 20.5998 20.04C21.4598 18.76 20.8898 17.7099 19.3498 17.7099C19.1044 17.6866 18.8571 17.7282 18.6327 17.8303C18.4083 17.9324 18.2145 18.0916 18.0708 18.2919C17.9272 18.4923 17.8385 18.7268 17.8138 18.9721C17.789 19.2174 17.829 19.4649 17.9298 19.6899Z" stroke="black" stroke-width="1.5" stroke-linecap="round" stroke-linejoin="round"/>
</svg>
