<svg width="39" height="39" viewBox="0 0 39 39" fill="none" xmlns="http://www.w3.org/2000/svg">
<rect width="39" height="39" rx="19.5" fill="black"/>
<path d="M27.9101 31.5154L25.4573 29.2258V23.8706C25.4573 23.7799 25.419 23.693 25.3509 23.6289C25.2827 23.5648 25.1903 23.5287 25.0939 23.5287H22.9645C22.9078 23.5288 22.8519 23.5411 22.8011 23.5647C22.7502 23.5882 22.7057 23.6224 22.6711 23.6646L20.3091 26.5431H18.9283L21.977 22.7929C22.0462 22.7082 22.135 22.6396 22.2368 22.5923C22.3385 22.5451 22.4504 22.5204 22.5639 22.5202H25.0985C25.1949 22.5202 25.2873 22.4842 25.3554 22.4201C25.4236 22.356 25.4619 22.2691 25.4619 22.1784V17.7744C25.4617 17.488 25.4365 17.2022 25.3865 16.9197L27.574 15.0558C27.6595 14.9834 27.7279 14.8949 27.7748 14.7962C27.8217 14.6974 27.8462 14.5905 27.8465 14.4823V11.0005C27.8464 10.8918 27.8231 10.7844 27.778 10.6844C27.7329 10.5844 27.667 10.494 27.584 10.4184L23.8975 7.08531C23.8536 7.04562 23.7983 7.01894 23.7384 7.00858C23.6785 6.99821 23.6167 7.00463 23.5607 7.02703C23.5047 7.04942 23.4569 7.08681 23.4232 7.13456C23.3896 7.1823 23.3716 7.23828 23.3715 7.29556V12.5422H14.475V7.29214C14.4752 7.23486 14.4574 7.17881 14.4239 7.13099C14.3903 7.08317 14.3426 7.04571 14.2866 7.02328C14.2305 7.00085 14.1687 6.99444 14.1089 7.00487C14.049 7.01529 13.9937 7.04209 13.9499 7.0819L10.2635 10.415C10.1803 10.4903 10.1141 10.5805 10.0688 10.6804C10.0235 10.7802 10.0001 10.8876 10 10.9962V14.4789C10.0004 14.587 10.0249 14.6939 10.0718 14.7927C10.1188 14.8915 10.1871 14.9799 10.2725 15.0523L12.7926 17.2266V22.4664C12.7928 22.6863 12.884 22.8975 13.0469 23.0553L16.8307 26.7234L16.2411 27.4533C16.2013 27.5038 16.1771 27.5637 16.1712 27.6264C16.1652 27.6891 16.1778 27.7521 16.2075 27.8084C16.2372 27.8648 16.2828 27.9124 16.3394 27.9459C16.396 27.9795 16.4613 27.9977 16.5281 27.9985H18.0861L20.9023 30.5505H18.4495L13.6302 25.9149C13.6094 25.8952 13.5829 25.8818 13.554 25.8762C13.5251 25.8706 13.495 25.8732 13.4677 25.8836C13.4403 25.894 13.4169 25.9118 13.4002 25.9347C13.3835 25.9576 13.3744 25.9846 13.374 26.0123V27.402C13.3745 27.6222 13.4664 27.8335 13.6302 27.9908L17.8036 32H27.6985C27.7582 32.0002 27.8167 31.9836 27.8664 31.9523C27.9161 31.9211 27.9547 31.8766 27.9774 31.8246C28.0001 31.7726 28.0059 31.7155 27.9939 31.6604C27.9819 31.6053 27.9527 31.5548 27.9101 31.5154ZM23.436 24.9799H23.9148V27.7832L22.3704 26.3431L23.436 24.9799ZM21.7963 21.0656C21.6829 21.0657 21.571 21.0903 21.4694 21.1376C21.3678 21.1848 21.2791 21.2535 21.2103 21.3383L19.4951 23.4475L17.4202 21.5075V19.8956H23.9148V21.0656H21.7963ZM14.3351 17.7744C14.3351 17.7317 14.3351 17.6889 14.3351 17.647H18.1951C18.2915 17.647 18.384 17.611 18.4521 17.5469C18.5202 17.4828 18.5585 17.3959 18.5585 17.3052V16.2574H19.1944C19.2044 16.2574 20.1492 16.1856 20.7724 16.7582C21.1685 17.1214 21.3784 17.6872 21.4029 18.4444H14.3351V17.7744ZM23.9148 17.7744V18.4427H22.9473C22.9182 17.265 22.5448 16.3454 21.8344 15.7002C20.7506 14.7173 19.1091 14.8096 19.0418 14.8096H18.5603V14.0157H19.9158C20.4407 14.0154 20.9605 14.1125 21.4456 14.3012C21.9306 14.49 22.3714 14.7668 22.7427 15.1159C23.1141 15.4649 23.4087 15.8793 23.6098 16.3355C23.8109 16.7916 23.9145 17.2806 23.9148 17.7744ZM24.5452 13.9917C24.6416 13.9917 24.734 13.9557 24.8022 13.8916C24.8703 13.8275 24.9086 13.7405 24.9086 13.6499V10.0185L26.2958 11.2739V14.1797L24.855 15.4104C24.5669 14.8804 24.1847 14.4006 23.7249 13.9917H24.5452ZM11.5444 11.2748L12.9316 10.0185V13.6473C12.9316 13.738 12.9699 13.8249 13.038 13.889C13.1062 13.9531 13.1986 13.9892 13.295 13.9892H17.0196V16.1916H13.9073L11.5453 14.1789L11.5444 11.2748ZM14.3351 22.2237V19.8956H15.8795V21.769C15.8796 21.8777 15.9025 21.9853 15.9469 22.0856C15.9914 22.1859 16.0564 22.277 16.1384 22.3536L18.5531 24.6107L17.7809 25.5602L14.3351 22.2237ZM23.129 30.5462L20.3128 27.9943H20.7225C20.8355 27.9941 20.947 27.969 21.0478 27.9209C21.1486 27.8728 21.236 27.8031 21.303 27.7174L21.4501 27.5285L23.9148 29.83V29.86H23.9466L24.6815 30.5437L23.129 30.5462Z" fill="white"/>
</svg>
