<svg width="45" height="47" viewBox="0 0 45 47" fill="none" xmlns="http://www.w3.org/2000/svg">
<path fill-rule="evenodd" clip-rule="evenodd" d="M22 4.5C17.8579 4.5 14.5 7.85786 14.5 12C14.5 16.1421 17.8579 19.5 22 19.5C26.1421 19.5 29.5 16.1421 29.5 12C29.5 7.85786 26.1421 4.5 22 4.5ZM10 12C10 5.37258 15.3726 0 22 0C28.6274 0 34 5.37258 34 12C34 18.6274 28.6274 24 22 24C15.3726 24 10 18.6274 10 12Z" fill="#A7D0D2"/>
<path fill-rule="evenodd" clip-rule="evenodd" d="M21.8707 31.4444C11.2353 31.4444 6.60376 36.1375 4.51307 39.8223L4.51307 39.8223C4.12099 40.5134 4.22071 41.0606 4.55463 41.5216C4.9466 42.0628 5.75393 42.5556 6.82219 42.5556H21.8707C23.0467 42.5556 24 43.5505 24 44.7778C24 46.0051 23.0467 47 21.8707 47H6.82219C4.54177 47 2.42535 45.9524 1.15729 44.2016C-0.168825 42.3705 -0.46543 39.8739 0.84867 37.5578C3.70719 32.5197 9.73288 27 21.8707 27C23.0467 27 24 27.9949 24 29.2222C24 30.4495 23.0467 31.4444 21.8707 31.4444Z" fill="#A7D0D2"/>
<path fill-rule="evenodd" clip-rule="evenodd" d="M44.119 29.4261C45.0704 30.1537 45.2847 31.5601 44.5975 32.5675L35.3893 46.0674C35.005 46.6308 34.3963 46.9746 33.7402 46.9986C33.0842 47.0227 32.4544 46.7244 32.0342 46.1904L28.4926 41.6905C27.7413 40.7358 27.8631 39.3171 28.7647 38.5216C29.6662 37.7261 31.0062 37.855 31.7575 38.8097L33.5467 41.083L41.1522 29.9328C41.8393 28.9254 43.1676 28.6986 44.119 29.4261Z" fill="#A7D0D2"/>
</svg>
