<svg width="243" height="74" viewBox="0 0 243 74" fill="none" xmlns="http://www.w3.org/2000/svg">
<path d="M46.6272 37.6576L40.8559 48.6172C40.8033 48.718 40.7238 48.8022 40.6263 48.8606C40.5282 48.9206 40.4154 48.9524 40.3003 48.9524C40.2516 48.9591 40.2021 48.9591 40.1534 48.9524C40.0185 48.919 39.8979 48.8434 39.809 48.7366C39.7227 48.6266 39.6758 48.4908 39.6759 48.3509L39.5795 40.4125H37.0267C36.9193 40.4122 36.8136 40.3854 36.719 40.3344C36.6245 40.2804 36.5454 40.2029 36.4895 40.1094C36.436 40.0159 36.409 39.9095 36.4114 39.8018C36.4101 39.6942 36.437 39.5881 36.4895 39.4942L42.1093 28.778C42.1734 28.653 42.2778 28.5533 42.4056 28.4949C42.5334 28.4366 42.6771 28.4231 42.8135 28.4565C42.95 28.49 43.0711 28.5684 43.1575 28.6792C43.2438 28.7901 43.2902 28.9267 43.2893 29.0672V36.7394H46.0854C46.1937 36.7381 46.3004 36.7655 46.3947 36.8187C46.4891 36.8719 46.5677 36.9491 46.6226 37.0424C46.6783 37.137 46.7077 37.2448 46.7077 37.3546C46.7077 37.4644 46.6783 37.5722 46.6226 37.6668L46.6272 37.6576ZM33.4913 34.1407H21.9532C21.8211 34.1398 21.6915 34.105 21.5767 34.0396C21.4634 33.9717 21.37 33.8751 21.3058 33.7596C21.2385 33.6456 21.2035 33.5155 21.2048 33.3831C21.2095 33.2518 21.2474 33.1238 21.315 33.0112L25.2544 26.4547C25.3196 26.342 25.415 26.2497 25.5299 26.1884C25.6436 26.1251 25.7716 26.0919 25.9018 26.092L33.4867 26.2206L33.4913 34.1407ZM23.0414 44.7008L18.8265 44.508H18.5327C18.3494 44.5073 18.1666 44.4904 17.9863 44.4574H17.8485C17.22 44.3069 16.6604 43.9493 16.2598 43.4421C15.8592 42.9349 15.6409 42.3076 15.6401 41.6613C15.6403 41.2834 15.715 40.9092 15.86 40.5602C16.0049 40.2112 16.2173 39.8942 16.4849 39.6273C16.7512 39.3593 17.0682 39.147 17.4174 39.0027C17.7666 38.8585 18.1411 38.7852 18.5189 38.7871C19.2662 38.791 19.9825 39.0858 20.5161 39.609L23.574 41.8404V41.8633C23.8472 41.9741 24.0807 42.1645 24.2443 42.4097C24.4065 42.6548 24.4928 42.9423 24.4922 43.2361C24.4944 43.4285 24.4581 43.6194 24.3856 43.7975C24.3131 43.9757 24.2057 44.1376 24.0698 44.2738C23.7986 44.5434 23.4329 44.6965 23.0506 44.7008H23.0414ZM53.2985 51.9138H49.6254V25.6145C49.6255 25.4741 49.5974 25.3352 49.5427 25.2059C49.4876 25.0757 49.4081 24.9573 49.3086 24.8569C49.2088 24.7577 49.0902 24.6797 48.9596 24.6274C48.8304 24.5723 48.6914 24.5442 48.551 24.5447H46.1451V22.3087C46.1476 22.2237 46.1326 22.139 46.1011 22.06C46.0695 21.9811 46.0219 21.9094 45.9615 21.8496C45.902 21.7887 45.8304 21.7408 45.7513 21.7092C45.6722 21.6776 45.5874 21.6628 45.5023 21.6659C45.4173 21.6634 45.3326 21.6784 45.2536 21.71C45.1747 21.7416 45.103 21.7891 45.0432 21.8496C44.9838 21.9102 44.937 21.982 44.9054 22.0608C44.8739 22.1396 44.8583 22.2239 44.8595 22.3087V24.5447H38.4316V22.3087C38.4342 22.2237 38.4192 22.139 38.3876 22.06C38.356 21.9811 38.3085 21.9094 38.248 21.8496C38.1885 21.7887 38.1169 21.7408 38.0378 21.7092C37.9588 21.6776 37.8739 21.6628 37.7888 21.6659C37.7039 21.6639 37.6194 21.6792 37.5405 21.7107C37.4615 21.7423 37.3899 21.7895 37.3297 21.8496C37.2703 21.9102 37.2235 21.982 37.1919 22.0608C37.1604 22.1396 37.1448 22.2239 37.146 22.3087V24.5447H34.5565C34.4954 24.5402 34.434 24.5402 34.3729 24.5447H25.5069C25.3235 24.5487 25.1438 24.5976 24.9837 24.6873C24.8235 24.777 24.6879 24.9046 24.5887 25.0589L19.3775 33.1306L18.4317 32.0654C18.3804 32.0107 18.3197 31.9656 18.2526 31.9322C18.1829 31.9019 18.1082 31.8848 18.0322 31.8817H14.327C14.2041 31.8856 14.0855 31.9273 13.9872 32.0011C13.8909 32.0777 13.823 32.1844 13.7944 32.3041L13.473 33.6815C13.4443 33.8186 13.469 33.9614 13.5418 34.081L14.2122 35.1737C14.2609 35.2518 14.3285 35.3162 14.4088 35.3612C14.489 35.4061 14.5793 35.4301 14.6713 35.4308H17.8394C17.7995 35.4879 17.7533 35.5403 17.7016 35.5869L14.0285 39.0167C13.9167 39.1214 13.8276 39.248 13.7668 39.3886C13.7028 39.533 13.6715 39.6898 13.675 39.8477V56.4593C13.6744 56.606 13.7028 56.7513 13.7587 56.8869C13.8145 57.0226 13.8967 57.1458 14.0004 57.2495C14.1042 57.3533 14.2274 57.4354 14.363 57.4913C14.4987 57.5471 14.644 57.5756 14.7907 57.575H21.0304C21.1771 57.5756 21.3224 57.5471 21.458 57.4913C21.5937 57.4354 21.7169 57.3533 21.8206 57.2495C21.9244 57.1458 22.0065 57.0226 22.0624 56.8869C22.1182 56.7513 22.1467 56.606 22.1461 56.4593V54.3013C22.1473 54.005 22.2658 53.7212 22.4758 53.5121C22.6858 53.303 22.97 53.1856 23.2664 53.1856H34.4417C34.5029 53.1902 34.5643 53.1902 34.6254 53.1856H53.2985C53.3834 53.1876 53.4679 53.1724 53.5468 53.1408C53.6257 53.1092 53.6974 53.062 53.7576 53.002C53.817 52.9414 53.8638 52.8696 53.8953 52.7908C53.9269 52.712 53.9425 52.6277 53.9412 52.5428C53.9397 52.4612 53.9242 52.3804 53.8953 52.3041C53.8636 52.2267 53.8168 52.1565 53.7576 52.0975C53.6346 51.9783 53.4697 51.9124 53.2985 51.9138Z" fill="#69B544"/>
<path d="M42.0267 37.35V31.6338L38.0735 39.1728H40.2085C40.2932 39.1699 40.3775 39.1843 40.4565 39.2151C40.5354 39.2459 40.6073 39.2924 40.6676 39.3519C40.7283 39.4118 40.7762 39.4833 40.8086 39.5622C40.8409 39.6411 40.857 39.7257 40.8559 39.811L40.9247 45.8441L45.057 38.002H42.6603C42.4952 37.9975 42.3385 37.9282 42.2241 37.8092C42.1622 37.7497 42.1129 37.6784 42.0789 37.5996C42.045 37.5207 42.0273 37.4359 42.0267 37.35Z" fill="#69B544"/>
<path d="M32.8669 7.3822C33.326 6.22518 33.5189 6.10581 34.8595 6.09203C35.6814 6.09203 36.6272 6.3216 37.2792 5.98643C37.9312 5.65126 38.1607 4.72381 38.6566 4.11316C39.3902 3.12374 40.3455 2.32009 41.4458 1.76671C42.5462 1.21334 43.761 0.925652 44.9927 0.926751H48.0873C48.0873 0.0819409 48.6428 0.00847915 49.2856 0.00847915C51.4068 -0.0374345 51.1589 0.0406185 51.1681 1.87716C51.1681 3.19948 51.1681 3.19947 52.5179 3.19947H56.1084C57.0863 3.19947 57.7062 3.74126 57.7658 4.63198C57.798 4.83911 57.7839 5.05079 57.7245 5.25181C57.6684 5.45533 57.5698 5.64465 57.4353 5.80737C57.2995 5.96927 57.1324 6.10203 56.944 6.19764C56.7564 6.29067 56.5516 6.34382 56.3425 6.35374C55.3049 6.44557 54.258 6.40884 53.2158 6.42261H51.2186V12.1389H56.1084C56.3698 12.1402 56.6272 12.2034 56.8596 12.3232C57.0919 12.443 57.2926 12.6161 57.4453 12.8284C57.598 13.0406 57.6983 13.2859 57.7381 13.5443C57.7778 13.8027 57.7559 14.0669 57.674 14.3152C57.5991 14.5236 57.4818 14.7143 57.3297 14.8753C57.1737 15.0321 56.9862 15.1542 56.7797 15.2333C56.5731 15.3124 56.3522 15.3469 56.1313 15.3344C54.7539 15.3344 53.3765 15.3344 51.9991 15.3344H51.2002V17.3317C51.1726 18.3556 51.0946 18.4198 50.0845 18.4244H49.0193C48.4775 18.4566 48.101 18.3005 48.101 17.6026C47.1277 17.6026 46.1772 17.6026 45.2268 17.6026C41.8706 17.5245 39.3591 16.0323 37.7705 13.0571C37.7077 12.8712 37.587 12.7103 37.4261 12.598C37.2645 12.4919 37.0725 12.4419 36.8797 12.4557C36.1497 12.4878 35.4197 12.4557 34.6851 12.4557C33.5418 12.4557 33.2021 12.2031 32.7888 10.9589C31.1222 11.1288 29.3958 11.2252 27.7108 11.5098C24.7525 12.0152 21.8961 12.9983 19.2535 14.4208C14.4615 16.9493 10.4572 20.7471 7.67869 25.3987C5.86106 28.4129 4.60272 31.7306 3.96427 35.1921C3.41946 38.0677 3.3219 41.0103 3.67502 43.9157C4.20831 48.5957 5.87233 53.0756 8.5235 56.9689C10.843 60.3956 13.8567 63.2965 17.3694 65.4835C20.8821 67.6705 24.8152 69.0948 28.9137 69.664C33.5824 70.3167 38.3396 69.8356 42.7831 68.2612C47.2265 66.6868 51.2254 64.0655 54.4417 60.619C58.3178 56.5099 60.9232 51.3677 61.944 45.8119C62.4402 42.9732 62.5498 40.0804 62.27 37.2123C62.1089 35.0556 61.7523 32.9179 61.2048 30.8257C60.3556 27.5334 58.8484 24.4472 56.7741 21.7532C56.5521 21.5402 56.3605 21.2977 56.2048 21.0323C56.1124 20.7206 56.0629 20.3978 56.0579 20.0727C56.4022 20.1049 56.8568 20.0084 57.068 20.1967C57.9276 20.995 58.7286 21.8543 59.4646 22.7679C62.2751 26.3354 64.2645 30.4788 65.2911 34.9028C65.8762 37.3049 66.093 39.7819 65.9339 42.249C65.7842 44.9125 65.3219 47.5493 64.5565 50.1048C62.8647 55.6593 59.7398 60.6703 55.4962 64.6334C51.2526 68.5965 46.04 71.372 40.3829 72.6805C36.8603 73.4766 33.2316 73.6937 29.6392 73.3233C25.2358 72.8909 20.9654 71.5722 17.0849 69.4465C13.2044 67.3208 9.79397 64.4321 7.05885 60.9542C4.48379 57.7471 2.56348 54.0656 1.40689 50.1186C0.83965 48.1664 0.438769 46.1697 0.208541 44.1498C-0.00872399 42.0589 -0.0563225 39.9537 0.0662096 37.8551C0.262819 34.8412 0.90653 31.8733 1.97622 29.0488C4.5444 22.1321 9.35265 16.2733 15.6355 12.4052C19.1055 10.2517 22.952 8.77477 26.9716 8.05254C28.9137 7.68064 30.888 7.598 32.8669 7.3822Z" fill="#69B544"/>
<path d="M91.756 29.8414H82.7477V35.1765H90.374C91.4484 35.1765 91.9947 35.7137 91.9947 36.7973V37.7156C91.9947 38.8175 91.4484 39.3685 90.374 39.3685H82.7477V44.419H91.756C92.8349 44.419 93.3721 44.9561 93.3721 46.0397V47.3207C93.3721 48.3813 92.8349 48.9231 91.756 48.9369H79.0379C77.936 48.9369 77.385 48.3951 77.385 47.3207V26.9442C77.385 25.8668 77.936 25.3265 79.0379 25.3235H91.756C92.8365 25.3235 93.3752 25.8637 93.3721 26.9442V28.2252C93.3721 29.3057 92.8334 29.8444 91.756 29.8414Z" fill="white"/>
<path d="M98.8404 48.9414C97.7615 48.9414 97.2243 48.3996 97.2243 47.3252V26.1682C97.2243 25.0908 97.763 24.5505 98.8404 24.5475H100.801C101.903 24.5475 102.454 25.0877 102.454 26.1682V47.3252C102.454 48.3858 101.903 48.9276 100.801 48.9414H98.8404Z" fill="white"/>
<path d="M110.718 38.2482H119.419C119.345 37.7703 119.172 37.3135 118.909 36.9075C118.643 36.5055 118.296 36.1631 117.89 35.902C117.07 35.4104 116.128 35.159 115.172 35.1765C114.189 35.1624 113.222 35.4198 112.376 35.9203C111.955 36.1744 111.591 36.5121 111.306 36.9125C111.021 37.3129 110.821 37.7675 110.718 38.2482ZM115.576 49.3133C112.564 49.3133 110.146 48.4578 108.322 46.7468C107.434 45.9366 106.731 44.9455 106.26 43.8404C105.791 42.7333 105.563 41.5393 105.59 40.3372C105.57 39.1435 105.793 37.9582 106.245 36.8533C106.698 35.7483 107.37 34.7468 108.221 33.9093C109.974 32.1309 112.27 31.2417 115.108 31.2417C117.454 31.1711 119.743 31.9708 121.535 33.4869C123.265 34.9806 124.183 37.0667 124.29 39.7449C124.317 39.9424 124.292 40.1433 124.217 40.328C124.141 40.508 124.021 40.6659 123.868 40.7872C123.51 41.0414 123.076 41.1675 122.637 41.1453H110.562C110.549 41.699 110.672 42.2475 110.922 42.7418C111.172 43.2361 111.541 43.6609 111.995 43.9782C113.113 44.8201 114.49 45.2441 115.888 45.1765C117.24 45.1717 118.567 44.8106 119.736 44.1297C120.654 43.6155 121.421 43.7302 122.031 44.4695L122.403 44.9286C123.144 45.8285 123.041 46.6274 122.096 47.3253C120.195 48.6774 117.907 49.3752 115.576 49.3133Z" fill="white"/>
<path d="M136.191 49.3133C133.219 49.3133 130.812 48.4577 128.969 46.7467C128.077 45.9436 127.368 44.9571 126.893 43.8547C126.418 42.7524 126.186 41.5603 126.214 40.3601C126.189 39.1421 126.421 37.9324 126.896 36.8104C127.37 35.6884 128.077 34.6794 128.969 33.8496C130.806 32.0987 133.218 31.2218 136.205 31.2187C138.139 31.1988 140.042 31.7 141.715 32.6696C142.633 33.2573 142.738 34.0194 142.018 34.9653L141.48 35.6402C140.916 36.3381 140.154 36.4712 139.185 36.0396C138.355 35.6322 137.442 35.4232 136.517 35.429C135.178 35.3835 133.874 35.8686 132.89 36.7788C132.418 37.2237 132.046 37.7636 131.797 38.3629C131.41 39.2605 131.306 40.2545 131.497 41.213C131.688 42.1716 132.166 43.0494 132.867 43.7302C133.851 44.6404 135.155 45.1255 136.494 45.08C137.418 45.0849 138.331 44.8776 139.162 44.474C140.149 44.0148 140.911 44.1572 141.457 44.8734L141.981 45.5667C142.14 45.7384 142.255 45.9465 142.316 46.1728C142.379 46.3988 142.386 46.6364 142.339 46.8661C142.271 47.1147 142.149 47.3452 141.981 47.541C141.813 47.7346 141.607 47.891 141.375 48.0001C139.79 48.8806 138.004 49.3332 136.191 49.3133Z" fill="white"/>
<path d="M152.922 49.3132C152.181 49.319 151.443 49.2153 150.732 49.0056C150.041 48.7974 149.39 48.4729 148.808 48.046C148.163 47.5562 147.667 46.8964 147.376 46.1406C147.006 45.195 146.828 44.1851 146.852 43.17V35.4657H145.131C144.548 35.4657 144.254 35.1856 144.254 34.6255V32.4262C144.254 31.8661 144.548 31.586 145.131 31.586H147.256L147.83 28.0782C147.844 27.9178 147.889 27.7617 147.964 27.6191C148.041 27.4815 148.142 27.3587 148.262 27.2563C148.386 27.1564 148.527 27.0815 148.68 27.036C148.829 26.9922 148.984 26.9766 149.139 26.99H150.792C150.955 26.9629 151.122 26.9755 151.278 27.0268C151.435 27.0798 151.578 27.1677 151.696 27.2839C151.812 27.4024 151.9 27.5451 151.953 27.7017C152.002 27.8591 152.015 28.0255 151.99 28.1884V31.5952H155.902C156.016 31.5805 156.132 31.5915 156.242 31.6273C156.352 31.6634 156.453 31.7247 156.536 31.8064C156.616 31.8902 156.677 31.9905 156.715 32.1002C156.751 32.2095 156.761 32.3262 156.742 32.44V34.6347C156.761 34.7485 156.751 34.8651 156.715 34.9744C156.677 35.0841 156.616 35.1844 156.536 35.2683C156.453 35.35 156.352 35.4113 156.242 35.4473C156.132 35.4831 156.016 35.4941 155.902 35.4795H151.981V43.3353C151.981 44.5336 152.44 45.1259 153.395 45.1259C153.592 45.1321 153.787 45.0961 153.969 45.0203C154.145 44.9435 154.301 44.8291 154.428 44.6851C154.703 44.3695 154.846 43.9601 154.828 43.5419C154.831 43.3394 154.82 43.1369 154.795 42.9358C154.731 42.3252 154.965 42.0176 155.503 42.0176H157.564C157.773 41.9993 157.981 42.0577 158.15 42.1819C158.319 42.3062 158.437 42.4876 158.482 42.6925C158.607 43.1195 158.675 43.561 158.684 44.0056C158.684 45.7871 158.138 47.114 157.05 48.0001C155.866 48.8994 154.408 49.3632 152.922 49.3132Z" fill="white"/>
<path d="M162.775 48.9414C161.701 48.9414 161.154 48.3996 161.154 47.3252V33.2206C161.154 32.137 161.701 31.5998 162.775 31.5998H164.612C165.686 31.5998 166.232 32.137 166.232 33.2206V35.3785C166.375 34.1453 166.999 33.0184 167.968 32.2426C168.75 31.612 169.718 31.2555 170.723 31.2279L171.297 31.26C171.949 31.306 172.275 31.7651 172.275 32.6374V35.0066C172.294 35.1894 172.274 35.3742 172.215 35.5484C172.16 35.7176 172.071 35.8739 171.953 36.0075C171.838 36.1124 171.7 36.188 171.549 36.2279C171.398 36.263 171.241 36.263 171.09 36.2279C170.691 36.182 170.401 36.159 170.241 36.159C169.705 36.1473 169.174 36.2588 168.689 36.485C168.204 36.7142 167.779 37.0539 167.449 37.4767C166.727 38.3552 166.367 39.8061 166.37 41.8294V47.2977C166.37 48.372 165.828 48.9138 164.749 48.9138L162.775 48.9414Z" fill="white"/>
<path d="M179.681 43.7303C180.106 44.1771 180.618 44.5319 181.186 44.7725C182.344 45.2256 183.629 45.2256 184.786 44.7725C185.355 44.5331 185.868 44.1782 186.292 43.7303C186.736 43.2831 187.084 42.7507 187.316 42.1651C187.548 41.5796 187.659 40.9531 187.642 40.3235C187.659 39.6884 187.548 39.0564 187.316 38.4649C187.084 37.8734 186.736 37.3344 186.292 36.88C185.87 36.4306 185.356 36.0768 184.786 35.8423C183.932 35.47 182.985 35.3664 182.07 35.5451C181.156 35.7239 180.318 36.1767 179.667 36.8432C179.226 37.2995 178.881 37.8397 178.652 38.4318C178.429 39.018 178.32 39.6413 178.331 40.2684C178.317 40.8976 178.429 41.5233 178.661 42.1084C178.893 42.6935 179.239 43.2263 179.681 43.6752V43.7303ZM189.837 46.7009C187.977 48.4347 185.529 49.3988 182.986 49.3988C180.444 49.3988 177.996 48.4347 176.136 46.7009C175.25 45.884 174.544 44.8925 174.06 43.789C173.577 42.6855 173.328 41.4938 173.328 40.289C173.328 39.0843 173.577 37.8926 174.06 36.7891C174.544 35.6856 175.25 34.6941 176.136 33.8772C177.996 32.1434 180.444 31.1793 182.986 31.1793C185.529 31.1793 187.977 32.1434 189.837 33.8772C190.722 34.6941 191.429 35.6856 191.912 36.7891C192.395 37.8926 192.645 39.0843 192.645 40.289C192.645 41.4938 192.395 42.6855 191.912 43.789C191.429 44.8925 190.722 45.884 189.837 46.7009Z" fill="white"/>
<path d="M201.568 48.9414C201.159 48.9583 200.756 48.8382 200.424 48.6004C200.091 48.3625 199.847 48.0204 199.731 47.6283L192.504 27.2013C192.4 26.99 192.35 26.7561 192.358 26.5206C192.366 26.2851 192.432 26.0552 192.55 25.8514C192.697 25.6686 192.888 25.5264 193.106 25.4382C193.321 25.351 193.554 25.3178 193.785 25.3418H196.081C196.502 25.3084 196.921 25.4299 197.259 25.6835C197.598 25.9371 197.832 26.3054 197.917 26.7192L202.679 41.9717L207.399 26.7192C207.484 26.3074 207.716 25.9404 208.051 25.6862C208.388 25.4337 208.805 25.31 209.226 25.3372H211.485C211.72 25.3091 211.959 25.3423 212.178 25.4336C212.4 25.5212 212.596 25.6634 212.748 25.8469C212.868 26.0487 212.934 26.2779 212.94 26.5126C212.949 26.7488 212.9 26.9834 212.798 27.1967L205.544 47.642C205.439 48.0407 205.198 48.3902 204.862 48.63C204.527 48.8698 204.118 48.9848 203.707 48.9552L201.568 48.9414Z" fill="white"/>
<path d="M216.558 29.4419C216.432 29.4578 216.304 29.4403 216.186 29.3914C216.067 29.3454 215.962 29.2676 215.883 29.1664C215.83 29.0485 215.808 28.9189 215.819 28.7899C215.832 28.6597 215.878 28.5349 215.952 28.4272L218.009 24.5475C218.098 24.3567 218.242 24.1968 218.422 24.0884C218.601 23.9789 218.81 23.9275 219.019 23.9414H222.362C222.72 23.9414 222.954 24.0425 223.055 24.2445C223.156 24.4465 223.083 24.7036 222.835 24.9837L219.529 28.9782C219.407 29.1336 219.249 29.2579 219.07 29.3409C218.889 29.4238 218.69 29.4601 218.491 29.4465L216.558 29.4419ZM217.1 48.9414C216.021 48.9414 215.479 48.3996 215.479 47.3252V33.2206C215.479 32.137 216.02 31.5968 217.1 31.5998H219.056C220.158 31.5998 220.709 32.1401 220.709 33.2206V47.3252C220.709 48.3859 220.158 48.9276 219.056 48.9414H217.1Z" fill="white"/>
<path d="M233.395 45.1077C233.997 45.1295 234.596 45.0165 235.149 44.7771C235.7 44.5372 236.192 44.1799 236.59 43.7303C237.389 42.748 237.825 41.5206 237.825 40.2546C237.825 38.9886 237.389 37.7613 236.59 36.779C236.19 36.3254 235.695 35.9665 235.139 35.7282C234.583 35.49 233.981 35.3784 233.377 35.4015C232.778 35.3765 232.183 35.4898 231.636 35.7327C231.088 35.9756 230.605 36.3415 230.222 36.8019C229.469 37.8014 229.061 39.019 229.061 40.2707C229.061 41.5224 229.469 42.74 230.222 43.7395C230.612 44.1979 231.102 44.5608 231.655 44.8001C232.206 45.042 232.807 45.1505 233.409 45.1169L233.395 45.1077ZM232.197 49.295C231.074 49.3235 229.959 49.1075 228.928 48.662C227.897 48.2164 226.976 47.5519 226.228 46.7147C224.704 44.9096 223.868 42.6236 223.868 40.2615C223.868 37.8994 224.704 35.6134 226.228 33.8083C226.973 32.9665 227.894 32.2978 228.925 31.8489C229.956 31.4 231.072 31.1818 232.197 31.2096C234.694 31.2096 236.558 32.1539 237.789 34.0425V33.2023C237.789 32.1187 238.32 31.5785 239.382 31.5815H241.379C242.463 31.5815 243.003 32.1218 243 33.2023V47.3069C243 48.3676 242.458 48.9093 241.379 48.9231H239.382C238.321 48.9231 237.789 48.3813 237.789 47.3069V46.5081C236.568 48.3783 234.703 49.3134 232.197 49.3134V49.295Z" fill="white"/>
<path d="M182.931 42.6191C183.391 42.6504 183.849 42.5429 184.246 42.3104C184.644 42.0779 184.962 41.7313 185.16 41.3155C185.358 40.8998 185.426 40.4341 185.356 39.979C185.286 39.5239 185.081 39.1004 184.767 38.7636C184.453 38.4267 184.045 38.1921 183.596 38.0901C183.147 37.9881 182.677 38.0235 182.249 38.1917C181.82 38.3599 181.452 38.6532 181.192 39.0333C180.932 39.4135 180.793 39.863 180.792 40.3234C180.772 40.9114 180.986 41.4832 181.387 41.9135C181.788 42.3438 182.343 42.5976 182.931 42.6191Z" fill="#69B544"/>
<path d="M233.478 42.6192C234.659 42.6192 235.617 41.5934 235.617 40.3281C235.617 39.0627 234.659 38.037 233.478 38.037C232.296 38.037 231.338 39.0627 231.338 40.3281C231.338 41.5934 232.296 42.6192 233.478 42.6192Z" fill="#69B544"/>
</svg>
