<svg width="172" height="35" viewBox="0 0 172 35" fill="none" xmlns="http://www.w3.org/2000/svg">
<path d="M26.24 1.13729C22.2567 0.755987 18.2483 0.709698 14.2572 0.998912C9.3534 1.29297 5.33174 3.53299 2.67658 7.77087C-0.307234 12.5277 -0.60994 17.7601 0.851695 23.0143C2.58144 29.1938 6.84959 32.7527 13.1675 33.7041C15.3297 34.0327 17.5827 33.9592 19.7967 34.0717V33.9808C21.2281 33.9808 22.6638 34.0198 24.0952 33.9808C29.2066 33.8122 33.6088 32.0911 36.7958 27.9267C39.7277 24.0608 40.3548 19.5721 39.8229 14.9061C38.9667 7.42059 33.6996 1.95027 26.24 1.13729ZM32.7785 23.4726C30.7806 26.7808 27.6628 28.1862 23.9395 28.2813C20.9427 28.3592 17.9329 28.3505 14.9448 28.1602C10.4907 27.8835 7.35121 25.2759 6.20958 20.9861C5.37645 18.128 5.5692 15.0684 6.75446 12.3374C8.42366 8.59249 11.5113 6.86707 15.4507 6.59464C16.9297 6.49085 18.4216 6.59464 19.9092 6.59464V6.49085C21.8465 6.58167 23.8011 6.53842 25.7211 6.79788C27.9214 7.11573 29.9518 8.16155 31.4881 9.76841C33.0244 11.3753 33.9781 13.4505 34.1969 15.6628C34.4953 18.4131 34.2358 21.0596 32.7785 23.4726Z" fill="white"/>
<path d="M66.8629 0V21.5916C66.8629 21.5224 66.8629 21.4575 66.8629 21.3926V22.6899C66.8629 22.6467 66.8629 22.5991 66.8629 22.5516V22.7375C66.8367 23.6438 66.6014 24.5318 66.1753 25.3321C65.7359 26.1941 65.0713 26.921 64.2521 27.4357C63.4328 27.9504 62.4895 28.2336 61.5223 28.2554H61.2844C59.3698 28.3766 57.4488 28.3549 55.5374 28.1905C52.2162 27.8273 50.2011 25.2586 50.3481 21.8943C50.5081 18.2575 52.8389 15.9958 56.4714 15.9656H58.6595C58.7331 15.9656 60.0606 15.9656 61.2844 16.0434V10.3223C61.0552 10.3223 60.8261 10.3223 60.5925 10.3223C58.7028 10.3612 56.8087 10.3223 54.919 10.3223C51.1697 10.3698 48.2854 12.052 46.4346 15.252C44.1643 19.1699 44.0864 23.3602 45.6821 27.5203C47.2778 31.6803 50.7676 33.9376 55.2433 33.9809C56.7049 33.9809 58.1666 33.9463 59.6239 33.9809C60.2483 34.0035 60.8736 33.989 61.4963 33.9376C63.4094 33.7772 65.2531 33.1458 66.8629 32.0998V33.2111C66.8629 33.449 66.8629 33.6911 66.8931 33.9376H72.4586V0H66.8629Z" fill="white"/>
<path d="M115.127 17.5482C114.011 13.5568 111.512 10.9103 107.235 10.4692C105.042 10.24 102.811 10.3698 100.597 10.3352C98.1719 10.2764 95.7955 11.0214 93.838 12.4541C93.6532 12.5663 93.4627 12.6688 93.2672 12.7611V10.3784H87.6455V20.1428C87.6455 24.4672 87.6455 28.7916 87.6455 33.1159C87.6455 33.7862 87.8228 34.0111 88.5104 33.9808C89.8336 33.9289 91.1569 33.9808 92.4845 33.9808C92.7396 33.9808 92.9947 33.9462 93.3061 33.9246V32.9516C93.3061 29.0597 93.3061 25.1677 93.3061 21.2758C93.2905 20.8993 93.3417 20.5231 93.4575 20.1645C94.2748 18.0023 95.8056 16.5017 98.0975 16.2336C100.325 15.9943 102.571 15.9625 104.805 16.1385C107.36 16.3201 108.991 17.8942 109.691 20.3331C109.932 21.2461 110.053 22.1867 110.05 23.131C110.093 26.4305 110.05 29.73 110.05 33.0294V33.9332H115.724C115.724 33.7213 115.767 33.5657 115.767 33.4057C115.767 29.6218 115.823 25.8337 115.737 22.0499C115.723 20.5297 115.518 19.0172 115.127 17.5482Z" fill="white"/>
<path d="M121.03 33.9203H126.604V0.947021H121.03V33.9203Z" fill="white"/>
<path d="M77.237 11.0876V33.1418C77.237 33.2759 77.1894 33.4445 77.237 33.5397C77.3494 33.7083 77.5267 33.9505 77.6694 33.9721C79.3689 33.9981 81.064 33.9721 82.8067 33.9721V10.3914H77.2716C77.2586 10.6638 77.237 10.8757 77.237 11.0876Z" fill="white"/>
<path d="M77.2592 5.66057C77.2839 5.751 77.3315 5.83354 77.3974 5.90021C77.4633 5.96687 77.5453 6.0154 77.6354 6.04111C79.3652 6.06705 81.0949 6.04111 82.8463 6.04111V0.419434H77.2246C77.2419 2.21405 77.2333 3.93514 77.2592 5.66057Z" fill="white"/>
<path d="M171.697 33.3051C165.793 22.7041 159.888 12.1001 153.983 1.4933C153.893 1.3209 153.758 1.17668 153.591 1.07662C153.425 0.976569 153.234 0.924595 153.04 0.926469C152.176 0.844335 151.307 0.844335 150.443 0.926469C150.249 0.924101 150.058 0.975869 149.891 1.07598C149.725 1.17609 149.589 1.32059 149.5 1.4933C143.604 12.103 137.699 22.707 131.785 33.3051C131.677 33.4999 131.599 33.7119 131.461 34.0191C133.503 34.0191 135.42 34.0191 137.337 34.0191C137.548 34.0399 137.76 33.9916 137.941 33.8816C138.122 33.7715 138.262 33.6057 138.341 33.409C139.297 31.622 140.305 29.8652 141.266 28.0782C141.343 27.881 141.481 27.7137 141.66 27.6008C141.839 27.4879 142.05 27.4353 142.261 27.4508H151.728C154.887 27.4508 158.044 27.4508 161.2 27.4508C161.411 27.4353 161.622 27.4879 161.801 27.6008C161.98 27.7137 162.118 27.881 162.195 28.0782C163.156 29.8652 164.164 31.622 165.12 33.409C165.198 33.6061 165.339 33.7724 165.52 33.8825C165.701 33.9926 165.913 34.0406 166.124 34.0191C168.041 33.9931 169.958 34.0191 172 34.0191C171.888 33.7119 171.806 33.4999 171.697 33.3051ZM151.75 21.7781H144.771L151.75 9.14338L158.729 21.7781H151.75Z" fill="white"/>
</svg>
