<svg width="145" height="145" viewBox="0 0 145 145" fill="none" xmlns="http://www.w3.org/2000/svg">
<rect width="145" height="145" rx="10" fill="black"/>
<path d="M106.45 55.4H96.75V69.95H82.2V79.65H96.75V94.2H106.45V79.65H121V69.95H106.45V55.4ZM33.7 55.4C33.7 66.458 42.042 74.8 53.1 74.8C64.158 74.8 72.5 66.458 72.5 55.4C72.5 44.342 64.158 36 53.1 36C42.042 36 33.7 44.342 33.7 55.4ZM62.8 55.4C62.8 61.1133 58.8133 65.1 53.1 65.1C47.3867 65.1 43.4 61.1133 43.4 55.4C43.4 49.6867 47.3867 45.7 53.1 45.7C58.8133 45.7 62.8 49.6867 62.8 55.4ZM33.7 103.9C33.7 95.8781 40.2281 89.35 48.25 89.35H57.95C65.9719 89.35 72.5 95.8781 72.5 103.9V108.75H82.2V103.9C82.2 90.5285 71.3214 79.65 57.95 79.65H48.25C34.8785 79.65 24 90.5285 24 103.9V108.75H33.7V103.9Z" fill="white"/>
</svg>
