<svg width="22" height="22" viewBox="0 0 22 22" fill="none" xmlns="http://www.w3.org/2000/svg">
<path d="M14.6907 3.09096L7.96429 9.81741C7.67475 10.1389 7.47778 10.5329 7.39428 10.9574L7.03326 13.5225C6.98526 13.7218 6.98929 13.93 7.04485 14.1273C7.10042 14.3246 7.20563 14.5044 7.35056 14.6493C7.49549 14.7943 7.67527 14.8996 7.87255 14.9551C8.06984 15.0107 8.27809 15.0146 8.47736 14.9666L11.0615 14.6056C11.4802 14.5216 11.868 14.3245 12.1826 14.0356L18.9089 7.30926C19.2461 7.07053 19.5212 6.75437 19.711 6.38739C19.9008 6.02041 20 5.61322 20 5.20005C20 4.78688 19.9008 4.37981 19.711 4.01283C19.5212 3.64585 19.2461 3.32969 18.9089 3.09096C18.6702 2.75374 18.3541 2.47872 17.9872 2.28889C17.6202 2.09906 17.213 2 16.7998 2C16.3867 2 15.9795 2.09906 15.6125 2.28889C15.2455 2.47872 14.9295 2.75374 14.6907 3.09096Z" stroke="white" stroke-width="1.85" stroke-linecap="round" stroke-linejoin="round"/>
<path d="M13.7217 4.05957C14.0064 5.06421 14.5435 5.9792 15.2819 6.71756C16.0202 7.45593 16.9352 7.99303 17.9399 8.27775" stroke="white" stroke-width="1.85" stroke-linecap="round" stroke-linejoin="round"/>
<path d="M10 1H8C3 1 1 3 1 8V14C1 19 3 21 8 21H14C19 21 21 19 21 14V12" stroke="white" stroke-width="1.5" stroke-linecap="round" stroke-linejoin="round"/>
</svg>
