<svg width="24" height="24" viewBox="0 0 24 24" fill="none" xmlns="http://www.w3.org/2000/svg">
<path d="M13.3375 20.2262L11.0154 14.0495C10.8059 13.5726 10.4233 13.1934 9.94457 12.9884L3.77883 10.6558C3.56046 10.5858 3.36885 10.4505 3.22975 10.2682C3.09065 10.0858 3.01085 9.86526 3.00103 9.63612C2.99121 9.40698 3.05178 9.18031 3.17477 8.98674C3.29776 8.79316 3.47732 8.64195 3.68891 8.55353L18.4823 3.06763C18.8208 2.97732 19.1771 2.97747 19.5155 3.068C19.8539 3.15852 20.1626 3.33632 20.4108 3.58357C20.6591 3.83082 20.838 4.13888 20.9299 4.47699C21.0218 4.8151 21.0234 5.17142 20.9345 5.51033L15.4496 20.3162C15.3589 20.5268 15.2063 20.7049 15.0121 20.8268C14.818 20.9487 14.5914 21.0087 14.3624 20.999C14.1334 20.9892 13.9128 20.9101 13.7297 20.772C13.5467 20.634 13.4099 20.4437 13.3375 20.2262V20.2262Z" stroke="#44475C" stroke-width="2" stroke-linejoin="round"/>
<path d="M14.7488 9.25439L10.5851 13.4189" stroke="#44475C" stroke-width="2" stroke-linejoin="round"/>
</svg>
