<svg width="20" height="6" viewBox="0 0 20 6" fill="none" xmlns="http://www.w3.org/2000/svg">
<path d="M3 1C2.46957 1 1.96089 1.21074 1.58582 1.58582C1.21074 1.96089 1 2.46957 1 3C1 3.53043 1.21074 4.03911 1.58582 4.41418C1.96089 4.78926 2.46957 5 3 5C3.53043 5 4.03911 4.78926 4.41418 4.41418C4.78926 4.03911 5 3.53043 5 3C5 2.46957 4.78926 1.96089 4.41418 1.58582C4.03911 1.21074 3.53043 1 3 1Z" stroke="#03609D" stroke-width="1.5"/>
<path d="M17 1C16.4696 1 15.9609 1.21074 15.5858 1.58582C15.2107 1.96089 15 2.46957 15 3C15 3.53043 15.2107 4.03911 15.5858 4.41418C15.9609 4.78926 16.4696 5 17 5C17.5304 5 18.0391 4.78926 18.4142 4.41418C18.7893 4.03911 19 3.53043 19 3C19 2.46957 18.7893 1.96089 18.4142 1.58582C18.0391 1.21074 17.5304 1 17 1Z" stroke="#03609D" stroke-width="1.5"/>
<path d="M10 1C9.46957 1 8.96089 1.21074 8.58582 1.58582C8.21074 1.96089 8 2.46957 8 3C8 3.53043 8.21074 4.03911 8.58582 4.41418C8.96089 4.78926 9.46957 5 10 5C10.5304 5 11.0391 4.78926 11.4142 4.41418C11.7893 4.03911 12 3.53043 12 3C12 2.46957 11.7893 1.96089 11.4142 1.58582C11.0391 1.21074 10.5304 1 10 1Z" stroke="#03609D" stroke-width="1.5"/>
</svg>
