<svg width="22" height="22" viewBox="0 0 22 22" fill="none" xmlns="http://www.w3.org/2000/svg">
<path d="M14 1H8C4.13401 1 1 4.13401 1 8V14C1 17.866 4.13401 21 8 21H14C17.866 21 21 17.866 21 14V8C21 4.13401 17.866 1 14 1Z" stroke="#03609D" stroke-width="1.5" stroke-linecap="round" stroke-linejoin="round"/>
<path d="M8 9C9.10457 9 10 8.10457 10 7C10 5.89543 9.10457 5 8 5C6.89543 5 6 5.89543 6 7C6 8.10457 6.89543 9 8 9Z" stroke="#03609D" stroke-width="1.5" stroke-linecap="round" stroke-linejoin="round"/>
<path d="M1.66992 17.9999L6.58992 14.7C6.98683 14.4372 7.45769 14.3089 7.93304 14.3341C8.40838 14.3593 8.86304 14.5367 9.22992 14.84L9.56992 15.1199C9.96801 15.4448 10.4661 15.6223 10.9799 15.6223C11.4938 15.6223 11.9918 15.4448 12.3899 15.1199L16.5499 11.5499C16.948 11.225 17.4461 11.0476 17.9599 11.0476C18.4738 11.0476 18.9718 11.225 19.3699 11.5499L20.9999 12.95" stroke="#03609D" stroke-width="1.5" stroke-linecap="round" stroke-linejoin="round"/>
</svg>
