<svg width="24" height="24" viewBox="0 0 24 24" fill="none" xmlns="http://www.w3.org/2000/svg">
<path d="M20.5 11.3V7C20.5 3 19.56 2 15.78 2H8.22C4.44 2 3.5 3 3.5 7V18.3C3.5 20.97 4.96001 21.59 6.73001 19.7C6.9057 19.4966 7.12563 19.3361 7.37296 19.2309C7.62028 19.1257 7.88841 19.0785 8.1568 19.093C8.42519 19.1075 8.6867 19.1832 8.92126 19.3144C9.15583 19.4457 9.35723 19.6289 9.51001 19.85L10.51 21.2" stroke="#03609D" stroke-width="1.5" stroke-linecap="round" stroke-linejoin="round"/>
<path d="M8 7H16" stroke="#03609D" stroke-width="1.5" stroke-linecap="round" stroke-linejoin="round"/>
<path d="M9 11H15" stroke="#03609D" stroke-width="1.5" stroke-linecap="round" stroke-linejoin="round"/>
<path d="M18.21 14.77L14.67 18.31C14.518 18.4755 14.4142 18.6796 14.37 18.9L14.18 20.26C14.1576 20.3645 14.1617 20.4729 14.192 20.5754C14.2222 20.6779 14.2777 20.7712 14.3532 20.8468C14.4288 20.9223 14.5221 20.9778 14.6246 21.008C14.7271 21.0383 14.8355 21.0424 14.94 21.02L16.3 20.82C16.5195 20.7791 16.7236 20.6788 16.89 20.53L20.43 16.99C20.6075 16.8643 20.7522 16.698 20.8522 16.5048C20.9521 16.3117 21.0042 16.0974 21.0042 15.88C21.0042 15.6625 20.9521 15.4483 20.8522 15.2551C20.7522 15.062 20.6075 14.8956 20.43 14.77C20.3044 14.5925 20.138 14.4477 19.9449 14.3478C19.7517 14.2479 19.5375 14.1958 19.32 14.1958C19.1026 14.1958 18.8883 14.2479 18.6951 14.3478C18.502 14.4477 18.3356 14.5925 18.21 14.77Z" stroke="#03609D" stroke-width="1.5" stroke-linecap="round" stroke-linejoin="round"/>
<path d="M17.7 15.28C17.8532 15.807 18.137 16.2868 18.5251 16.6749C18.9132 17.063 19.393 17.3468 19.92 17.5" stroke="#03609D" stroke-width="1.5" stroke-linecap="round" stroke-linejoin="round"/>
</svg>
