<svg width="211" height="70" viewBox="0 0 211 70" fill="none" xmlns="http://www.w3.org/2000/svg">
<path d="M8.2859 32.2739C7.15735 32.2794 6.03751 32.0761 4.98286 31.6744C4.00042 31.3077 3.10297 30.7448 2.34523 30.0199C1.59928 29.3051 1.00587 28.4466 0.600797 27.4962C0.185427 26.4894 -0.0186149 25.4079 0.00133357 24.319C-0.0174251 23.2302 0.186572 22.149 0.600797 21.1419C1.00956 20.1905 1.60708 19.3319 2.35722 18.6181C3.11857 17.8979 4.01503 17.3356 4.99485 16.9636C6.05403 16.5632 7.17755 16.36 8.30988 16.3641C9.54368 16.3482 10.7677 16.5848 11.9066 17.0595C12.9624 17.5024 13.8929 18.1983 14.6162 19.0857L12.3323 21.1898C11.8542 20.6356 11.2663 20.1865 10.6058 19.871C9.94632 19.5674 9.22769 19.4138 8.50171 19.4214C7.82798 19.4151 7.15904 19.5351 6.52948 19.7751C5.94532 19.9983 5.41439 20.3413 4.97087 20.7822C4.52844 21.2245 4.18158 21.7529 3.95179 22.3348C3.70521 22.971 3.5831 23.6487 3.59211 24.331C3.5831 25.0133 3.70521 25.691 3.95179 26.3272C4.18162 26.9108 4.52842 27.4412 4.97087 27.8858C5.41439 28.3266 5.94532 28.6697 6.52948 28.8929C7.15943 29.1309 7.82836 29.2488 8.50171 29.2406C9.22769 29.2481 9.94632 29.0946 10.6058 28.791C11.2809 28.4667 11.8779 28.0005 12.3562 27.4242L14.6402 29.5283C13.9141 30.4158 12.9846 31.115 11.9306 31.5665C10.7782 32.0533 9.53679 32.2942 8.2859 32.2739Z" fill="#03609D"/>
<path d="M18.2789 18.5702C17.7161 18.5938 17.166 18.3983 16.7443 18.0247C16.5531 17.8537 16.4007 17.6438 16.2974 17.4091C16.194 17.1744 16.142 16.9203 16.1449 16.6639C16.142 16.4074 16.194 16.1533 16.2974 15.9186C16.4007 15.6839 16.5531 15.4741 16.7443 15.3031C17.1675 14.9322 17.7165 14.737 18.2789 14.7576C18.8367 14.7335 19.3835 14.9172 19.8136 15.2731C20.0068 15.4346 20.161 15.6376 20.2648 15.867C20.3686 16.0964 20.4193 16.3462 20.413 16.5979C20.419 16.8628 20.3686 17.1258 20.2653 17.3697C20.1619 17.6136 20.008 17.8327 19.8136 18.0127C19.6071 18.202 19.3652 18.3488 19.1018 18.4444C18.8385 18.5401 18.5588 18.5828 18.2789 18.5702ZM16.6004 32.0101V20.2187H20.0234V32.0101H16.6004Z" fill="#03609D"/>
<path d="M28.1461 32.184C27.2379 32.1925 26.3405 31.9872 25.5264 31.5845C24.7579 31.2102 24.1282 30.6014 23.728 29.8461C23.2704 28.9153 23.052 27.8851 23.0926 26.8487V20.1887H26.5095V26.3452C26.4359 27.1158 26.6494 27.8864 27.109 28.5092C27.3355 28.7447 27.6103 28.9283 27.9146 29.0473C28.2188 29.1663 28.5453 29.2179 28.8714 29.1986C29.3607 29.2079 29.844 29.0902 30.2742 28.8569C30.6982 28.6147 31.0357 28.2457 31.2393 27.8019C31.4942 27.2377 31.6153 26.6222 31.593 26.0035V20.1767H35.0099V31.9681H31.8088V28.725L32.4082 29.6662C32.0422 30.4559 31.4301 31.1058 30.6638 31.5185C29.8954 31.9524 29.0285 32.1815 28.1461 32.184Z" fill="#03609D"/>
<path d="M43.2945 32.184C42.2465 32.1985 41.2131 31.9381 40.2972 31.4286C39.4104 30.9315 38.6782 30.1993 38.1811 29.3125C37.6446 28.3324 37.3759 27.2284 37.4018 26.1114C37.3704 24.9805 37.6393 23.8615 38.1811 22.8683C38.6787 21.985 39.4111 21.2568 40.2972 20.7642C41.2149 20.2599 42.2474 20.0018 43.2945 20.0149C44.2073 19.9948 45.1086 20.2227 45.9021 20.6743C46.6758 21.1402 47.2822 21.839 47.6346 22.6705C48.0742 23.7541 48.2785 24.9188 48.234 26.0874C48.2708 27.2535 48.0667 28.4147 47.6346 29.4984C47.2972 30.3331 46.7003 31.0371 45.9321 31.5066C45.1301 31.9661 44.2187 32.2001 43.2945 32.184ZM43.8939 29.3785C44.4239 29.385 44.9458 29.2483 45.4046 28.9828C45.8656 28.7174 46.2418 28.3266 46.4896 27.8558C46.7722 27.3187 46.9125 26.7181 46.8972 26.1114C46.9146 25.5025 46.7742 24.8995 46.4896 24.361C46.2383 23.8943 45.8628 23.5063 45.4046 23.24C44.9458 22.9745 44.4239 22.8378 43.8939 22.8443C43.3562 22.8361 42.8261 22.9728 42.3593 23.24C41.9011 23.5063 41.5256 23.8943 41.2743 24.361C40.9897 24.8995 40.8493 25.5025 40.8667 26.1114C40.8514 26.7181 40.9917 27.3187 41.2743 27.8558C41.5269 28.329 41.9096 28.7201 42.3773 28.9828C42.837 29.2459 43.3583 29.3824 43.8879 29.3785H43.8939ZM46.9812 32.0101V29.6123L47.0471 26.1054L46.8313 22.6165V15.7587H50.2482V32.0221L46.9812 32.0101Z" fill="#03609D"/>
<path d="M57.0401 32.1839C56.2259 32.2058 55.4171 32.0461 54.6723 31.7164C54.0585 31.4386 53.5351 30.9941 53.1616 30.4335C52.8133 29.8987 52.6298 29.2733 52.6341 28.6351C52.6212 27.9843 52.8005 27.3442 53.1496 26.7948C53.5508 26.2216 54.1208 25.7878 54.7802 25.5539C55.7179 25.2285 56.7075 25.0781 57.6996 25.1103H60.8347V27.0645H58.0712C57.4908 27.0044 56.9072 27.144 56.4167 27.4602C56.273 27.5813 56.1581 27.7329 56.0803 27.904C56.0025 28.0751 55.9639 28.2614 55.9671 28.4493C55.9585 28.6516 56.0012 28.8529 56.0914 29.0342C56.1815 29.2156 56.3161 29.3711 56.4826 29.4864C56.9 29.7646 57.3966 29.8993 57.8974 29.87C58.436 29.8788 58.9667 29.7399 59.432 29.4684C59.8869 29.1926 60.2338 28.7695 60.4151 28.2695L60.9426 29.852C60.7196 30.5783 60.2346 31.1957 59.5819 31.5845C58.8037 32.0087 57.9258 32.2158 57.0401 32.1839ZM60.6369 32.0101V29.7082L60.4151 29.2046V25.0863C60.4329 24.7696 60.3827 24.4528 60.2679 24.1571C60.1532 23.8614 59.9765 23.5936 59.7497 23.3718C59.1631 22.927 58.4334 22.7137 57.6996 22.7724C57.0704 22.7713 56.4451 22.8704 55.8472 23.0661C55.2883 23.2406 54.7647 23.5125 54.3006 23.8694L53.1017 21.4716C53.8106 20.9901 54.5975 20.6352 55.4276 20.4225C56.3272 20.1712 57.257 20.0441 58.1911 20.0448C59.6982 19.9492 61.1889 20.4028 62.3874 21.3217C63.3825 22.1669 63.88 23.4917 63.88 25.2841V32.0161L60.6369 32.0101Z" fill="#03609D"/>
<path d="M72.0807 32.184C71.0327 32.1985 69.9992 31.9381 69.0833 31.4286C68.1953 30.9333 67.4626 30.2006 66.9672 29.3125C66.4281 28.3335 66.1592 27.2287 66.1879 26.1114C66.1498 24.9813 66.4147 23.8615 66.9553 22.8683C67.4511 21.9837 68.1839 21.255 69.0714 20.7642C69.9885 20.2586 71.0215 20.0004 72.0687 20.0149C72.9815 19.9954 73.8825 20.2232 74.6763 20.6743C75.4468 21.144 76.0522 21.8416 76.4088 22.6705C76.8482 23.7542 77.0525 24.9188 77.0082 26.0874C77.0449 27.2535 76.8409 28.4147 76.4088 29.4984C76.073 30.3322 75.4783 31.0361 74.7123 31.5066C73.912 31.965 73.0028 32.199 72.0807 32.184ZM72.6801 29.3785C73.2118 29.3834 73.7353 29.2469 74.1968 28.9828C74.6566 28.7158 75.0324 28.3254 75.2818 27.8558C75.5623 27.3181 75.7005 26.7176 75.6834 26.1114C75.7026 25.5031 75.5643 24.9001 75.2818 24.361C75.0287 23.8956 74.6536 23.508 74.1968 23.24C73.7353 22.9759 73.2118 22.8393 72.6801 22.8443C72.1423 22.8361 71.6123 22.9728 71.1455 23.24C70.6886 23.508 70.3135 23.8956 70.0605 24.361C69.778 24.9001 69.6396 25.5031 69.6588 26.1114C69.6417 26.7176 69.78 27.3181 70.0605 27.8558C70.3115 28.3262 70.6895 28.7167 71.1515 28.9828C71.613 29.2469 72.1364 29.3834 72.6681 29.3785H72.6801ZM75.7733 32.0101V29.6123L75.8393 26.1054L75.6175 22.6165V15.7587H79.0404V32.0221L75.7733 32.0101Z" fill="#03609D"/>
<path d="M88.0383 32.1839C86.8116 32.2092 85.5967 31.9399 84.4955 31.3987C83.5257 30.911 82.7102 30.164 82.1396 29.2406C81.5783 28.2944 81.2899 27.2114 81.3064 26.1114C81.286 25.0087 81.5701 23.9218 82.1276 22.9702C82.6699 22.0638 83.4465 21.3204 84.3756 20.8181C85.3678 20.2907 86.4772 20.0226 87.6007 20.0388C88.6866 20.0237 89.7594 20.277 90.7239 20.7762C91.6405 21.2567 92.4031 21.986 92.9239 22.8803C93.4903 23.8782 93.7723 25.0124 93.7392 26.1593C93.7472 26.3091 93.7472 26.4592 93.7392 26.6089C93.7392 26.7768 93.7392 26.9327 93.6973 27.0765H84.1059V25.0863H91.8989L90.586 25.6858C90.5992 25.1287 90.4692 24.5776 90.2084 24.0852C89.9703 23.6423 89.6132 23.2748 89.1773 23.0242C88.71 22.7595 88.1795 22.6269 87.6427 22.6405C87.104 22.6276 86.5718 22.7601 86.1021 23.0242C85.6583 23.2739 85.2961 23.6465 85.059 24.0972C84.7991 24.6026 84.6712 25.1656 84.6873 25.7337V26.2553C84.6755 26.8505 84.8224 27.4381 85.1129 27.9577C85.3931 28.4401 85.8105 28.8282 86.3119 29.0727C86.8854 29.3407 87.5133 29.472 88.1462 29.4564C88.7104 29.4657 89.2714 29.3702 89.8007 29.1746C90.2861 28.9764 90.728 28.6852 91.1016 28.3174L92.9 30.2896C92.3424 30.9162 91.6438 31.4011 90.8618 31.7044C89.9599 32.043 89.0015 32.2058 88.0383 32.1839Z" fill="#03609D"/>
<path d="M99.9856 32.184C99.0052 32.1874 98.0283 32.0666 97.0782 31.8243C96.2994 31.6449 95.5558 31.3369 94.8782 30.9131L96.0172 28.4613C96.6153 28.8229 97.261 29.0993 97.9355 29.2826C98.6445 29.4894 99.3789 29.5963 100.118 29.6003C100.692 29.642 101.268 29.5433 101.796 29.3125C101.944 29.2419 102.069 29.1305 102.156 28.9914C102.243 28.8523 102.289 28.6913 102.288 28.5272C102.291 28.3965 102.257 28.2674 102.189 28.1558C102.121 28.0441 102.022 27.9545 101.904 27.8978C101.582 27.7409 101.239 27.6337 100.885 27.5801C100.459 27.5081 99.9976 27.4362 99.4941 27.3643C98.9818 27.2898 98.4737 27.1898 97.9714 27.0645C97.4776 26.9533 97.0042 26.7651 96.5687 26.507C96.1465 26.2645 95.7936 25.9178 95.5436 25.5C95.2706 24.9968 95.1381 24.4294 95.16 23.8574C95.1479 23.1459 95.376 22.4511 95.8074 21.8852C96.2973 21.2721 96.9464 20.8055 97.6837 20.5364C98.6222 20.1849 99.6192 20.016 100.621 20.0388C101.447 20.0422 102.271 20.1306 103.079 20.3026C103.81 20.4427 104.512 20.7019 105.159 21.0699L104.02 23.5037C103.487 23.1839 102.906 22.9512 102.3 22.8144C101.748 22.6924 101.186 22.6301 100.621 22.6285C100.049 22.5904 99.476 22.6955 98.9545 22.9342C98.8023 23.0048 98.6724 23.116 98.5794 23.2556C98.4863 23.3952 98.4336 23.5579 98.427 23.7255C98.4224 23.8596 98.456 23.9923 98.524 24.108C98.5919 24.2236 98.6913 24.3176 98.8107 24.3789C99.1302 24.5484 99.4739 24.6677 99.8298 24.7326C100.255 24.8225 100.723 24.8945 101.227 24.9604C101.74 25.0296 102.248 25.1297 102.749 25.2602C103.236 25.3821 103.704 25.5696 104.14 25.8177C104.557 26.0568 104.907 26.3969 105.159 26.8068C105.443 27.3015 105.581 27.8672 105.555 28.4373C105.563 29.141 105.33 29.8265 104.895 30.3796C104.396 30.9854 103.741 31.4435 103.001 31.7044C102.034 32.0497 101.012 32.2123 99.9856 32.184Z" fill="#03609D"/>
<path d="M1.87165 62.7325V39.0538H7.35074V62.7385L1.87165 62.7325Z" fill="#03609D"/>
<path d="M12.596 62.7326V44.5269H17.6375V49.5684L16.6904 48.0457C17.3231 46.8484 18.3032 45.8705 19.5018 45.2403C20.7845 44.5697 22.2149 44.2316 23.6621 44.2571C25.0031 44.234 26.3304 44.5299 27.5346 45.1204C28.681 45.7028 29.6207 46.6236 30.2262 47.758C30.9319 49.1697 31.2701 50.7367 31.2093 52.3139V62.7326H25.9281V53.1412C25.9281 51.6725 25.6043 50.5934 24.9629 49.8921C24.6104 49.5331 24.1852 49.2538 23.7157 49.0728C23.2463 48.8919 22.7436 48.8135 22.2414 48.843C21.458 48.8297 20.6835 49.0109 19.9874 49.3705C19.3124 49.7277 18.7687 50.2904 18.4348 50.9771C18.032 51.8452 17.8409 52.7964 17.8773 53.7526V62.7445L12.596 62.7326Z" fill="#03609D"/>
<path d="M33.811 48.5912V44.5269H46.4357V48.5912H33.811ZM43.4024 62.9783C41.2563 62.9783 39.5898 62.4328 38.3909 61.3418C37.192 60.2507 36.5925 58.6142 36.5925 56.4502V40.4745H41.8738V56.4382C41.8483 56.7628 41.8882 57.0892 41.9912 57.3981C42.0942 57.707 42.2581 57.9921 42.4732 58.2366C42.6936 58.4457 42.9549 58.607 43.2407 58.7101C43.5265 58.8133 43.8306 58.8562 44.1337 58.836C44.8985 58.8586 45.6485 58.622 46.2618 58.1646L47.6825 61.8813C47.0955 62.2892 46.4365 62.5822 45.7403 62.7445C44.9837 62.9349 44.2066 63.0315 43.4264 63.0323L43.4024 62.9783Z" fill="#03609D"/>
<path d="M59.1623 63.0323C57.2716 63.0815 55.3973 62.67 53.7012 61.8333C52.2001 61.085 50.9393 59.9302 50.0624 58.5003C49.1959 57.0524 48.7496 55.3919 48.7736 53.7046C48.7419 51.9999 49.1817 50.3196 50.0444 48.849C50.8788 47.4477 52.0786 46.2997 53.5153 45.528C55.0455 44.7133 56.7576 44.3008 58.4909 44.329C60.158 44.3087 61.8047 44.6977 63.2866 45.462C64.7033 46.2029 65.8816 47.3292 66.6855 48.7111C67.5561 50.252 67.9893 52.0015 67.9384 53.7706C67.9384 53.9744 67.9384 54.2082 67.9384 54.4659C67.9384 54.7237 67.8904 54.9695 67.8664 55.1913H53.0657V52.1101H65.055L63.0288 53.0272C63.0429 52.1663 62.8365 51.3161 62.4293 50.5575C62.0603 49.8727 61.5082 49.3041 60.8347 48.9149C60.1052 48.5 59.2759 48.2927 58.4369 48.3155C57.5985 48.2984 56.7708 48.5053 56.0391 48.9149C55.3561 49.3038 54.7986 49.88 54.4325 50.5754C54.0238 51.3508 53.8176 52.2169 53.833 53.0932V53.9085C53.8152 54.8249 54.0429 55.7293 54.4924 56.5281C54.9272 57.2771 55.5766 57.8786 56.3568 58.2546C57.2386 58.6708 58.2053 58.876 59.1802 58.854C60.052 58.8707 60.9189 58.7201 61.7339 58.4104C62.487 58.1104 63.172 57.6619 63.7481 57.0916L66.5596 60.1369C65.6973 61.1022 64.6189 61.8499 63.4124 62.3189C62.0525 62.8194 60.6111 63.0613 59.1623 63.0323Z" fill="#03609D"/>
<path d="M71.4752 62.7325V37.6271H76.7565V62.7325H71.4752Z" fill="#03609D"/>
<path d="M84.3037 41.9911C83.4344 42.0287 82.5848 41.7254 81.9358 41.1459C81.6406 40.883 81.4058 40.5594 81.2475 40.1973C81.0892 39.8351 81.0111 39.443 81.0186 39.0478C81.0111 38.6526 81.0892 38.2605 81.2475 37.8983C81.4058 37.5361 81.6406 37.2125 81.9358 36.9496C82.5848 36.3702 83.4344 36.0669 84.3037 36.1044C85.1634 36.0682 86.0063 36.3499 86.6716 36.8957C86.9661 37.1484 87.2007 37.4634 87.3583 37.818C87.5159 38.1727 87.5926 38.5579 87.5827 38.9459C87.5945 39.3518 87.5211 39.7557 87.3673 40.1315C87.2134 40.5073 86.9826 40.8467 86.6895 41.1279C86.3684 41.4219 85.9923 41.6496 85.5828 41.7977C85.1733 41.9459 84.7386 42.0116 84.3037 41.9911ZM81.6601 62.7325V44.5269H86.9413V62.7325H81.6601Z" fill="#03609D"/>
<path d="M99.596 61.8333C97.9999 61.855 96.4236 61.4779 95.0101 60.7363C93.6632 60.0181 92.5315 58.9547 91.731 57.6551C90.8868 56.266 90.4583 54.6642 90.4961 53.0392C90.4551 51.4025 90.8836 49.7883 91.731 48.3874C92.5272 47.0888 93.6603 46.0302 95.0101 45.3241C96.4252 44.5881 98.0011 44.2153 99.596 44.2391C101.006 44.2111 102.402 44.5302 103.66 45.1683C104.854 45.815 105.813 46.822 106.4 48.0457C107.11 49.6116 107.446 51.321 107.383 53.0392C107.444 54.7456 107.108 56.4429 106.4 57.9968C105.811 59.2226 104.853 60.2331 103.66 60.8862C102.407 61.5391 101.009 61.8649 99.596 61.8333ZM100.411 69.5544C98.7398 69.5696 97.0734 69.3681 95.4537 68.9549C94.0121 68.6096 92.6571 67.9708 91.4733 67.0786L93.5714 63.29C94.4431 63.9748 95.4382 64.4856 96.5027 64.7947C97.6343 65.1584 98.815 65.3464 100.004 65.3522C101.874 65.3522 103.233 64.9345 104.08 64.0993C104.927 63.264 105.351 62.0232 105.351 60.3766V57.6371L105.687 53.0692L105.621 48.4653V44.5388H110.626V59.6992C110.626 63.0862 109.751 65.574 107.988 67.1805C106.226 68.7871 103.702 69.5724 100.411 69.5724V69.5544ZM100.645 57.5052C101.501 57.521 102.348 57.3297 103.115 56.9477C103.819 56.5942 104.407 56.0473 104.811 55.3711C105.22 54.6631 105.428 53.8567 105.411 53.0392C105.432 52.2136 105.225 51.3982 104.811 50.6833C104.401 50.0179 103.814 49.4802 103.115 49.1307C102.348 48.7487 101.501 48.5575 100.645 48.5732C99.789 48.5582 98.9418 48.7494 98.1752 49.1307C97.4753 49.4835 96.8847 50.0203 96.4668 50.6833C96.0457 51.3951 95.8376 52.2127 95.8673 53.0392C95.8422 53.8576 96.0501 54.6663 96.4668 55.3711C96.8804 56.0438 97.4716 56.5894 98.1752 56.9477C98.9403 57.3353 99.7875 57.5327 100.645 57.5232V57.5052Z" fill="#03609D"/>
<path d="M124.57 63.0323C122.679 63.0815 120.805 62.67 119.108 61.8333C117.607 61.085 116.347 59.9301 115.47 58.5003C114.603 57.0524 114.157 55.3918 114.181 53.7046C114.149 51.9999 114.589 50.3196 115.452 48.849C116.287 47.4502 117.484 46.3028 118.917 45.528C120.447 44.7145 122.159 44.3021 123.892 44.329C125.569 44.3038 127.227 44.6929 128.718 45.462C130.126 46.1849 131.303 47.2876 132.117 48.6452C132.985 50.1872 133.418 51.9358 133.37 53.7046C133.37 53.9084 133.37 54.1422 133.334 54.4C133.298 54.6578 133.292 54.9035 133.268 55.1253H118.509V52.0441H130.498L128.466 52.9613C128.48 52.1004 128.274 51.2502 127.867 50.4915C127.499 49.8076 126.949 49.239 126.278 48.849C125.548 48.4349 124.719 48.2276 123.88 48.2495C123.042 48.2318 122.214 48.4388 121.482 48.849C120.799 49.2378 120.242 49.814 119.876 50.5095C119.467 51.2848 119.261 52.1509 119.276 53.0272V53.8425C119.258 54.7589 119.486 55.6634 119.936 56.4622C120.368 57.2108 121.016 57.8122 121.794 58.1886C122.678 58.6041 123.647 58.8093 124.624 58.7881C125.495 58.8048 126.362 58.6542 127.177 58.3445C127.966 58.0579 128.688 57.6132 129.299 57.0376L132.105 60.0829C131.245 61.0509 130.166 61.799 128.958 62.2649C127.558 62.8024 126.068 63.063 124.57 63.0323Z" fill="#03609D"/>
<path d="M136.889 62.7326V44.5269H141.93V49.5684L140.983 48.0457C141.616 46.8484 142.596 45.8705 143.794 45.2403C145.077 44.5697 146.507 44.2316 147.955 44.2571C149.296 44.234 150.623 44.5299 151.827 45.1204C152.974 45.7028 153.913 46.6236 154.519 47.758C155.224 49.1697 155.563 50.7367 155.502 52.3139V62.7326H150.221V53.1412C150.221 51.6725 149.897 50.5934 149.255 49.8921C148.903 49.5331 148.478 49.2538 148.008 49.0728C147.539 48.8919 147.036 48.8135 146.534 48.843C145.75 48.8297 144.976 49.0109 144.28 49.3705C143.605 49.7277 143.061 50.2904 142.727 50.9771C142.324 51.8452 142.133 52.7964 142.17 53.7526V62.7445L136.889 62.7326Z" fill="#03609D"/>
<path d="M158.103 48.5912V44.5269H170.728V48.5912H158.103ZM167.695 62.9783C165.549 62.9783 163.882 62.4328 162.683 61.3418C161.484 60.2507 160.885 58.6142 160.885 56.4502V40.4745H166.16V56.4382C166.135 56.7628 166.175 57.0892 166.278 57.3981C166.381 57.707 166.545 57.9921 166.76 58.2366C166.98 58.4457 167.241 58.607 167.527 58.7101C167.813 58.8133 168.117 58.8562 168.42 58.836C169.185 58.8586 169.935 58.622 170.548 58.1646L171.969 61.8813C171.382 62.2892 170.723 62.5822 170.027 62.7445C169.272 62.9344 168.497 63.031 167.719 63.0323L167.695 62.9783Z" fill="#03609D"/>
<path d="M183.449 63.0323C181.558 63.0815 179.684 62.67 177.988 61.8333C176.487 61.085 175.226 59.9302 174.349 58.5003C173.482 57.0524 173.036 55.3919 173.06 53.7046C173.028 51.9999 173.468 50.3196 174.331 48.849C175.165 47.4477 176.365 46.2997 177.802 45.528C179.332 44.7133 181.044 44.3008 182.777 44.329C184.445 44.3087 186.091 44.6977 187.573 45.462C188.99 46.2029 190.168 47.3292 190.972 48.7111C191.843 50.252 192.276 52.0015 192.225 53.7706C192.225 53.9744 192.225 54.2082 192.195 54.4659C192.165 54.7237 192.147 54.9695 192.123 55.1913H177.358V52.1101H189.347L187.321 53.0272C187.335 52.1663 187.129 51.3161 186.722 50.5575C186.353 49.8727 185.801 49.3041 185.127 48.9149C184.406 48.5053 183.588 48.2982 182.759 48.3155C181.921 48.2984 181.093 48.5053 180.362 48.9149C179.679 49.3038 179.121 49.88 178.755 50.5754C178.346 51.3508 178.14 52.2169 178.155 53.0932V53.9085C178.138 54.8249 178.365 55.7293 178.815 56.5281C179.25 57.2771 179.899 57.8786 180.679 58.2546C181.561 58.6708 182.528 58.876 183.503 58.854C184.374 58.8707 185.241 58.7201 186.056 58.4104C186.809 58.1089 187.493 57.6606 188.071 57.0916L190.882 60.1369C190.02 61.1022 188.941 61.8499 187.735 62.3189C186.364 62.8239 184.91 63.0659 183.449 63.0323Z" fill="#03609D"/>
<path d="M201.894 63.0323C200.382 63.038 198.875 62.8506 197.41 62.4748C196.207 62.1999 195.058 61.7258 194.011 61.072L195.768 57.2834C196.692 57.8397 197.688 58.2653 198.729 58.5483C199.823 58.8706 200.957 59.0361 202.098 59.0399C202.984 59.104 203.872 58.9539 204.688 58.6023C204.913 58.4919 205.103 58.3215 205.237 58.11C205.371 57.8984 205.445 57.6539 205.449 57.4033C205.454 57.2016 205.4 57.0028 205.293 56.8314C205.187 56.6599 205.033 56.5233 204.85 56.4382C204.354 56.1907 203.821 56.0247 203.273 55.9466C202.62 55.8327 201.906 55.7188 201.127 55.6109C200.348 55.503 199.562 55.3412 198.777 55.1494C198.015 54.9697 197.284 54.6788 196.607 54.2861C195.961 53.9095 195.42 53.3754 195.036 52.7335C194.608 51.9568 194.401 51.0779 194.437 50.1918C194.421 49.0934 194.773 48.0212 195.438 47.1465C196.192 46.2014 197.192 45.4817 198.327 45.0664C199.778 44.5254 201.318 44.2669 202.865 44.3051C204.139 44.3098 205.409 44.4464 206.654 44.7127C207.784 44.9302 208.87 45.3354 209.867 45.9116L208.111 49.6703C207.289 49.1738 206.392 48.8135 205.455 48.6032C204.604 48.4161 203.736 48.3196 202.865 48.3155C201.982 48.2581 201.098 48.4208 200.294 48.7891C200.061 48.8952 199.862 49.0631 199.718 49.2745C199.575 49.4859 199.492 49.7327 199.478 49.988C199.471 50.1972 199.524 50.4042 199.63 50.5846C199.736 50.7651 199.891 50.9116 200.078 51.0071C200.572 51.2675 201.104 51.4495 201.654 51.5466C202.308 51.6845 203.021 51.7984 203.8 51.9003C204.592 52.0061 205.377 52.1602 206.15 52.3619C206.905 52.5458 207.63 52.8364 208.302 53.2251C208.945 53.5938 209.485 54.1172 209.873 54.7477C210.308 55.513 210.516 56.3863 210.472 57.2655C210.484 58.3504 210.126 59.407 209.459 60.2628C208.686 61.198 207.673 61.9048 206.528 62.3069C205.041 62.832 203.47 63.0779 201.894 63.0323Z" fill="#03609D"/>
<path d="M211 25.9735H112.389V32.154H211V25.9735Z" fill="#03609D"/>
<path d="M0.570812 8.10955V1.22173H3.3763C4.04597 1.20606 4.70912 1.35639 5.30656 1.65933C5.84292 1.92841 6.29192 2.34415 6.6014 2.85825C6.91918 3.40326 7.07901 4.02595 7.06299 4.65664C7.07933 5.28736 6.91948 5.91014 6.6014 6.45502C6.29192 6.96913 5.84292 7.38487 5.30656 7.65395C4.70912 7.95688 4.04597 8.10723 3.3763 8.09156L0.570812 8.10955ZM1.30216 7.4801H3.33433C3.8855 7.49393 4.43145 7.37034 4.92291 7.12044C5.36018 6.89534 5.72412 6.55011 5.97197 6.12533C6.2296 5.68381 6.36029 5.17972 6.34963 4.66864C6.36095 4.15369 6.23029 3.64556 5.97197 3.19995C5.72219 2.7782 5.35861 2.4354 4.92291 2.21084C4.43145 1.96094 3.8855 1.83733 3.33433 1.85116H1.30216V7.4801Z" fill="#03609D"/>
<path d="M10.7437 8.1575C10.2514 8.1667 9.76469 8.05123 9.32897 7.8218C8.93123 7.60376 8.6014 7.28016 8.37582 6.88664C8.14051 6.47005 8.02049 5.99826 8.02814 5.51987C8.02123 5.04761 8.1347 4.58136 8.35784 4.16508C8.56847 3.77807 8.88166 3.45659 9.26303 3.23592C9.6553 3.00581 10.1031 2.88763 10.5579 2.89422C11.0114 2.8849 11.4589 2.99886 11.8527 3.22394C12.23 3.44323 12.5392 3.76276 12.7459 4.14709C12.9672 4.5703 13.0785 5.04237 13.0696 5.51987C13.0726 5.55577 13.0726 5.59186 13.0696 5.62777C13.0665 5.66567 13.0665 5.70377 13.0696 5.74167H8.57365V5.22014H12.6979L12.4222 5.42395C12.4261 5.07557 12.3438 4.73165 12.1824 4.42286C12.0257 4.14163 11.7985 3.90609 11.523 3.73946C11.2336 3.57223 10.904 3.48724 10.5699 3.49368C10.236 3.48962 9.907 3.57445 9.61671 3.73946C9.33692 3.90327 9.10852 4.14206 8.9573 4.42884C8.79728 4.74219 8.71698 5.09015 8.72351 5.44194V5.54983C8.7146 5.91432 8.80361 6.27454 8.98128 6.59291C9.15385 6.8839 9.40257 7.12226 9.70064 7.28229C10.0296 7.45442 10.3965 7.54102 10.7677 7.53407C11.0696 7.53692 11.3691 7.47987 11.6489 7.36622C11.919 7.25307 12.1591 7.07862 12.3503 6.85668L12.7459 7.30627C12.5124 7.58189 12.2165 7.79769 11.8827 7.9357C11.5217 8.0851 11.1344 8.16052 10.7437 8.1575Z" fill="#03609D"/>
<path d="M15.8811 8.15749C15.4747 8.15837 15.0704 8.09774 14.6822 7.97766C14.3581 7.88416 14.0549 7.72951 13.789 7.52206L14.1067 6.97057C14.352 7.14677 14.6229 7.28425 14.91 7.3782C15.2434 7.49412 15.594 7.5529 15.947 7.55204C16.3161 7.58193 16.6857 7.50048 17.0081 7.31825C17.107 7.25247 17.1882 7.16341 17.2447 7.05889C17.3011 6.95436 17.331 6.83757 17.3318 6.71878C17.3339 6.63645 17.319 6.55457 17.2881 6.47825C17.2571 6.40193 17.2108 6.33281 17.1519 6.27519C17.0128 6.15793 16.8488 6.07388 16.6724 6.02941C16.4563 5.96567 16.2359 5.91759 16.013 5.88554C15.7672 5.84358 15.5274 5.80161 15.2876 5.74766C15.0552 5.68948 14.8314 5.60079 14.6222 5.48389C14.4322 5.38786 14.2694 5.24563 14.1486 5.07026C14.0133 4.85789 13.9483 4.6083 13.9628 4.3569C13.9585 4.08575 14.0427 3.82057 14.2026 3.60157C14.3766 3.36281 14.616 3.17959 14.892 3.07406C15.2496 2.9377 15.6304 2.87253 16.013 2.88223C16.351 2.88217 16.6876 2.92651 17.0141 3.01411C17.308 3.08387 17.5878 3.2035 17.8413 3.36779L17.5356 3.92529C17.3108 3.77077 17.0615 3.65525 16.7983 3.58359C16.5416 3.51773 16.2779 3.48352 16.013 3.48169C15.653 3.45636 15.2937 3.53991 14.9819 3.72147C14.8822 3.78694 14.8001 3.8758 14.7426 3.98028C14.6852 4.08476 14.6541 4.20171 14.6522 4.32093C14.6475 4.40625 14.6612 4.49157 14.6922 4.57118C14.7232 4.65079 14.7709 4.72283 14.832 4.78251C14.973 4.90435 15.1386 4.99432 15.3176 5.04628C15.5335 5.11212 15.7539 5.16221 15.977 5.19614L16.6964 5.34003C16.9239 5.39143 17.145 5.46783 17.3558 5.56783C17.5483 5.65691 17.7138 5.7955 17.8353 5.96946C17.9647 6.17334 18.0294 6.41154 18.0212 6.65285C18.0269 6.93533 17.9383 7.21164 17.7694 7.43815C17.5775 7.67239 17.3243 7.84876 17.038 7.94767C16.6682 8.08675 16.2762 8.15783 15.8811 8.15749Z" fill="#03609D"/>
<path d="M20.7547 8.1575C20.409 8.16806 20.0652 8.10259 19.7476 7.96568C19.483 7.85469 19.2546 7.67198 19.0882 7.43815C18.9377 7.2043 18.8605 6.93087 18.8664 6.65286C18.8616 6.39604 18.928 6.1429 19.0582 5.92152C19.2068 5.68202 19.427 5.49536 19.6877 5.38799C20.0687 5.23763 20.4774 5.1702 20.8866 5.19017H22.685V5.7117H20.8806C20.5144 5.6718 20.1461 5.76547 19.8435 5.97546C19.7506 6.05796 19.6768 6.15965 19.6271 6.27351C19.5774 6.38737 19.5531 6.51068 19.5558 6.63488C19.5512 6.77164 19.5799 6.90744 19.6395 7.03065C19.699 7.15386 19.7875 7.2608 19.8975 7.34224C20.1805 7.53593 20.5204 7.62884 20.8626 7.606C21.2211 7.61532 21.5747 7.5217 21.8817 7.33624C22.1601 7.14763 22.3703 6.87438 22.4811 6.55694L22.637 7.03651C22.5242 7.38232 22.2983 7.68008 21.9956 7.88175C21.617 8.09081 21.1862 8.18653 20.7547 8.1575ZM22.5531 8.10955V6.97057L22.5231 6.78474V4.88444C22.5361 4.69891 22.5097 4.51274 22.4456 4.33814C22.3816 4.16354 22.2813 4.00446 22.1514 3.87135C21.8456 3.61539 21.4522 3.48854 21.0544 3.51767C20.7292 3.51583 20.4063 3.57269 20.1013 3.68551C19.8196 3.78324 19.5592 3.93379 19.334 4.12911L19.0223 3.60758C19.2986 3.37349 19.6184 3.19626 19.9634 3.08605C20.3392 2.96522 20.7317 2.90453 21.1264 2.90622C21.6864 2.86989 22.2392 3.04774 22.673 3.40377C22.8585 3.60048 23.0007 3.83386 23.0905 4.08888C23.1804 4.3439 23.2158 4.6149 23.1945 4.88444V8.09157L22.5531 8.10955Z" fill="#03609D"/>
<path d="M25.1008 8.10955V2.94219H25.7722V4.35091L25.7063 4.10515C25.8336 3.72878 26.0907 3.41002 26.4316 3.20596C26.8181 2.98624 27.2582 2.8783 27.7025 2.89422V3.57162H27.5466C27.3097 3.55805 27.0725 3.59545 26.8512 3.68127C26.6299 3.7671 26.4296 3.89938 26.2638 4.06918C25.9348 4.46211 25.7695 4.96649 25.8022 5.4779V8.11555L25.1008 8.10955Z" fill="#03609D"/>
<path d="M28.9733 8.10955V2.94219H29.6387V4.35091L29.5728 4.10515C29.7001 3.72878 29.9572 3.41002 30.2981 3.20596C30.6847 2.98624 31.1247 2.8783 31.569 2.89422V3.57162H31.4131C31.1762 3.55805 30.939 3.59545 30.7178 3.68127C30.4965 3.7671 30.2961 3.89938 30.1303 4.06918C29.7998 4.46364 29.6345 4.97046 29.6687 5.48391V8.12153L28.9733 8.10955Z" fill="#03609D"/>
<path d="M34.896 8.1575C34.4269 8.16402 33.9641 8.04833 33.5532 7.82181C33.1603 7.60152 32.8349 7.27819 32.6121 6.88665C32.3768 6.47006 32.2567 5.99827 32.2644 5.51987C32.2567 5.04148 32.3768 4.56969 32.6121 4.1531C32.8347 3.76657 33.1579 3.44755 33.5472 3.22992C33.9598 3.00213 34.4248 2.88639 34.896 2.89423C35.371 2.88624 35.84 3.00192 36.2568 3.22992C36.6462 3.44755 36.9693 3.76657 37.192 4.1531C37.4252 4.57027 37.5431 5.04203 37.5337 5.51987C37.5431 5.99772 37.4252 6.46947 37.192 6.88665C36.9692 7.27819 36.6438 7.60152 36.2508 7.82181C35.8359 8.04906 35.3691 8.16472 34.896 8.1575ZM34.896 7.55804C35.2442 7.56371 35.5876 7.47683 35.8911 7.30628C36.1802 7.13857 36.4169 6.89361 36.5745 6.5989C36.7474 6.27241 36.834 5.9072 36.8263 5.53786C36.8349 5.16842 36.7481 4.80302 36.5745 4.47682C36.4147 4.18524 36.1785 3.94274 35.8911 3.77544C35.5898 3.60483 35.2483 3.51792 34.902 3.52367C34.5576 3.51782 34.2181 3.60478 33.9189 3.77544C33.6312 3.94423 33.3933 4.18624 33.2295 4.47682C33.0559 4.80302 32.9692 5.16842 32.9777 5.53786C32.97 5.9072 33.0566 6.27241 33.2295 6.5989C33.3949 6.88357 33.6328 7.11937 33.9189 7.28229C34.2156 7.45428 34.5531 7.54331 34.896 7.54006V7.55804Z" fill="#03609D"/>
<path d="M38.9604 8.10955V0.808105H39.6557V8.10955H38.9604Z" fill="#03609D"/>
<path d="M41.604 8.10955V0.808105H42.3054V8.10955H41.604Z" fill="#03609D"/>
<path d="M45.7103 8.1575C45.3646 8.16806 45.0208 8.10259 44.7032 7.96568C44.4386 7.85469 44.2102 7.67198 44.0438 7.43815C43.8934 7.2043 43.8161 6.93087 43.822 6.65286C43.8172 6.39604 43.8836 6.1429 44.0138 5.92151C44.1546 5.68673 44.3638 5.50056 44.6133 5.38798C44.9944 5.23763 45.4031 5.1702 45.8122 5.19017H47.6106V5.7117H45.8482C45.482 5.6718 45.1138 5.76547 44.8111 5.97546C44.7183 6.05796 44.6444 6.15965 44.5947 6.27351C44.5451 6.38737 44.5207 6.51068 44.5234 6.63488C44.5188 6.77163 44.5476 6.90744 44.6071 7.03065C44.6666 7.15386 44.7551 7.26079 44.8651 7.34224C45.1481 7.53593 45.488 7.62884 45.8302 7.606C46.1887 7.61532 46.5424 7.5217 46.8493 7.33624C47.1277 7.14763 47.3379 6.87438 47.4488 6.55694L47.6046 7.03651C47.4841 7.38678 47.2472 7.68513 46.9332 7.88175C46.5599 8.08746 46.1358 8.18307 45.7103 8.1575ZM47.5087 8.10955V6.97057V6.78474V4.88444C47.5217 4.69891 47.4953 4.51274 47.4312 4.33814C47.3672 4.16354 47.2669 4.00446 47.137 3.87135C46.8312 3.61539 46.4378 3.48854 46.04 3.51767C45.7148 3.51583 45.3919 3.57269 45.0869 3.68551C44.8052 3.78324 44.5448 3.93379 44.3196 4.12911L44.0079 3.60758C44.2842 3.37349 44.604 3.19626 44.949 3.08605C45.3248 2.96522 45.7173 2.90453 46.112 2.90622C46.672 2.86989 47.2248 3.04774 47.6586 3.40377C47.8534 3.60135 48.0034 3.83849 48.0986 4.09913C48.1937 4.35976 48.2318 4.63779 48.2101 4.9144V8.12153L47.5087 8.10955Z" fill="#03609D"/>
<path d="M50.0564 8.10955V2.94219H50.7278V4.33893L50.6199 4.09315C50.7738 3.7261 51.0404 3.41749 51.3812 3.21194C51.7602 2.99441 52.1913 2.88455 52.6281 2.89422C53.0869 2.88065 53.5381 3.01288 53.917 3.27189C54.284 3.54937 54.5307 3.95699 54.6063 4.41086L54.3306 4.30296C54.4798 3.88461 54.7619 3.52665 55.1339 3.28387C55.543 3.0165 56.0241 2.88055 56.5126 2.89422C56.8923 2.88432 57.2687 2.9666 57.6097 3.134C57.9243 3.29761 58.18 3.5554 58.341 3.87135C58.5269 4.2556 58.6154 4.67969 58.5988 5.10624V8.10355H57.9034V5.17219C57.9361 4.72588 57.7967 4.28399 57.5137 3.9373C57.3718 3.79255 57.2004 3.68011 57.011 3.60769C56.8217 3.53527 56.619 3.50457 56.4167 3.51767C56.0948 3.50902 55.7764 3.58553 55.4935 3.73947C55.2349 3.8895 55.0263 4.11266 54.8941 4.38089C54.7468 4.69572 54.675 5.04054 54.6843 5.38799V8.10355H53.9829V5.17219C54.0182 4.72559 53.8784 4.28278 53.5933 3.9373C53.4497 3.79304 53.2771 3.681 53.087 3.60864C52.8968 3.53629 52.6934 3.50527 52.4902 3.51767C52.1702 3.50865 51.8536 3.58521 51.5731 3.73947C51.3135 3.88835 51.1046 4.11183 50.9736 4.38089C50.8263 4.69572 50.7545 5.04054 50.7638 5.38799V8.10355L50.0564 8.10955Z" fill="#03609D"/>
<path d="M62.6032 8.15749C62.1341 8.16319 61.6716 8.04755 61.2604 7.8218C60.8703 7.59968 60.5473 7.27666 60.3252 6.88664C60.0871 6.47116 59.9669 5.9986 59.9775 5.51987C59.9669 5.04113 60.0871 4.56857 60.3252 4.15309C60.5478 3.76657 60.871 3.44755 61.2604 3.22992C61.6707 3.00209 62.1339 2.88631 62.6032 2.89422C63.0802 2.88574 63.5511 3.00142 63.9699 3.22992C64.3593 3.44755 64.6825 3.76657 64.9051 4.15309C65.1336 4.57188 65.2493 5.04288 65.2408 5.51987C65.2493 5.99685 65.1336 6.46785 64.9051 6.88664C64.6807 7.27897 64.3531 7.60238 63.9579 7.8218C63.5426 8.04803 63.0761 8.16363 62.6032 8.15749ZM62.6032 7.55803C62.9515 7.56516 63.2952 7.47819 63.5983 7.30627C63.8874 7.13856 64.124 6.8936 64.2816 6.59889C64.4545 6.2724 64.5412 5.9072 64.5334 5.53785C64.542 5.16842 64.4553 4.80301 64.2816 4.47681C64.1219 4.18523 63.8856 3.94273 63.5983 3.77543C63.2991 3.60477 62.9595 3.51781 62.6151 3.52366C62.2708 3.51781 61.9312 3.60477 61.632 3.77543C61.343 3.94259 61.1048 4.18499 60.9426 4.47681C60.7672 4.80255 60.6784 5.16792 60.6849 5.53785C60.679 5.90772 60.7677 6.27296 60.9426 6.59889C61.1019 6.8944 61.3407 7.13944 61.632 7.30627C61.929 7.46968 62.2644 7.55041 62.6032 7.54005V7.55803Z" fill="#03609D"/>
<path d="M68.0583 8.1575C67.6518 8.15884 67.2475 8.0982 66.8593 7.97767C66.5348 7.88544 66.2314 7.73067 65.9662 7.52207L66.2779 6.97057C66.5254 7.14668 66.7983 7.28412 67.0871 7.3782C67.4185 7.49402 67.7672 7.5528 68.1182 7.55205C68.4873 7.58193 68.8569 7.50049 69.1793 7.31825C69.2782 7.25248 69.3594 7.16342 69.4159 7.0589C69.4723 6.95437 69.5022 6.83758 69.503 6.71879C69.5051 6.63646 69.4902 6.55458 69.4593 6.47826C69.4283 6.40194 69.382 6.33282 69.3231 6.2752C69.1857 6.15874 69.0239 6.07473 68.8496 6.02941C68.6335 5.96568 68.4131 5.9176 68.1902 5.88555C67.9444 5.84359 67.7046 5.80162 67.4648 5.74767C67.2379 5.698 67.0183 5.61942 66.8114 5.51387C66.6196 5.41802 66.4548 5.27585 66.3318 5.10024C66.2022 4.88566 66.1396 4.63728 66.152 4.38689C66.1484 4.11678 66.2303 3.85245 66.3858 3.63157C66.5621 3.39261 66.8035 3.20947 67.0812 3.10404C67.4368 2.96815 67.8155 2.90298 68.1962 2.9122C68.5362 2.91176 68.8748 2.9561 69.2032 3.04409C69.495 3.11493 69.7726 3.2345 70.0245 3.39777L69.7248 3.95528C69.4972 3.80181 69.2461 3.6864 68.9814 3.61358C68.725 3.54693 68.4612 3.51269 68.1962 3.51167C67.8382 3.48755 67.4812 3.57106 67.1711 3.75145C67.0714 3.81692 66.9893 3.90577 66.9318 4.01025C66.8743 4.11474 66.8433 4.23168 66.8414 4.35091C66.8367 4.43622 66.8504 4.52155 66.8814 4.60115C66.9124 4.68076 66.9601 4.75283 67.0212 4.81251C67.1599 4.93437 67.3236 5.0244 67.5008 5.07627C67.7168 5.14147 67.9372 5.19155 68.1602 5.22614L68.8795 5.37C69.1073 5.42042 69.3286 5.49686 69.5389 5.5978C69.7337 5.68599 69.9014 5.82465 70.0245 5.99943C70.1517 6.20399 70.2144 6.44214 70.2043 6.68283C70.21 6.9653 70.1215 7.24162 69.9526 7.46812C69.7629 7.70216 69.5117 7.87863 69.2272 7.97767C68.8516 8.10745 68.4556 8.16837 68.0583 8.1575Z" fill="#03609D"/>
<path d="M75.4377 8.1575C75.0312 8.15837 74.627 8.09775 74.2387 7.97767C73.9147 7.88417 73.6115 7.72952 73.3455 7.52207L73.6572 6.97057C73.9048 7.14668 74.1777 7.28412 74.4665 7.3782C74.798 7.49357 75.1466 7.55234 75.4976 7.55205C75.8667 7.58193 76.2363 7.50049 76.5587 7.31825C76.6594 7.25396 76.7424 7.16538 76.8001 7.06064C76.8577 6.95589 76.888 6.83834 76.8884 6.71879C76.8929 6.63562 76.8785 6.55249 76.8463 6.47566C76.8142 6.39883 76.765 6.3303 76.7025 6.2752C76.5651 6.15874 76.4033 6.07473 76.2289 6.02941C76.0129 5.96568 75.7925 5.9176 75.5695 5.88555C75.3238 5.84359 75.084 5.80162 74.8442 5.74767C74.6173 5.698 74.3977 5.61942 74.1908 5.51387C73.999 5.41802 73.8342 5.27585 73.7112 5.10024C73.5816 4.88566 73.5189 4.63728 73.5314 4.38689C73.5278 4.11678 73.6096 3.85245 73.7652 3.63157C73.9429 3.39402 74.1839 3.21122 74.4605 3.10404C74.8162 2.96815 75.1949 2.90298 75.5755 2.9122C75.9156 2.91176 76.2542 2.9561 76.5826 3.04409C76.8766 3.11385 77.1564 3.23347 77.4099 3.39777L77.1042 3.95528C76.878 3.80302 76.6292 3.68768 76.3668 3.61358C76.1082 3.54729 75.8425 3.51306 75.5755 3.51167C75.2176 3.48755 74.8606 3.57106 74.5505 3.75145C74.4508 3.81692 74.3686 3.90577 74.3112 4.01025C74.2537 4.11474 74.2227 4.23168 74.2207 4.35091C74.2161 4.43622 74.2297 4.52155 74.2608 4.60115C74.2918 4.68076 74.3394 4.75283 74.4006 4.81251C74.5407 4.93564 74.7066 5.02577 74.8861 5.07627C75.102 5.14212 75.3224 5.1922 75.5456 5.22614C75.7853 5.2681 76.0191 5.31605 76.2589 5.37C76.4867 5.42042 76.708 5.49686 76.9183 5.5978C77.1131 5.68599 77.2807 5.82465 77.4039 5.99943C77.5311 6.20399 77.5938 6.44214 77.5837 6.68283C77.5894 6.9653 77.5008 7.24162 77.332 7.46812C77.1423 7.70216 76.8911 7.87863 76.6066 7.97767C76.231 8.10745 75.8349 8.16837 75.4377 8.1575Z" fill="#03609D"/>
<path d="M80.9587 8.1575C80.4895 8.16402 80.0268 8.04833 79.6159 7.82181C79.2242 7.59984 78.8992 7.27691 78.6747 6.88665C78.4415 6.46947 78.3236 5.99772 78.333 5.51987C78.3236 5.04203 78.4415 4.57027 78.6747 4.1531C78.8974 3.76657 79.2205 3.44755 79.6099 3.22992C80.0226 3.00265 80.4875 2.88695 80.9587 2.89423C81.4337 2.88624 81.9027 3.00192 82.3195 3.22992C82.7088 3.44755 83.032 3.76657 83.2546 4.1531C83.4878 4.57027 83.6058 5.04203 83.5963 5.51987C83.6058 5.99772 83.4878 6.46947 83.2546 6.88665C83.0318 7.27819 82.7064 7.60152 82.3135 7.82181C81.8985 8.04906 81.4317 8.16472 80.9587 8.1575ZM80.9587 7.55804C81.3051 7.55516 81.6444 7.45998 81.9418 7.28229C82.2309 7.11459 82.4675 6.86964 82.6252 6.57493C82.7981 6.24845 82.8847 5.88322 82.877 5.51387C82.8855 5.14444 82.7988 4.77903 82.6252 4.45283C82.4654 4.16125 82.2291 3.91876 81.9418 3.75145C81.6426 3.58079 81.303 3.49384 80.9587 3.49969C80.6124 3.49393 80.2709 3.58085 79.9696 3.75145C79.6819 3.92025 79.444 4.16226 79.2802 4.45283C79.1066 4.77903 79.0198 5.14444 79.0284 5.51387C79.0207 5.88322 79.1073 6.24845 79.2802 6.57493C79.4422 6.86841 79.6804 7.11277 79.9696 7.28229C80.2701 7.45554 80.6118 7.54458 80.9587 7.54006V7.55804Z" fill="#03609D"/>
<path d="M85.023 8.10955V0.808105H85.7184V8.10955H85.023Z" fill="#03609D"/>
<path d="M89.8067 8.1575C89.4089 8.16952 89.014 8.0852 88.6558 7.91172C88.3285 7.7532 88.0599 7.49508 87.8885 7.17439C87.6967 6.79393 87.604 6.37127 87.6187 5.94548V2.94817H88.3201V5.87355C88.3025 6.09799 88.3295 6.3237 88.3995 6.53768C88.4694 6.75167 88.581 6.94972 88.7277 7.12044C88.8803 7.26384 89.0605 7.37451 89.2574 7.44564C89.4543 7.51677 89.6637 7.54688 89.8727 7.53407C90.2004 7.54335 90.5248 7.46688 90.8138 7.31226C91.0741 7.16427 91.2832 6.94056 91.4133 6.67085C91.5594 6.35351 91.6312 6.00702 91.6231 5.65775V2.94817H92.3245V8.11555H91.6531V6.68283L91.761 6.93461C91.6071 7.30478 91.3408 7.61723 90.9997 7.8278C90.641 8.04776 90.2275 8.16203 89.8067 8.1575Z" fill="#03609D"/>
<path d="M96.4248 8.1575C95.9462 8.16378 95.4738 8.04826 95.052 7.8218C94.6572 7.60189 94.3298 7.2786 94.1049 6.88664C93.8717 6.46947 93.7537 5.99772 93.7632 5.51987C93.7537 5.04202 93.8717 4.57027 94.1049 4.1531C94.3303 3.76461 94.6579 3.44532 95.052 3.22992C95.4738 3.00346 95.9462 2.88794 96.4248 2.89422C96.8391 2.88565 97.2496 2.97391 97.6237 3.15199C97.9744 3.31737 98.2669 3.58484 98.463 3.91932L97.9414 4.273C97.7792 4.01779 97.5515 3.81078 97.282 3.67354C97.0139 3.54783 96.7209 3.48431 96.4248 3.4877C96.0767 3.48204 95.7333 3.56891 95.4297 3.73947C95.1372 3.90611 94.895 4.14837 94.7283 4.44085C94.5547 4.76705 94.468 5.13245 94.4766 5.50189C94.468 5.87323 94.5547 6.24057 94.7283 6.56893C94.895 6.8614 95.1372 7.10366 95.4297 7.27031C95.7333 7.44086 96.0767 7.52774 96.4248 7.52207C96.7209 7.52547 97.0139 7.46194 97.282 7.33624C97.5462 7.20481 97.773 7.00896 97.9414 6.76676L98.463 7.12044C98.2616 7.44908 97.9704 7.71324 97.6237 7.88175C97.2511 8.06604 96.8405 8.16047 96.4248 8.1575Z" fill="#03609D"/>
<path d="M100.099 1.8032C100.031 1.80525 99.9637 1.79298 99.9007 1.76716C99.8377 1.74134 99.7809 1.70256 99.7338 1.65334C99.6864 1.60746 99.6487 1.55251 99.6229 1.49175C99.5972 1.43098 99.5839 1.36565 99.584 1.29966C99.5837 1.23451 99.5969 1.17001 99.6226 1.11018C99.6484 1.05036 99.6863 0.996506 99.7338 0.951977C99.782 0.904709 99.8392 0.867605 99.902 0.842889C99.9649 0.818173 100.032 0.806357 100.099 0.808112C100.233 0.805237 100.362 0.854725 100.459 0.945976C100.508 0.989283 100.547 1.04292 100.573 1.10303C100.599 1.16314 100.611 1.22825 100.609 1.29367C100.611 1.36029 100.599 1.42659 100.575 1.48847C100.55 1.55035 100.513 1.60647 100.465 1.65334C100.419 1.70318 100.362 1.74238 100.299 1.76824C100.236 1.79411 100.168 1.80603 100.099 1.8032ZM99.7458 8.10956V2.9422H100.441V8.10956H99.7458Z" fill="#03609D"/>
<path d="M104.494 8.1575C104.025 8.16319 103.562 8.04755 103.151 7.8218C102.761 7.59968 102.438 7.27666 102.216 6.88664C101.978 6.47117 101.857 5.9986 101.868 5.51987C101.857 5.04113 101.978 4.56857 102.216 4.15309C102.438 3.76657 102.761 3.44755 103.151 3.22992C103.561 3.00209 104.024 2.88631 104.494 2.89422C104.971 2.88574 105.442 3.00142 105.86 3.22992C106.25 3.44755 106.573 3.76657 106.796 4.15309C107.027 4.57074 107.143 5.04253 107.131 5.51987C107.143 5.9972 107.027 6.46899 106.796 6.88664C106.573 7.27818 106.247 7.60151 105.854 7.8218C105.437 8.04903 104.968 8.16466 104.494 8.1575ZM104.494 7.55803C104.842 7.56516 105.186 7.47819 105.489 7.30627C105.778 7.13856 106.014 6.8936 106.172 6.59889C106.345 6.2724 106.432 5.9072 106.424 5.53785C106.432 5.16842 106.346 4.80301 106.172 4.47681C106.012 4.18523 105.776 3.94273 105.489 3.77543C105.19 3.60477 104.85 3.51781 104.506 3.52366C104.161 3.51781 103.822 3.60477 103.522 3.77543C103.235 3.94423 102.997 4.18623 102.833 4.47681C102.658 4.80255 102.569 5.16792 102.575 5.53785C102.569 5.90772 102.658 6.27296 102.833 6.59889C102.998 6.88356 103.236 7.11936 103.522 7.28229C103.817 7.45406 104.153 7.54311 104.494 7.54005V7.55803Z" fill="#03609D"/>
<path d="M108.558 8.10955V2.94219H109.229V4.36291L109.121 4.09315C109.283 3.72327 109.558 3.41454 109.907 3.21194C110.3 2.99347 110.745 2.88381 111.196 2.89422C111.579 2.88428 111.959 2.96651 112.305 3.13401C112.624 3.29689 112.886 3.55437 113.054 3.87135C113.247 4.25352 113.34 4.67842 113.324 5.10624V8.10355H112.622V5.17219C112.64 4.94959 112.613 4.7257 112.543 4.51366C112.473 4.30161 112.361 4.10567 112.215 3.9373C112.063 3.79163 111.884 3.67907 111.686 3.60682C111.489 3.53457 111.279 3.50421 111.07 3.51767C110.736 3.50855 110.406 3.5849 110.111 3.73947C109.842 3.88626 109.623 4.1095 109.481 4.3809C109.324 4.69274 109.248 5.03902 109.259 5.38799V8.10355L108.558 8.10955Z" fill="#03609D"/>
<path d="M117.406 8.1575C116.914 8.16749 116.427 8.05197 115.991 7.8218C115.594 7.60376 115.264 7.28016 115.038 6.88664C114.8 6.47117 114.68 5.99861 114.69 5.51987C114.681 5.04727 114.794 4.58028 115.02 4.16508C115.231 3.77807 115.544 3.45659 115.925 3.23592C116.318 3.00581 116.765 2.88763 117.22 2.89422C117.674 2.8849 118.121 2.99886 118.515 3.22394C118.89 3.44361 119.198 3.76318 119.402 4.14709C119.628 4.56881 119.742 5.04157 119.732 5.51987C119.732 5.55584 119.732 5.5918 119.732 5.62777C119.729 5.66567 119.729 5.70377 119.732 5.74167H115.236V5.22014H119.36L119.084 5.42395C119.089 5.07473 119.005 4.73009 118.839 4.42286C118.686 4.14086 118.46 3.9049 118.185 3.73946C117.896 3.5728 117.566 3.48785 117.232 3.49368C116.898 3.48962 116.569 3.57445 116.279 3.73946C115.999 3.90327 115.771 4.14206 115.62 4.42884C115.457 4.74165 115.375 5.08965 115.38 5.44194V5.54983C115.373 5.91484 115.464 6.27501 115.644 6.59291C115.816 6.8875 116.067 7.12827 116.369 7.28829C116.698 7.45994 117.065 7.54648 117.436 7.54005C117.738 7.54404 118.038 7.48695 118.317 7.3722C118.59 7.26065 118.832 7.08602 119.025 6.86266L119.414 7.31225C119.184 7.58901 118.89 7.80515 118.557 7.9417C118.192 8.09 117.8 8.16338 117.406 8.1575Z" fill="#03609D"/>
<path d="M122.543 8.1575C122.137 8.15837 121.733 8.09775 121.344 7.97767C121.02 7.88417 120.717 7.72952 120.451 7.52207L120.763 6.97057C121.011 7.14668 121.283 7.28412 121.572 7.3782C121.904 7.49357 122.252 7.55234 122.603 7.55205C122.974 7.58095 123.345 7.49961 123.67 7.31825C123.769 7.25248 123.851 7.16342 123.907 7.0589C123.963 6.95437 123.993 6.83758 123.994 6.71879C123.999 6.63562 123.984 6.55249 123.952 6.47566C123.92 6.39883 123.871 6.3303 123.808 6.2752C123.672 6.15712 123.51 6.0729 123.335 6.02941C123.119 5.96568 122.898 5.9176 122.675 5.88555C122.429 5.84359 122.19 5.80162 121.95 5.74767C121.723 5.698 121.503 5.61942 121.296 5.51387C121.106 5.41639 120.941 5.27454 120.817 5.10024C120.687 4.88566 120.625 4.63728 120.637 4.38689C120.634 4.11678 120.715 3.85245 120.871 3.63157C121.049 3.39402 121.29 3.21122 121.566 3.10404C121.922 2.96815 122.301 2.90298 122.681 2.9122C123.021 2.91176 123.36 2.9561 123.688 3.04409C123.982 3.11385 124.262 3.23347 124.516 3.39777L124.21 3.95528C123.985 3.80076 123.736 3.68524 123.473 3.61358C123.214 3.54729 122.948 3.51306 122.681 3.51167C122.323 3.48755 121.966 3.57106 121.656 3.75145C121.557 3.81692 121.474 3.90577 121.417 4.01025C121.359 4.11474 121.328 4.23168 121.326 4.35091C121.322 4.43622 121.335 4.52155 121.366 4.60115C121.397 4.68076 121.445 4.75283 121.506 4.81251C121.647 4.93434 121.813 5.02431 121.992 5.07627C122.208 5.14212 122.428 5.1922 122.651 5.22614L123.371 5.37C123.598 5.42236 123.819 5.49872 124.03 5.5978C124.223 5.68688 124.388 5.82547 124.51 5.99943C124.637 6.20399 124.7 6.44214 124.689 6.68283C124.695 6.9653 124.607 7.24162 124.438 7.46812C124.249 7.7036 123.998 7.88038 123.712 7.97767C123.337 8.10797 122.941 8.1689 122.543 8.1575Z" fill="#03609D"/>
<path d="M128.892 1.8032C128.824 1.80488 128.756 1.79244 128.693 1.76665C128.63 1.74085 128.573 1.70226 128.526 1.65333C128.479 1.60716 128.443 1.55202 128.418 1.49123C128.393 1.43044 128.381 1.36527 128.382 1.29965C128.381 1.2349 128.393 1.17056 128.418 1.11071C128.442 1.05086 128.479 0.996801 128.526 0.951973C128.574 0.904982 128.632 0.868058 128.694 0.843361C128.757 0.818664 128.824 0.806691 128.892 0.808108C129.027 0.806164 129.157 0.85542 129.257 0.945973C129.304 0.990573 129.342 1.04459 129.366 1.10449C129.391 1.1644 129.403 1.22886 129.401 1.29367C129.403 1.36029 129.391 1.42659 129.367 1.48847C129.342 1.55035 129.305 1.60646 129.257 1.65333C129.211 1.7035 129.154 1.74292 129.091 1.76881C129.028 1.7947 128.96 1.80643 128.892 1.8032ZM128.538 8.10955V2.94219H129.233V8.10955H128.538Z" fill="#03609D"/>
<path d="M131.182 8.10955V2.94219H131.853V4.36291L131.745 4.09315C131.906 3.72327 132.181 3.41454 132.53 3.21194C132.924 2.99265 133.369 2.88293 133.819 2.89422C134.203 2.88428 134.583 2.96651 134.928 3.13401C135.248 3.29689 135.51 3.55437 135.678 3.87135C135.871 4.25352 135.963 4.67842 135.947 5.10624V8.10355H135.246V5.17219C135.264 4.94959 135.237 4.7257 135.167 4.51366C135.097 4.30161 134.985 4.10567 134.838 3.9373C134.687 3.79163 134.507 3.67907 134.31 3.60682C134.113 3.53457 133.903 3.50421 133.693 3.51767C133.36 3.50855 133.03 3.5849 132.734 3.73947C132.474 3.88776 132.265 4.1114 132.135 4.3809C131.978 4.69274 131.901 5.03902 131.913 5.38799V8.10355L131.182 8.10955Z" fill="#03609D"/>
<path d="M137.836 8.10955V2.94219H138.507V4.36291L138.399 4.09315C138.56 3.72327 138.835 3.41454 139.184 3.21194C139.578 2.99265 140.023 2.88293 140.473 2.89422C140.857 2.88428 141.237 2.96651 141.582 3.13401C141.9 3.29724 142.16 3.55479 142.326 3.87135C142.523 4.25196 142.619 4.67762 142.601 5.10624V8.10355H141.888V5.17219C141.921 4.72284 141.774 4.27878 141.48 3.9373C141.329 3.79223 141.149 3.68007 140.952 3.60786C140.755 3.53565 140.545 3.50494 140.335 3.51767C140.002 3.50774 139.672 3.58414 139.376 3.73947C139.105 3.8829 138.885 4.10704 138.747 4.3809C138.59 4.69274 138.514 5.03902 138.525 5.38799V8.10355L137.836 8.10955Z" fill="#03609D"/>
<path d="M146.594 8.1575C146.125 8.16402 145.662 8.04833 145.251 7.82181C144.859 7.59984 144.534 7.27691 144.31 6.88665C144.077 6.46947 143.959 5.99772 143.968 5.51987C143.959 5.04203 144.077 4.57027 144.31 4.1531C144.532 3.76657 144.856 3.44755 145.245 3.22992C145.658 3.00265 146.123 2.88695 146.594 2.89423C147.069 2.88624 147.538 3.00192 147.955 3.22992C148.346 3.44456 148.67 3.7643 148.89 4.1531C149.123 4.57027 149.241 5.04203 149.231 5.51987C149.241 5.99772 149.123 6.46947 148.89 6.88665C148.669 7.27795 148.346 7.60138 147.955 7.82181C147.537 8.04828 147.069 8.16386 146.594 8.1575ZM146.594 7.55804C146.942 7.56458 147.286 7.47764 147.589 7.30628C147.878 7.13857 148.115 6.89361 148.272 6.5989C148.445 6.27241 148.532 5.9072 148.524 5.53786C148.533 5.16842 148.446 4.80302 148.272 4.47682C148.112 4.18524 147.876 3.94274 147.589 3.77544C147.29 3.60478 146.95 3.51782 146.606 3.52367C146.261 3.51722 145.922 3.60422 145.623 3.77544C145.332 3.94063 145.093 4.18351 144.933 4.47682C144.755 4.80144 144.666 5.16759 144.676 5.53786C144.667 5.90803 144.756 6.27396 144.933 6.5989C145.093 6.89441 145.331 7.13945 145.623 7.30628C145.92 7.46969 146.255 7.55042 146.594 7.54006V7.55804Z" fill="#03609D"/>
<path d="M151.839 8.10955L149.549 2.94219H150.28L152.385 7.73789H152.043L154.177 2.94219H154.866L152.564 8.10955H151.839Z" fill="#03609D"/>
<path d="M157.102 8.1575C156.757 8.16691 156.413 8.10148 156.095 7.96569C155.831 7.85629 155.604 7.67314 155.442 7.43816C155.29 7.20482 155.21 6.93144 155.214 6.65286C155.212 6.39638 155.278 6.14395 155.406 5.92152C155.555 5.68203 155.775 5.49536 156.035 5.38799C156.417 5.23816 156.825 5.17075 157.234 5.19017H159.033V5.7117H157.234C156.866 5.67196 156.496 5.76555 156.191 5.97547C156.098 6.05797 156.024 6.15966 155.975 6.27352C155.925 6.38737 155.901 6.51068 155.903 6.63488C155.899 6.77164 155.928 6.90744 155.987 7.03066C156.047 7.15387 156.135 7.2608 156.245 7.34224C156.529 7.53509 156.868 7.62791 157.21 7.60601C157.569 7.61634 157.923 7.52264 158.229 7.33624C158.511 7.15128 158.722 6.87673 158.829 6.55695L158.991 7.03651C158.861 7.3775 158.62 7.66479 158.307 7.85179C157.942 8.06285 157.525 8.16864 157.102 8.1575ZM158.901 8.10955V6.97058L158.871 6.78475V4.88444C158.883 4.69945 158.857 4.51385 158.794 4.33944C158.732 4.16503 158.633 4.00562 158.505 3.87135C158.199 3.61539 157.806 3.48855 157.408 3.51767C157.083 3.51476 156.76 3.57166 156.455 3.68552C156.173 3.78186 155.912 3.93256 155.688 4.12911L155.37 3.60759C155.636 3.37813 155.943 3.20117 156.275 3.08606C156.649 2.96476 157.039 2.90405 157.432 2.90623C157.994 2.87076 158.548 3.04842 158.985 3.40377C159.179 3.60165 159.328 3.83899 159.422 4.09966C159.516 4.36033 159.553 4.63821 159.53 4.91441V8.12153L158.901 8.10955Z" fill="#03609D"/>
<path d="M163.511 8.1575C163.048 8.16605 162.591 8.05233 162.186 7.8278C161.799 7.60725 161.482 7.28344 161.269 6.89264C161.036 6.47312 160.921 5.99919 160.933 5.51987C160.92 5.04049 161.036 4.5664 161.269 4.1471C161.483 3.76071 161.801 3.44123 162.186 3.22394C162.591 2.99941 163.048 2.88567 163.511 2.89422C163.93 2.89088 164.343 2.99621 164.71 3.19995C165.073 3.40986 165.369 3.71992 165.561 4.09315C165.789 4.53326 165.9 5.02445 165.885 5.51987C165.898 6.01438 165.789 6.50453 165.567 6.94659C165.375 7.32326 165.08 7.63732 164.716 7.85179C164.348 8.05784 163.932 8.16328 163.511 8.1575ZM163.559 7.55804C163.905 7.56293 164.246 7.47607 164.548 7.30627C164.839 7.13945 165.078 6.8944 165.237 6.5989C165.41 6.27241 165.497 5.9072 165.489 5.53785C165.497 5.16842 165.411 4.80301 165.237 4.47681C165.077 4.18351 164.838 3.94063 164.548 3.77543C164.246 3.60564 163.905 3.51878 163.559 3.52367C163.218 3.51879 162.883 3.60576 162.587 3.77543C162.297 3.94063 162.058 4.18351 161.898 4.47681C161.72 4.80144 161.631 5.16759 161.64 5.53785C161.632 5.90803 161.721 6.27395 161.898 6.5989C162.057 6.8944 162.296 7.13945 162.587 7.30627C162.884 7.46968 163.22 7.55041 163.559 7.54005V7.55804ZM165.507 8.12753V6.57493L165.579 5.53185L165.477 4.48879V0.82609H166.178V8.12753H165.507Z" fill="#03609D"/>
<path d="M170.231 8.1575C169.761 8.16402 169.299 8.04833 168.888 7.82181C168.497 7.59822 168.173 7.27567 167.947 6.88665C167.713 6.46947 167.595 5.99772 167.605 5.51987C167.595 5.04203 167.713 4.57027 167.947 4.1531C168.173 3.76924 168.495 3.45103 168.882 3.22992C169.295 3.00265 169.759 2.88695 170.231 2.89423C170.706 2.88624 171.175 3.00192 171.591 3.22992C171.983 3.44456 172.307 3.7643 172.527 4.1531C172.76 4.57027 172.878 5.04203 172.868 5.51987C172.878 5.99772 172.76 6.46947 172.527 6.88665C172.306 7.27795 171.983 7.60138 171.591 7.82181C171.174 8.04828 170.705 8.16386 170.231 8.1575ZM170.231 7.55804C170.579 7.56458 170.922 7.47764 171.226 7.30628C171.515 7.13857 171.751 6.89361 171.909 6.5989C172.082 6.27241 172.169 5.9072 172.161 5.53786C172.169 5.16842 172.083 4.80302 171.909 4.47682C171.749 4.18524 171.513 3.94274 171.226 3.77544C170.927 3.60478 170.587 3.51782 170.243 3.52367C169.898 3.51722 169.558 3.60422 169.259 3.77544C168.969 3.94063 168.73 4.18351 168.57 4.47682C168.392 4.80144 168.303 5.16759 168.312 5.53786C168.304 5.90803 168.393 6.27396 168.57 6.5989C168.729 6.89441 168.968 7.13945 169.259 7.30628C169.556 7.46969 169.892 7.55042 170.231 7.54006V7.55804Z" fill="#03609D"/>
<path d="M174.295 8.10956V2.9422H174.966V4.35092L174.894 4.10516C175.024 3.72835 175.283 3.40975 175.626 3.20596C176.011 2.98732 176.448 2.87942 176.891 2.89423V3.57163H176.735C176.499 3.55734 176.262 3.59443 176.042 3.68033C175.821 3.76623 175.622 3.89889 175.458 4.06919C175.126 4.46056 174.961 4.96609 174.996 5.47791V8.11556L174.295 8.10956Z" fill="#03609D"/>
<path d="M179.294 8.1575C178.949 8.16806 178.605 8.10259 178.287 7.96569C178.023 7.85469 177.794 7.67198 177.628 7.43816C177.477 7.20431 177.4 6.93087 177.406 6.65286C177.401 6.39604 177.468 6.14291 177.598 5.92152C177.747 5.68203 177.967 5.49536 178.227 5.38799C178.609 5.23816 179.017 5.17075 179.426 5.19017H181.225V5.7117H179.462C179.096 5.6718 178.728 5.76547 178.425 5.97547C178.332 6.05797 178.259 6.15966 178.209 6.27352C178.159 6.38737 178.135 6.51068 178.137 6.63488C178.133 6.77164 178.162 6.90744 178.221 7.03066C178.281 7.15387 178.369 7.2608 178.479 7.34224C178.762 7.53594 179.102 7.62884 179.444 7.60601C179.803 7.61532 180.156 7.5217 180.463 7.33624C180.742 7.14764 180.952 6.87438 181.063 6.55695L181.219 7.03651C181.093 7.37974 180.851 7.66819 180.535 7.85179C180.16 8.07128 179.729 8.17744 179.294 8.1575ZM181.093 8.10955V6.97058L181.063 6.78475V4.88444C181.076 4.69945 181.05 4.51385 180.987 4.33944C180.924 4.16503 180.825 4.00562 180.697 3.87135C180.391 3.61539 179.998 3.48855 179.6 3.51767C179.273 3.51537 178.948 3.57224 178.641 3.68552C178.359 3.78324 178.099 3.93379 177.874 4.12911L177.562 3.60759C177.839 3.37477 178.159 3.19769 178.503 3.08606C178.879 2.96523 179.271 2.90454 179.666 2.90623C180.228 2.87076 180.782 3.04842 181.219 3.40377C181.411 3.60255 181.56 3.84003 181.654 4.10047C181.748 4.3609 181.786 4.63833 181.764 4.91441V8.12153L181.093 8.10955Z" fill="#03609D"/>
<path d="M185.049 8.1575C184.643 8.15884 184.239 8.0982 183.85 7.97767C183.526 7.88417 183.223 7.72952 182.957 7.52207L183.269 6.97057C183.516 7.14668 183.789 7.28412 184.078 7.3782C184.41 7.49357 184.758 7.55234 185.109 7.55205C185.48 7.58095 185.851 7.49961 186.176 7.31825C186.275 7.25248 186.356 7.16342 186.413 7.0589C186.469 6.95437 186.499 6.83758 186.5 6.71879C186.505 6.63562 186.49 6.55249 186.458 6.47566C186.426 6.39883 186.377 6.3303 186.314 6.2752C186.177 6.15874 186.015 6.07473 185.841 6.02941C185.625 5.96568 185.404 5.9176 185.181 5.88555C184.935 5.84359 184.696 5.80162 184.456 5.74767C184.229 5.698 184.009 5.61942 183.802 5.51387C183.612 5.41639 183.447 5.27454 183.323 5.10024C183.193 4.88566 183.131 4.63728 183.143 4.38689C183.139 4.11678 183.221 3.85245 183.377 3.63157C183.555 3.39402 183.796 3.21122 184.072 3.10404C184.428 2.96815 184.807 2.90298 185.187 2.9122C185.527 2.91176 185.866 2.9561 186.194 3.04409C186.488 3.11385 186.768 3.23347 187.022 3.39777L186.716 3.95528C186.49 3.80302 186.241 3.68768 185.978 3.61358C185.72 3.54729 185.454 3.51306 185.187 3.51167C184.829 3.48755 184.472 3.57106 184.162 3.75145C184.062 3.81692 183.98 3.90577 183.923 4.01025C183.865 4.11474 183.834 4.23168 183.832 4.35091C183.828 4.43622 183.841 4.52155 183.872 4.60115C183.903 4.68076 183.951 4.75283 184.012 4.81251C184.152 4.93564 184.318 5.02577 184.498 5.07627C184.714 5.14212 184.934 5.1922 185.157 5.22614C185.397 5.2681 185.631 5.31605 185.871 5.37C186.098 5.42042 186.32 5.49686 186.53 5.5978C186.725 5.68599 186.892 5.82465 187.016 5.99943C187.143 6.20399 187.205 6.44214 187.195 6.68283C187.201 6.9653 187.112 7.24162 186.944 7.46812C186.754 7.70216 186.503 7.87863 186.218 7.97767C185.843 8.10745 185.447 8.16837 185.049 8.1575Z" fill="#03609D"/>
<path d="M191.044 10.0218V2.9422H191.709V4.50078L191.643 5.53186L191.739 6.57494V10.0218H191.044ZM193.712 8.15751C193.292 8.16223 192.879 8.05683 192.513 7.85179C192.147 7.6384 191.848 7.32695 191.649 6.9526C191.423 6.50996 191.314 6.01673 191.332 5.51988C191.316 5.02588 191.423 4.53575 191.643 4.09315C191.836 3.7183 192.134 3.40786 192.501 3.19996C192.867 2.99647 193.28 2.89116 193.7 2.89423C194.161 2.88588 194.616 2.99964 195.018 3.22394C195.406 3.44036 195.725 3.75992 195.942 4.1471C196.169 4.56826 196.285 5.04105 196.277 5.51988C196.288 6.00094 196.172 6.4764 195.942 6.89863C195.724 7.28634 195.405 7.60753 195.018 7.82781C194.614 8.05314 194.157 8.16692 193.694 8.15751H193.712ZM193.658 7.55804C194.004 7.55723 194.344 7.4619 194.641 7.2823C194.932 7.11547 195.171 6.87044 195.33 6.57494C195.508 6.24999 195.596 5.88405 195.588 5.51388C195.597 5.1475 195.508 4.78539 195.33 4.46482C195.171 4.16931 194.932 3.92428 194.641 3.75746C194.343 3.58155 194.003 3.49227 193.658 3.49969C193.311 3.49367 192.968 3.58281 192.668 3.75746C192.377 3.92428 192.138 4.16931 191.979 4.46482C191.811 4.78855 191.726 5.14917 191.733 5.51388C191.727 5.88241 191.811 6.24692 191.979 6.57494C192.138 6.87044 192.377 7.11547 192.668 7.2823C192.964 7.45113 193.299 7.53997 193.64 7.54006L193.658 7.55804Z" fill="#03609D"/>
<path d="M199.125 8.15751C198.777 8.16778 198.431 8.10234 198.112 7.96569C197.849 7.85458 197.622 7.67178 197.458 7.43816C197.308 7.20431 197.23 6.93087 197.236 6.65287C197.232 6.39605 197.298 6.14291 197.428 5.92152C197.577 5.68203 197.797 5.49536 198.058 5.38799C198.439 5.23764 198.847 5.17021 199.257 5.19018H201.055V5.71171H199.293C198.926 5.67181 198.558 5.76547 198.255 5.97547C198.161 6.05741 198.087 6.15886 198.036 6.27275C197.985 6.38664 197.96 6.51022 197.962 6.63488C197.958 6.77209 197.988 6.90806 198.049 7.03123C198.109 7.15439 198.199 7.2611 198.309 7.34225C198.592 7.53594 198.932 7.62884 199.275 7.60601C199.633 7.61466 199.986 7.52108 200.294 7.33624C200.572 7.14764 200.782 6.87438 200.893 6.55695L201.049 7.03651C200.92 7.37751 200.679 7.6648 200.366 7.85179C199.99 8.07128 199.559 8.17745 199.125 8.15751ZM200.923 8.10956V6.97058L200.893 6.78475V4.88445C200.905 4.69902 200.878 4.51317 200.814 4.33873C200.75 4.1643 200.65 4.00512 200.521 3.87135C200.216 3.6154 199.822 3.48855 199.424 3.51767C199.099 3.51477 198.776 3.57166 198.471 3.68552C198.19 3.78325 197.929 3.9338 197.704 4.12912L197.386 3.60759C197.666 3.37472 197.987 3.19768 198.333 3.08606C198.709 2.96474 199.102 2.90404 199.496 2.90623C200.056 2.8705 200.609 3.04828 201.043 3.40377C201.237 3.60165 201.386 3.839 201.48 4.09966C201.574 4.36033 201.611 4.63821 201.588 4.91441V8.12154L200.923 8.10956Z" fill="#03609D"/>
<path d="M203.471 8.10955V2.94219H204.142V4.35091L204.07 4.10515C204.2 3.72834 204.459 3.40974 204.802 3.20596C205.188 2.98624 205.628 2.8783 206.072 2.89422V3.57162H205.911C205.674 3.55774 205.438 3.595 205.218 3.68087C204.997 3.76675 204.798 3.89921 204.634 4.06918C204.305 4.46211 204.139 4.96649 204.172 5.4779V8.11555L203.471 8.10955Z" fill="#03609D"/>
<path d="M208.47 8.1575C208.125 8.16691 207.781 8.10148 207.463 7.96569C207.199 7.85629 206.972 7.67314 206.81 7.43816C206.658 7.20482 206.578 6.93144 206.582 6.65286C206.58 6.39638 206.646 6.14395 206.774 5.92152C206.922 5.68203 207.143 5.49536 207.403 5.38799C207.784 5.23816 208.193 5.17075 208.602 5.19017H210.401V5.7117H208.644C208.276 5.67196 207.906 5.76555 207.601 5.97547C207.508 6.05797 207.434 6.15966 207.385 6.27352C207.335 6.38737 207.311 6.51068 207.313 6.63488C207.309 6.77164 207.337 6.90744 207.397 7.03066C207.457 7.15387 207.545 7.2608 207.655 7.34224C207.938 7.53509 208.278 7.62791 208.62 7.60601C208.979 7.61634 209.333 7.52264 209.639 7.33624C209.919 7.14958 210.13 6.87564 210.239 6.55695L210.401 7.03651C210.271 7.3775 210.03 7.66479 209.717 7.85179C209.339 8.0705 208.907 8.17657 208.47 8.1575ZM210.269 8.10955V6.97058L210.239 6.78475V4.88444C210.251 4.69945 210.225 4.51385 210.162 4.33944C210.099 4.16503 210.001 4.00562 209.873 3.87135C209.567 3.61539 209.174 3.48855 208.776 3.51767C208.453 3.5155 208.132 3.57238 207.829 3.68552C207.546 3.78375 207.283 3.93421 207.056 4.12911L206.744 3.60759C207.022 3.37346 207.344 3.19627 207.691 3.08606C208.065 2.96476 208.455 2.90405 208.848 2.90623C209.41 2.87076 209.964 3.04842 210.401 3.40377C210.595 3.60165 210.744 3.83899 210.838 4.09966C210.932 4.36033 210.969 4.63821 210.946 4.91441V8.12153L210.269 8.10955Z" fill="#03609D"/>
</svg>
