<svg width="18" height="22" viewBox="0 0 18 22" fill="none" xmlns="http://www.w3.org/2000/svg">
<path d="M5.19 17.0628V15.9028C3.96548 15.1755 2.94129 14.1548 2.20981 12.9327C1.47832 11.7107 1.06254 10.3257 1 8.90281C1.00107 7.71337 1.27038 6.53958 1.78787 5.46861C2.30537 4.39764 3.05772 3.45713 3.98895 2.71714C4.92018 1.97716 6.00631 1.45673 7.1665 1.19456C8.32669 0.932386 9.53107 0.935198 10.69 1.20286C11.8162 1.44567 12.8739 1.93715 13.7857 2.64134C14.6975 3.34553 15.4404 4.24456 15.96 5.27281C18.05 9.47281 15.85 13.9328 12.62 15.8828V17.0428C12.62 17.3328 12.73 18.0428 11.62 18.0428H6.11002C5.05002 18.0628 5.19 17.6328 5.19 17.0628Z" stroke="#03609D" stroke-width="1.5" stroke-linecap="round" stroke-linejoin="round"/>
<path d="M5.39001 21.0629C7.6781 20.413 10.1019 20.413 12.39 21.0629" stroke="#03609D" stroke-width="1.5" stroke-linecap="round" stroke-linejoin="round"/>
</svg>
