<svg width="22" height="22" viewBox="0 0 22 22" fill="none" xmlns="http://www.w3.org/2000/svg">
<path d="M10 19C14.9706 19 19 14.9706 19 10C19 5.02944 14.9706 1 10 1C5.02944 1 1 5.02944 1 10C1 14.9706 5.02944 19 10 19Z" stroke="#03609D" stroke-width="1.5" stroke-linecap="round" stroke-linejoin="round"/>
<path d="M17.93 19.6899C18.46 21.2899 19.66 21.45 20.6 20.04C21.46 18.76 20.89 17.7099 19.35 17.7099C19.1046 17.6866 18.8573 17.7282 18.6329 17.8303C18.4085 17.9324 18.2148 18.0916 18.0711 18.2919C17.9274 18.4923 17.8388 18.7268 17.814 18.9721C17.7893 19.2174 17.8293 19.4649 17.93 19.6899Z" stroke="#03609D" stroke-width="1.5" stroke-linecap="round" stroke-linejoin="round"/>
</svg>
