<svg width="39" height="39" viewBox="0 0 39 39" fill="none" xmlns="http://www.w3.org/2000/svg">
<rect width="39" height="39" rx="19.5" fill="#15507A"/>
<path d="M23.3899 13.2099L24.7999 15.9999C24.9209 16.2086 25.0837 16.3901 25.2782 16.533C25.4726 16.6758 25.6945 16.7769 25.9299 16.8299L28.4799 17.2599C30.1099 17.5299 30.4799 18.7099 29.3199 19.8799L27.3199 21.8799C27.1468 22.0731 27.02 22.3031 26.949 22.5526C26.8779 22.8021 26.8646 23.0645 26.9099 23.3199L27.4799 25.7799C27.9199 27.7199 26.8899 28.4799 25.1699 27.4699L22.7799 26.0499C22.5362 25.922 22.2651 25.8552 21.9899 25.8552C21.7147 25.8552 21.4436 25.922 21.1999 26.0499L18.8099 27.4699C17.0899 28.4699 16.0599 27.7199 16.4999 25.7799L17.0699 23.3199C17.1153 23.0645 17.1019 22.8021 17.0309 22.5526C16.9599 22.3031 16.833 22.0731 16.6599 21.8799L14.6599 19.8799C13.4899 18.7099 13.8699 17.5299 15.4999 17.2599L18.0499 16.8299C18.2853 16.7769 18.5072 16.6758 18.7017 16.533C18.8961 16.3901 19.059 16.2086 19.1799 15.9999L20.5899 13.1799C21.3799 11.6799 22.6199 11.6799 23.3899 13.2099Z" stroke="white" stroke-width="1.5" stroke-linecap="round" stroke-linejoin="round"/>
<path d="M16 13H10" stroke="white" stroke-width="1.5" stroke-linecap="round" stroke-linejoin="round"/>
<path d="M13 27H10" stroke="white" stroke-width="1.5" stroke-linecap="round" stroke-linejoin="round"/>
<path d="M11 20H10" stroke="white" stroke-width="1.5" stroke-linecap="round" stroke-linejoin="round"/>
</svg>
