<svg width="184" height="31" viewBox="0 0 184 31" fill="none" xmlns="http://www.w3.org/2000/svg">
<path d="M165.711 30.7861V6.86855H169.413V9.0011C169.528 9.0011 169.589 9.0011 169.609 9.0011C172.331 5.50172 178.101 5.55532 181.374 8.87475C185.903 13.4691 184.349 21.5476 178.437 23.8715C175.608 24.9818 171.776 24.4994 169.723 21.9572C169.67 21.8921 169.601 21.8462 169.448 21.7045V30.8129L165.711 30.7861ZM180.26 15.4179C180.26 12.2248 178.024 9.9238 174.9 9.91231C174.179 9.88587 173.461 10.0074 172.79 10.2695C172.118 10.5315 171.508 10.9285 170.996 11.4359C170.484 11.9433 170.081 12.5503 169.813 13.2194C169.545 13.8885 169.416 14.6054 169.436 15.326C169.436 18.5344 171.699 20.866 174.842 20.8699C177.986 20.8737 180.241 18.5918 180.252 15.4217L180.26 15.4179Z" fill="#2B2B29"/>
<path d="M20.016 16.9532C20.5329 19.0398 21.7695 20.3032 23.7221 20.7818C26.1189 21.3638 28.2667 20.935 29.9705 18.8981L32.9989 20.6631C32.4236 21.544 31.6794 22.3021 30.8093 22.8935C29.9393 23.485 28.9605 23.8981 27.9298 24.1089C24.8669 24.7521 21.8959 24.4535 19.3805 22.4128C16.3597 19.9587 15.5518 16.6699 16.4247 13.0097C17.2709 9.495 19.5872 7.26673 23.1478 6.5546C28.4352 5.48641 32.8305 8.54549 33.7149 13.8635C33.7986 14.7454 33.8153 15.6323 33.7647 16.5167C33.7647 17.0604 33.3818 16.9379 33.0678 16.9379H20.016V16.9532ZM29.9705 13.8903C29.8594 11.528 27.7805 9.77066 25.2038 9.71323C22.6271 9.6558 20.3453 11.3404 20.0658 13.8903H29.9705Z" fill="#2B2B29"/>
<path d="M59.1908 23.9367H55.5536V0H59.164V8.80587C59.3822 8.61444 59.5009 8.53021 59.5966 8.42301C61.511 6.27131 63.9383 5.9765 66.5226 6.62354C69.0342 7.25144 70.4317 9.04707 70.9332 11.5433C71.0505 12.1617 71.107 12.79 71.1017 13.4194C71.1017 16.7618 71.1017 20.1042 71.1017 23.4466C71.1017 23.5844 71.1017 23.7184 71.0711 23.9022H67.4185V23.1556C67.4185 20.1654 67.4185 17.1753 67.4185 14.1813C67.4191 13.668 67.3755 13.1556 67.2884 12.6498C67.1775 11.9521 66.8452 11.3086 66.3405 10.8143C65.8359 10.32 65.1856 10.0011 64.4858 9.90469C61.3616 9.39548 59.2942 11.1413 59.2138 14.4761C59.1449 17.3246 59.1946 20.1769 59.1908 23.0293V23.9367Z" fill="#2B2B29"/>
<path d="M132.475 15.3988C132.459 13.6009 132.977 11.8387 133.964 10.3358C134.951 8.83286 136.362 7.65685 138.018 6.95688C139.674 6.25691 141.501 6.06452 143.267 6.4041C145.032 6.74369 146.657 7.59995 147.936 8.86431C149.214 10.1287 150.088 11.7442 150.447 13.506C150.806 15.2678 150.634 17.0965 149.952 18.7602C149.27 20.424 148.11 21.8478 146.618 22.8512C145.126 23.8545 143.37 24.3923 141.572 24.3961C140.38 24.415 139.197 24.1959 138.091 23.7516C136.986 23.3074 135.98 22.647 135.133 21.8091C134.285 20.9711 133.614 19.9726 133.158 18.8718C132.701 17.7711 132.469 16.5904 132.475 15.3988ZM146.897 15.4218C146.897 12.3014 144.6 9.96597 141.537 9.97746C140.46 9.96304 139.403 10.2691 138.501 10.8567C137.598 11.4443 136.89 12.287 136.468 13.2777C136.045 14.2684 135.926 15.3624 136.127 16.4207C136.327 17.479 136.837 18.4538 137.593 19.2213C138.349 19.9889 139.315 20.5145 140.371 20.7314C141.426 20.9483 142.521 20.8466 143.518 20.4394C144.516 20.0322 145.369 19.3378 145.971 18.4444C146.572 17.551 146.895 16.4989 146.897 15.4218Z" fill="#2B2B29"/>
<path d="M78.7935 6.86856V8.78288C78.9174 8.69964 79.0351 8.60751 79.1457 8.50722C81.1136 6.23683 83.629 5.95734 86.3053 6.70775C88.9815 7.45817 90.2717 9.4146 90.5819 12.0372C90.7109 13.5484 90.7595 15.0654 90.7274 16.5818C90.7274 19.0092 90.7274 21.4365 90.7274 23.9137H87.0136V23.079C87.0136 20.1578 87.0136 17.2365 87.0136 14.3153C87.0275 13.7321 86.9774 13.1493 86.8643 12.5771C86.4814 10.8465 85.2064 9.89701 83.2768 9.84341C81.2706 9.77832 79.6626 10.8159 79.1227 12.6192C78.9244 13.2892 78.8226 13.9841 78.8203 14.6828C78.7858 17.7457 78.8203 20.8086 78.8203 23.9213H75.1333V6.86856H78.7935Z" fill="#2B2B29"/>
<path d="M10.7432 23.929H6.76903V3.72526H0V0H17.4356V3.69464H10.7432V23.929Z" fill="#2B2B29"/>
<path d="M52.7127 10.8274L49.5962 12.6345C49.1781 11.8475 48.5532 11.1895 47.7888 10.7314C47.0244 10.2733 46.1495 10.0325 45.2583 10.0349C44.5329 9.99254 43.8066 10.1017 43.1257 10.3555C42.4447 10.6093 41.8241 11.0021 41.3033 11.5089C39.2129 13.5304 39.2206 17.2519 41.3033 19.2849C41.8832 19.8497 42.5843 20.2747 43.3533 20.5275C44.1223 20.7803 44.9389 20.8542 45.7407 20.7436C47.1688 20.6057 47.9537 20.1042 49.711 18.1937L52.7203 19.9051C52.0465 22.566 47.9077 24.6794 43.9872 24.3846C39.8523 24.0783 36.3721 20.4947 36.0275 16.2066C35.6446 11.6544 38.4089 7.74918 42.7467 6.63504C46.7515 5.6128 51.254 7.47734 52.7127 10.8274Z" fill="#2B2B29"/>
<path d="M130.924 10.8274L127.819 12.6345C127.398 11.8317 126.761 11.1625 125.979 10.7025C125.198 10.2425 124.304 10.01 123.397 10.0311C122.66 9.99727 121.925 10.1216 121.24 10.3956C120.555 10.6697 119.937 11.0871 119.427 11.6199C117.352 13.7602 117.513 17.5582 119.741 19.4955C120.341 20.0014 121.043 20.3715 121.799 20.5803C122.556 20.7891 123.349 20.8317 124.123 20.7051C124.897 20.5785 125.635 20.2857 126.286 19.8469C126.937 19.4081 127.484 18.8337 127.892 18.1631L131.005 19.9357C129.596 23.1786 125.262 25.0585 121.253 24.2277C117.091 23.3662 114.216 19.6869 114.27 15.2878C114.323 10.7508 117.237 7.31655 121.732 6.48191C125.457 5.7851 129.711 7.7645 130.924 10.8274Z" fill="#2B2B29"/>
<path d="M157.667 23.9328H154.026V6.86092H157.656V9.33039C158.896 7.3931 160.634 6.52017 162.916 6.51251V10.4216C162.274 10.4761 161.635 10.5656 161.002 10.6896C158.889 11.2103 157.698 12.7991 157.667 15.1959C157.629 17.8376 157.667 20.4794 157.667 23.1173C157.663 23.37 157.667 23.6227 157.667 23.9328Z" fill="#2B2B29"/>
<path d="M99.2612 23.4159C100.649 23.5343 102.045 23.3108 103.327 22.7651C106.269 21.5309 108.64 19.2366 109.97 16.3368C110.552 15.0732 110.814 13.6863 110.736 12.2976C110.7 11.7743 110.59 11.2587 110.41 10.7661L97.7297 23.0407C98.2202 23.2368 98.7357 23.3631 99.2612 23.4159Z" fill="#2B2B29"/>
<path d="M106.272 7.66876C104.888 7.55687 103.497 7.78422 102.221 8.33111C99.2829 9.56555 96.917 11.8604 95.5935 14.7594C95.0048 16.0174 94.7315 17.3998 94.7972 18.7871C94.8302 19.322 94.9398 19.8493 95.1226 20.353L107.845 8.04396C107.342 7.84209 106.812 7.71566 106.272 7.66876Z" fill="#2B2B29"/>
<path d="M110.87 10.8733C110.043 9.46028 108.864 8.28613 107.447 7.46585C106.581 6.95471 105.637 6.58992 104.652 6.38617V6.7116C105.133 6.92936 105.581 7.21283 105.984 7.5539C107.036 8.46804 107.847 9.62625 108.347 10.9269C109.506 13.8987 109.506 17.1975 108.347 20.1693C107.846 21.4694 107.035 22.6274 105.984 23.5423C105.581 23.8834 105.133 24.1668 104.652 24.3846V24.7139C105.642 24.518 106.592 24.1569 107.462 23.6457C108.875 22.826 110.05 21.6514 110.87 20.2382C111.7 18.8173 112.137 17.2013 112.137 15.5558C112.137 13.9102 111.7 12.2943 110.87 10.8733Z" fill="#2B2B29"/>
<path d="M99.5446 23.5423C98.5023 22.6241 97.6983 21.4666 97.2015 20.1693C96.0426 17.1975 96.0426 13.8987 97.2015 10.927C97.6973 9.62915 98.5015 8.47149 99.5446 7.55393C99.9506 7.20425 100.406 6.91654 100.896 6.70015V6.37854C99.8997 6.57522 98.9434 6.93759 98.0668 7.45056C96.4239 8.40224 95.1093 9.83119 94.2977 11.5476C93.4861 13.2641 93.2159 15.1868 93.5229 17.0605C93.8299 18.9342 94.6997 20.6701 96.0166 22.0378C97.3336 23.4055 99.0354 24.3401 100.896 24.7177V24.3961C100.406 24.1797 99.9506 23.892 99.5446 23.5423Z" fill="#2B2B29"/>
</svg>
