<svg width="184" height="31" viewBox="0 0 184 31" fill="none" xmlns="http://www.w3.org/2000/svg">
<path d="M165.711 30.7861V6.86861H169.413V9.00116C169.528 9.00116 169.589 9.00116 169.609 9.00116C172.331 5.50178 178.101 5.55538 181.374 8.87481C185.903 13.4692 184.349 21.5476 178.437 23.8716C175.608 24.9819 171.776 24.4995 169.723 21.9573C169.67 21.8922 169.601 21.8462 169.448 21.7046V30.8129L165.711 30.7861ZM180.26 15.418C180.26 12.2249 178.024 9.92386 174.9 9.91238C174.179 9.88593 173.461 10.0075 172.79 10.2695C172.118 10.5316 171.508 10.9286 170.996 11.4359C170.484 11.9433 170.081 12.5503 169.813 13.2194C169.545 13.8885 169.416 14.6055 169.436 15.3261C169.436 18.5345 171.699 20.8661 174.842 20.8699C177.986 20.8738 180.241 18.5919 180.252 15.4218L180.26 15.418Z" fill="white"/>
<path d="M20.016 16.9532C20.5329 19.0398 21.7695 20.3032 23.7221 20.7818C26.1189 21.3638 28.2667 20.935 29.9705 18.8981L32.9989 20.6631C32.4236 21.544 31.6794 22.3021 30.8093 22.8935C29.9393 23.485 28.9605 23.8981 27.9298 24.1089C24.8669 24.7521 21.8959 24.4535 19.3805 22.4128C16.3597 19.9587 15.5518 16.6699 16.4247 13.0097C17.2709 9.495 19.5872 7.26673 23.1478 6.5546C28.4352 5.48641 32.8305 8.54549 33.7149 13.8635C33.7986 14.7454 33.8153 15.6323 33.7647 16.5167C33.7647 17.0604 33.3818 16.9379 33.0678 16.9379H20.016V16.9532ZM29.9705 13.8903C29.8594 11.528 27.7805 9.77066 25.2038 9.71323C22.6271 9.6558 20.3453 11.3404 20.0658 13.8903H29.9705Z" fill="white"/>
<path d="M59.1908 23.9367H55.5536V0H59.164V8.80587C59.3822 8.61444 59.5009 8.53021 59.5966 8.42301C61.511 6.27131 63.9383 5.9765 66.5226 6.62354C69.0342 7.25144 70.4317 9.04707 70.9332 11.5433C71.0505 12.1617 71.107 12.79 71.1017 13.4194C71.1017 16.7618 71.1017 20.1042 71.1017 23.4466C71.1017 23.5844 71.1017 23.7184 71.0711 23.9022H67.4185V23.1556C67.4185 20.1654 67.4185 17.1753 67.4185 14.1813C67.4191 13.668 67.3755 13.1556 67.2884 12.6498C67.1775 11.9521 66.8452 11.3086 66.3405 10.8143C65.8359 10.32 65.1856 10.0011 64.4858 9.90469C61.3616 9.39548 59.2942 11.1413 59.2138 14.4761C59.1449 17.3246 59.1946 20.1769 59.1908 23.0293V23.9367Z" fill="white"/>
<path d="M132.475 15.3988C132.459 13.6009 132.977 11.8387 133.964 10.3358C134.951 8.83286 136.362 7.65685 138.018 6.95688C139.674 6.25691 141.501 6.06452 143.267 6.4041C145.032 6.74369 146.657 7.59995 147.936 8.86431C149.214 10.1287 150.088 11.7442 150.447 13.506C150.806 15.2678 150.634 17.0965 149.952 18.7602C149.27 20.424 148.11 21.8478 146.618 22.8512C145.126 23.8545 143.37 24.3923 141.572 24.3961C140.38 24.415 139.197 24.1959 138.091 23.7516C136.986 23.3074 135.98 22.647 135.133 21.8091C134.285 20.9711 133.614 19.9726 133.158 18.8718C132.701 17.7711 132.469 16.5904 132.475 15.3988ZM146.897 15.4218C146.897 12.3014 144.6 9.96597 141.537 9.97746C140.46 9.96304 139.403 10.2691 138.501 10.8567C137.598 11.4443 136.89 12.287 136.468 13.2777C136.045 14.2684 135.926 15.3624 136.127 16.4207C136.327 17.479 136.837 18.4538 137.593 19.2213C138.349 19.9889 139.315 20.5145 140.371 20.7314C141.426 20.9483 142.521 20.8466 143.518 20.4394C144.516 20.0322 145.369 19.3378 145.971 18.4444C146.572 17.551 146.895 16.4989 146.897 15.4218Z" fill="white"/>
<path d="M78.7935 6.86856V8.78288C78.9174 8.69964 79.0351 8.60751 79.1457 8.50722C81.1136 6.23683 83.629 5.95734 86.3053 6.70775C88.9815 7.45817 90.2717 9.4146 90.5819 12.0372C90.7109 13.5484 90.7595 15.0654 90.7274 16.5818C90.7274 19.0092 90.7274 21.4365 90.7274 23.9137H87.0136V23.079C87.0136 20.1578 87.0136 17.2365 87.0136 14.3153C87.0275 13.7321 86.9774 13.1493 86.8643 12.5771C86.4814 10.8465 85.2064 9.89701 83.2768 9.84341C81.2706 9.77832 79.6626 10.8159 79.1227 12.6192C78.9244 13.2892 78.8226 13.9841 78.8203 14.6828C78.7858 17.7457 78.8203 20.8086 78.8203 23.9213H75.1333V6.86856H78.7935Z" fill="white"/>
<path d="M10.7432 23.929H6.76903V3.72526H0V0H17.4356V3.69464H10.7432V23.929Z" fill="white"/>
<path d="M52.7127 10.8274L49.5962 12.6345C49.1781 11.8475 48.5532 11.1895 47.7888 10.7314C47.0244 10.2733 46.1495 10.0325 45.2583 10.0349C44.5329 9.99254 43.8066 10.1017 43.1257 10.3555C42.4447 10.6093 41.8241 11.0021 41.3033 11.5089C39.2129 13.5304 39.2206 17.2519 41.3033 19.2849C41.8832 19.8497 42.5843 20.2747 43.3533 20.5275C44.1223 20.7803 44.9389 20.8542 45.7407 20.7436C47.1688 20.6057 47.9537 20.1042 49.711 18.1937L52.7203 19.9051C52.0465 22.566 47.9077 24.6794 43.9872 24.3846C39.8523 24.0783 36.3721 20.4947 36.0275 16.2066C35.6446 11.6544 38.4089 7.74918 42.7467 6.63504C46.7515 5.6128 51.254 7.47734 52.7127 10.8274Z" fill="white"/>
<path d="M130.924 10.8274L127.819 12.6345C127.398 11.8316 126.761 11.1625 125.979 10.7025C125.198 10.2425 124.304 10.0099 123.397 10.031C122.66 9.99721 121.925 10.1215 121.24 10.3956C120.555 10.6696 119.937 11.0871 119.427 11.6199C117.352 13.7601 117.513 17.5581 119.741 19.4954C120.341 20.0013 121.043 20.3714 121.799 20.5802C122.556 20.789 123.349 20.8316 124.123 20.705C124.897 20.5784 125.635 20.2857 126.286 19.8469C126.937 19.4081 127.484 18.8336 127.892 18.163L131.005 19.9357C129.596 23.1785 125.262 25.0584 121.253 24.2276C117.091 23.3661 114.216 19.6868 114.27 15.2877C114.323 10.7508 117.237 7.31649 121.732 6.48185C125.457 5.78504 129.711 7.76444 130.924 10.8274Z" fill="white"/>
<path d="M157.667 23.9328H154.026V6.86086H157.656V9.33033C158.896 7.39304 160.634 6.52011 162.916 6.51245V10.4215C162.274 10.476 161.635 10.5655 161.002 10.6895C158.889 11.2102 157.698 12.7991 157.667 15.1958C157.629 17.8376 157.667 20.4793 157.667 23.1173C157.663 23.37 157.667 23.6226 157.667 23.9328Z" fill="white"/>
<path d="M99.2612 23.4159C100.649 23.5343 102.045 23.3108 103.327 22.7651C106.269 21.5309 108.64 19.2366 109.97 16.3368C110.552 15.0732 110.814 13.6863 110.736 12.2976C110.7 11.7743 110.59 11.2587 110.41 10.7661L97.7297 23.0407C98.2202 23.2368 98.7357 23.3631 99.2612 23.4159Z" fill="white"/>
<path d="M106.272 7.66888C104.888 7.55699 103.497 7.78435 102.221 8.33123C99.2829 9.56567 96.917 11.8605 95.5935 14.7595C95.0048 16.0175 94.7315 17.3999 94.7972 18.7872C94.8302 19.3221 94.9398 19.8494 95.1226 20.3532L107.845 8.04408C107.342 7.84222 106.812 7.71578 106.272 7.66888Z" fill="white"/>
<path d="M110.87 10.8734C110.043 9.46034 108.864 8.28619 107.447 7.46591C106.581 6.95477 105.637 6.58998 104.652 6.38623V6.71166C105.133 6.92942 105.581 7.2129 105.984 7.55396C107.036 8.4681 107.847 9.62631 108.347 10.927C109.506 13.8988 109.506 17.1975 108.347 20.1693C107.846 21.4695 107.035 22.6275 105.984 23.5424C105.581 23.8834 105.133 24.1669 104.652 24.3847V24.7139C105.642 24.5181 106.592 24.157 107.462 23.6457C108.875 22.826 110.05 21.6514 110.87 20.2382C111.7 18.8173 112.137 17.2014 112.137 15.5558C112.137 13.9103 111.7 12.2943 110.87 10.8734Z" fill="white"/>
<path d="M99.5446 23.5422C98.5023 22.6239 97.6983 21.4665 97.2015 20.1692C96.0426 17.1974 96.0426 13.8986 97.2015 10.9268C97.6973 9.62903 98.5015 8.47137 99.5446 7.55381C99.9506 7.20413 100.406 6.91642 100.896 6.70003V6.37842C99.8997 6.5751 98.9434 6.93747 98.0668 7.45044C96.4239 8.40212 95.1093 9.83107 94.2977 11.5475C93.4861 13.264 93.2159 15.1867 93.5229 17.0604C93.8299 18.934 94.6997 20.67 96.0166 22.0377C97.3336 23.4053 99.0354 24.34 100.896 24.7176V24.396C100.406 24.1796 99.9506 23.8919 99.5446 23.5422Z" fill="white"/>
</svg>
