<svg width="14" height="16" viewBox="0 0 14 16" fill="none" xmlns="http://www.w3.org/2000/svg">
<path d="M6.80664 1V5.1105L8.17681 3.74033" stroke="#03609D" stroke-width="1.02762" stroke-linecap="round" stroke-linejoin="round"/>
<path d="M6.80669 5.1104L5.43652 3.74023" stroke="#03609D" stroke-width="1.02762" stroke-linecap="round" stroke-linejoin="round"/>
<path d="M3.3812 7.85083C0.640869 7.85083 0.640869 9.07713 0.640869 10.5912V11.2762C0.640869 13.1671 0.640869 14.7017 4.06628 14.7017H9.54695C12.2873 14.7017 12.9724 13.1671 12.9724 11.2762V10.5912C12.9724 9.07713 12.9724 7.85083 10.232 7.85083C10.0092 7.83029 9.78459 7.85617 9.57233 7.92693C9.36006 7.99768 9.16481 8.11175 8.99889 8.26186L8.31381 9.0018C8.12172 9.20498 7.89018 9.36678 7.63339 9.4774C7.37659 9.58801 7.09992 9.64507 6.82031 9.64507C6.5407 9.64507 6.26405 9.58801 6.00725 9.4774C5.75046 9.36678 5.51892 9.20498 5.32683 9.0018L4.64175 8.26186C4.47583 8.11175 4.28058 7.99768 4.06831 7.92693C3.85605 7.85617 3.63141 7.83029 3.40861 7.85083H3.3812Z" stroke="#03609D" stroke-width="1.02762" stroke-linecap="round" stroke-linejoin="round"/>
<path d="M2.01099 7.85078V5.11045C2.01099 3.74028 2.01099 2.59619 4.06624 2.37012" stroke="#03609D" stroke-width="1.02762" stroke-linecap="round" stroke-linejoin="round"/>
<path d="M11.6021 7.85078V5.11045C11.6021 3.74028 11.6021 2.59619 9.54688 2.37012" stroke="#03609D" stroke-width="1.02762" stroke-linecap="round" stroke-linejoin="round"/>
</svg>
