<svg width="66" height="74" viewBox="0 0 66 74" fill="none" xmlns="http://www.w3.org/2000/svg">
<path d="M46.6272 37.6576L40.8559 48.6172C40.8033 48.718 40.7238 48.8022 40.6263 48.8606C40.5282 48.9206 40.4154 48.9524 40.3003 48.9524C40.2516 48.9591 40.2021 48.9591 40.1534 48.9524C40.0185 48.919 39.8979 48.8434 39.809 48.7366C39.7227 48.6266 39.6758 48.4908 39.6759 48.3509L39.5795 40.4125H37.0267C36.9193 40.4122 36.8136 40.3854 36.719 40.3344C36.6245 40.2804 36.5454 40.2029 36.4895 40.1094C36.436 40.0159 36.409 39.9095 36.4114 39.8018C36.4101 39.6942 36.437 39.5881 36.4895 39.4942L42.1093 28.778C42.1734 28.653 42.2778 28.5533 42.4056 28.4949C42.5334 28.4366 42.6771 28.4231 42.8135 28.4565C42.95 28.49 43.0711 28.5684 43.1575 28.6793C43.2438 28.7901 43.2902 28.9267 43.2893 29.0672V36.7394H46.0854C46.1937 36.7381 46.3004 36.7655 46.3947 36.8187C46.4891 36.8719 46.5677 36.9491 46.6226 37.0424C46.6783 37.137 46.7077 37.2448 46.7077 37.3546C46.7077 37.4644 46.6783 37.5722 46.6226 37.6668L46.6272 37.6576ZM33.4913 34.1407H21.9532C21.8211 34.1398 21.6915 34.105 21.5767 34.0397C21.4634 33.9717 21.37 33.8751 21.3058 33.7596C21.2385 33.6456 21.2035 33.5155 21.2048 33.3831C21.2095 33.2518 21.2474 33.1238 21.315 33.0112L25.2544 26.4547C25.3196 26.342 25.415 26.2498 25.5299 26.1884C25.6436 26.1251 25.7716 26.0919 25.9018 26.092L33.4867 26.2206L33.4913 34.1407ZM23.0414 44.7008L18.8265 44.508H18.5327C18.3494 44.5073 18.1666 44.4904 17.9863 44.4575H17.8485C17.22 44.307 16.6604 43.9493 16.2598 43.4421C15.8592 42.9349 15.6409 42.3076 15.6401 41.6613C15.6403 41.2834 15.715 40.9092 15.86 40.5602C16.0049 40.2112 16.2173 39.8942 16.4849 39.6273C16.7512 39.3593 17.0682 39.147 17.4174 39.0027C17.7666 38.8585 18.1411 38.7852 18.5189 38.7871C19.2662 38.791 19.9825 39.0858 20.5161 39.609L23.574 41.8404V41.8633C23.8472 41.9741 24.0807 42.1645 24.2443 42.4097C24.4065 42.6548 24.4928 42.9423 24.4922 43.2361C24.4944 43.4285 24.4581 43.6194 24.3856 43.7975C24.3131 43.9757 24.2057 44.1376 24.0698 44.2738C23.7986 44.5434 23.4329 44.6965 23.0506 44.7008H23.0414ZM53.2985 51.9138H49.6254V25.6145C49.6255 25.4741 49.5974 25.3352 49.5427 25.2059C49.4876 25.0757 49.4081 24.9573 49.3086 24.8569C49.2088 24.7577 49.0902 24.6797 48.9596 24.6274C48.8304 24.5723 48.6914 24.5442 48.551 24.5447H46.1451V22.3087C46.1476 22.2237 46.1326 22.139 46.1011 22.06C46.0695 21.9811 46.0219 21.9094 45.9615 21.8496C45.902 21.7887 45.8304 21.7408 45.7513 21.7092C45.6722 21.6776 45.5874 21.6628 45.5023 21.6659C45.4173 21.6634 45.3326 21.6784 45.2536 21.71C45.1747 21.7416 45.103 21.7891 45.0432 21.8496C44.9838 21.9102 44.937 21.982 44.9054 22.0608C44.8739 22.1396 44.8583 22.2239 44.8595 22.3087V24.5447H38.4316V22.3087C38.4342 22.2237 38.4192 22.139 38.3876 22.06C38.356 21.9811 38.3085 21.9094 38.248 21.8496C38.1885 21.7887 38.1169 21.7408 38.0378 21.7092C37.9588 21.6776 37.8739 21.6628 37.7888 21.6659C37.7039 21.6639 37.6194 21.6792 37.5405 21.7108C37.4615 21.7423 37.3899 21.7895 37.3297 21.8496C37.2703 21.9102 37.2235 21.982 37.1919 22.0608C37.1604 22.1396 37.1448 22.2239 37.146 22.3087V24.5447H34.5565C34.4954 24.5402 34.434 24.5402 34.3729 24.5447H25.5069C25.3235 24.5487 25.1438 24.5976 24.9837 24.6873C24.8235 24.777 24.6879 24.9046 24.5887 25.059L19.3775 33.1306L18.4317 32.0654C18.3804 32.0107 18.3197 31.9656 18.2526 31.9322C18.1829 31.9019 18.1082 31.8848 18.0322 31.8817H14.327C14.2041 31.8856 14.0855 31.9273 13.9872 32.0011C13.8909 32.0777 13.823 32.1844 13.7944 32.3041L13.473 33.6815C13.4443 33.8186 13.469 33.9614 13.5418 34.081L14.2122 35.1737C14.2609 35.2518 14.3285 35.3162 14.4088 35.3612C14.489 35.4061 14.5793 35.4301 14.6713 35.4308H17.8394C17.7995 35.4879 17.7533 35.5403 17.7016 35.5869L14.0285 39.0167C13.9167 39.1214 13.8276 39.248 13.7668 39.3886C13.7028 39.533 13.6715 39.6898 13.675 39.8477V56.4593C13.6744 56.606 13.7028 56.7513 13.7587 56.887C13.8145 57.0226 13.8967 57.1458 14.0004 57.2495C14.1042 57.3533 14.2274 57.4354 14.363 57.4913C14.4987 57.5471 14.644 57.5756 14.7907 57.575H21.0304C21.1771 57.5756 21.3224 57.5471 21.458 57.4913C21.5937 57.4354 21.7169 57.3533 21.8206 57.2495C21.9244 57.1458 22.0065 57.0226 22.0624 56.887C22.1182 56.7513 22.1467 56.606 22.1461 56.4593V54.3013C22.1473 54.005 22.2658 53.7212 22.4758 53.5121C22.6858 53.303 22.97 53.1856 23.2664 53.1856H34.4417C34.5029 53.1902 34.5643 53.1902 34.6254 53.1856H53.2985C53.3834 53.1876 53.4679 53.1724 53.5468 53.1408C53.6257 53.1093 53.6974 53.062 53.7576 53.002C53.817 52.9414 53.8638 52.8696 53.8953 52.7908C53.9269 52.712 53.9425 52.6277 53.9412 52.5428C53.9397 52.4612 53.9242 52.3804 53.8953 52.3041C53.8636 52.2267 53.8168 52.1565 53.7576 52.0975C53.6346 51.9783 53.4697 51.9124 53.2985 51.9138Z" fill="#69B544"/>
<path d="M42.0267 37.35V31.6338L38.0735 39.1728H40.2085C40.2932 39.1699 40.3775 39.1843 40.4565 39.2151C40.5354 39.2459 40.6073 39.2924 40.6676 39.3519C40.7283 39.4118 40.7762 39.4833 40.8086 39.5622C40.8409 39.6411 40.857 39.7257 40.8559 39.811L40.9247 45.844L45.057 38.002H42.6603C42.4952 37.9975 42.3385 37.9282 42.2241 37.8092C42.1622 37.7497 42.1129 37.6784 42.0789 37.5996C42.045 37.5207 42.0273 37.4359 42.0267 37.35Z" fill="#69B544"/>
<path d="M32.8669 7.3822C33.326 6.22518 33.5189 6.10581 34.8595 6.09203C35.6814 6.09203 36.6272 6.3216 37.2792 5.98643C37.9312 5.65126 38.1607 4.72381 38.6566 4.11316C39.3902 3.12374 40.3455 2.32009 41.4458 1.76671C42.5462 1.21334 43.761 0.925652 44.9927 0.926751H48.0873C48.0873 0.0819409 48.6428 0.00847915 49.2856 0.00847915C51.4068 -0.0374345 51.1589 0.0406185 51.1681 1.87716C51.1681 3.19948 51.1681 3.19947 52.5179 3.19947H56.1084C57.0863 3.19947 57.7062 3.74126 57.7658 4.63198C57.798 4.83911 57.7839 5.05079 57.7245 5.25181C57.6684 5.45533 57.5698 5.64465 57.4353 5.80737C57.2995 5.96927 57.1324 6.10203 56.944 6.19764C56.7564 6.29067 56.5516 6.34382 56.3425 6.35374C55.3049 6.44557 54.258 6.40884 53.2158 6.42261H51.2186V12.1389H56.1084C56.3698 12.1402 56.6272 12.2034 56.8596 12.3232C57.0919 12.443 57.2926 12.6161 57.4453 12.8284C57.598 13.0406 57.6983 13.2859 57.7381 13.5443C57.7778 13.8027 57.7559 14.0669 57.674 14.3152C57.5991 14.5236 57.4818 14.7143 57.3297 14.8753C57.1737 15.0321 56.9862 15.1542 56.7797 15.2333C56.5731 15.3124 56.3522 15.3469 56.1313 15.3344C54.7539 15.3344 53.3765 15.3344 51.9991 15.3344H51.2002V17.3317C51.1726 18.3556 51.0946 18.4198 50.0845 18.4244H49.0193C48.4775 18.4566 48.101 18.3005 48.101 17.6026C47.1277 17.6026 46.1772 17.6026 45.2268 17.6026C41.8706 17.5245 39.3591 16.0323 37.7705 13.0571C37.7077 12.8712 37.587 12.7103 37.4261 12.598C37.2645 12.4919 37.0725 12.4419 36.8797 12.4557C36.1497 12.4878 35.4197 12.4557 34.6851 12.4557C33.5418 12.4557 33.2021 12.2031 32.7888 10.9589C31.1222 11.1288 29.3958 11.2252 27.7108 11.5098C24.7525 12.0152 21.8961 12.9983 19.2535 14.4208C14.4615 16.9493 10.4572 20.7471 7.67869 25.3987C5.86106 28.4129 4.60272 31.7306 3.96427 35.1921C3.41946 38.0677 3.3219 41.0103 3.67502 43.9157C4.20831 48.5957 5.87233 53.0756 8.5235 56.9689C10.843 60.3956 13.8567 63.2965 17.3694 65.4835C20.8821 67.6705 24.8152 69.0948 28.9137 69.664C33.5824 70.3167 38.3396 69.8356 42.7831 68.2612C47.2265 66.6868 51.2254 64.0655 54.4417 60.619C58.3178 56.5099 60.9232 51.3677 61.944 45.8119C62.4402 42.9732 62.5498 40.0804 62.27 37.2123C62.1089 35.0556 61.7523 32.9179 61.2048 30.8257C60.3556 27.5334 58.8484 24.4472 56.7741 21.7532C56.5521 21.5402 56.3605 21.2977 56.2048 21.0323C56.1124 20.7206 56.0629 20.3978 56.0579 20.0727C56.4022 20.1049 56.8568 20.0084 57.068 20.1967C57.9276 20.995 58.7286 21.8543 59.4646 22.7679C62.2751 26.3354 64.2645 30.4788 65.2911 34.9028C65.8762 37.3049 66.093 39.7819 65.9339 42.249C65.7842 44.9125 65.3219 47.5493 64.5565 50.1048C62.8647 55.6593 59.7398 60.6703 55.4962 64.6334C51.2526 68.5965 46.04 71.372 40.3829 72.6805C36.8603 73.4766 33.2316 73.6937 29.6392 73.3233C25.2358 72.8909 20.9654 71.5722 17.0849 69.4465C13.2044 67.3208 9.79397 64.4321 7.05885 60.9542C4.48379 57.7471 2.56348 54.0656 1.40689 50.1186C0.83965 48.1664 0.438769 46.1697 0.208541 44.1498C-0.00872399 42.0589 -0.0563225 39.9537 0.0662096 37.8551C0.262819 34.8412 0.90653 31.8733 1.97622 29.0488C4.5444 22.1321 9.35265 16.2733 15.6355 12.4052C19.1055 10.2517 22.952 8.77477 26.9716 8.05254C28.9137 7.68064 30.888 7.598 32.8669 7.3822Z" fill="#69B544"/>
</svg>
